<?xml version="1.0" encoding="UTF-8"?>
<!DOCTYPE svg PUBLIC "-//W3C//DTD SVG 1.1//EN" "http://www.w3.org/Graphics/SVG/1.1/DTD/svg11.dtd">
<!-- Creator: CorelDRAW -->
<svg xmlns="http://www.w3.org/2000/svg" xml:space="preserve" width="213.715mm" height="117.013mm" version="1.1" style="shape-rendering:geometricPrecision; text-rendering:geometricPrecision; image-rendering:optimizeQuality; fill-rule:evenodd; clip-rule:evenodd"
viewBox="0 0 22030.15 12061.9"
 xmlns:xlink="http://www.w3.org/1999/xlink"
 xmlns:xodm="http://www.corel.com/coreldraw/odm/2003">
 <defs>
  <style type="text/css">
   <![CDATA[
    .str0 {stroke:white;stroke-width:18.17;stroke-miterlimit:2.61313}
    .fil5 {fill:none}
    .fil4 {fill:#FEFEFE}
    .fil8 {fill:#373435}
    .fil3 {fill:#ED3237}
    .fil6 {fill:#ED3237}
    .fil2 {fill:#51A8B1}
    .fil1 {fill:#51A8B1}
    .fil0 {fill:#373435;fill-rule:nonzero}
    .fil7 {fill:#ED3237;fill-rule:nonzero}
   ]]>
  </style>
 </defs>
 <g id="PowerClip_x0020_Contents">
  <metadata id="CorelCorpID_0Corel-Layer"/>
  <g id="_2153143662912">
   <path class="fil0" d="M16965.09 10359.59l124.4 -551.38 78.99 0 -124 551.38 -79.39 0zm382.14 -55.34l-12.06 55.72c-17.57,4.24 -34.59,6.45 -51.16,6.45 -29.1,0 -52.29,-6.7 -69.59,-20.05 -12.99,-10.02 -19.55,-23.61 -19.55,-40.95 0,-8.73 3.52,-28.9 10.53,-60.57l52.29 -231.97 -57.92 0 11.73 -52.64 57.99 0 22.27 -98.21 83.97 -46.98 -32.95 145.19 72.24 0 -12.19 52.64 -71.78 0 -49.84 220.77c-6.23,27.99 -9.28,44.83 -9.28,50.3 0,8.12 2.53,14.14 7.49,18.51 4.97,4.25 13.12,6.27 24.45,6.27 16.24,0 30.75,-1.41 43.35,-4.48zm160.64 -416.7l17.43 -76.99 83.37 0 -14.91 67.64c-9.28,40.28 -23.53,69.8 -42.75,88.56 -19.35,18.63 -42.22,29.51 -68.33,32.47l6.9 -29.65c31.81,-8.36 53.15,-35.54 63.62,-82.03l-45.34 0zm75.02 335.58l73.3 -4.25c0,19.62 3.31,36.35 9.81,50.07 6.36,13.77 18.42,25.03 35.85,33.88 17.43,8.73 37.77,13.09 61.03,13.09 32.35,0 56.73,-6.02 72.9,-17.96 16.17,-12.05 24.33,-26.32 24.33,-42.61 0,-11.68 -4.84,-22.87 -14.65,-33.39 -9.94,-10.51 -34.33,-23.49 -73.03,-38.87 -38.9,-15.56 -63.69,-26.32 -74.43,-32.65 -18.16,-10.28 -31.68,-22.33 -40.95,-36.28 -9.15,-13.91 -13.72,-29.96 -13.72,-47.91 0,-31.54 13.45,-58.66 40.55,-81.23 26.98,-22.64 64.76,-33.88 113.4,-33.88 54.02,0 95.24,11.68 123.4,34.74 28.23,23.25 42.94,53.81 44.01,91.69l-71.78 4.49c-1.12,-24.17 -10.27,-43.17 -27.56,-57.14 -17.24,-14.14 -41.76,-21.03 -73.3,-21.03 -25.45,0 -45.07,5.35 -59.18,15.99 -14.12,10.82 -21.08,22.51 -21.08,35.06 0,12.61 6.1,23.62 18.3,33.14 8.02,6.53 28.89,16.54 62.83,30.02 56.13,22.63 91.59,40.46 106.1,53.44 23.19,20.78 34.85,46.18 34.85,76 0,19.74 -6.49,39.24 -19.68,58.24 -13.12,19 -33.07,34.32 -60.05,45.7 -26.84,11.43 -58.52,17.09 -95.03,17.09 -49.64,0 -91.99,-11.44 -126.85,-34.13 -34.86,-22.87 -51.29,-59.96 -49.38,-111.31zm646.96 136.46l124.34 -551.38 248.06 0c43.02,0 75.29,4.62 96.69,13.77 21.47,9.1 39.31,24.73 53.29,46.98 14.11,22.2 21.13,47.11 21.13,74.66 0,22.75 -5.1,46 -15.04,69.61 -9.94,23.49 -22.53,42.99 -37.91,58.29 -15.24,15.26 -30.75,26.82 -46.33,34.5 -15.77,7.88 -32.53,13.6 -50.37,17.35 -38.04,8.36 -76.55,12.42 -115.38,12.42l-148.85 0 -50.23 223.78 -79.4 0zm143.88 -286.27l130.83 0c50.76,0 88.14,-5.04 111.93,-15.12 23.8,-10.14 42.75,-25.71 57.13,-46.49 14.26,-20.79 21.48,-42.86 21.48,-66.23 0,-18.02 -3.78,-32.78 -11.34,-44.16 -7.62,-11.43 -18.29,-19.8 -32.01,-25.21 -13.78,-5.35 -40.23,-8.05 -79.53,-8.05l-152.3 0 -46.19 205.27zm414.61 134.68c0,-77.91 24.73,-142.48 74.17,-193.59 40.76,-42.24 94.31,-63.27 160.45,-63.27 51.89,0 93.77,15.12 125.45,45.13 31.69,30.08 47.65,70.79 47.65,121.83 0,46 -10.01,88.61 -30.02,128.15 -19.96,39.42 -48.45,69.67 -85.23,90.77 -36.99,21.03 -75.82,31.54 -116.65,31.54 -33.47,0 -63.95,-6.51 -91.32,-19.86 -27.38,-13.23 -48.45,-32.1 -62.83,-56.39 -14.51,-24.36 -21.68,-52.52 -21.68,-84.32zm73.3 -6.7c0,37.64 9.81,66.11 29.16,85.49 19.55,19.43 44.27,29.14 74.16,29.14 15.77,0 31.29,-2.95 46.65,-8.85 15.51,-5.9 29.76,-14.75 43.02,-26.81 13.12,-12.05 24.52,-25.82 33.74,-41.2 9.4,-15.43 16.9,-31.98 22.6,-49.81 8.41,-24.9 12.59,-48.64 12.59,-71.52 0,-36.04 -9.88,-64.09 -29.49,-84.06 -19.48,-19.93 -44.13,-29.77 -73.89,-29.77 -22.94,0 -44.01,4.98 -62.77,15.13 -18.95,10.14 -36.12,25.03 -51.36,44.52 -15.25,19.68 -26.45,42.37 -33.6,68.32 -7.23,25.88 -10.8,49.02 -10.8,69.43zm382.27 21.83l73.3 -4.25c0,19.62 3.31,36.35 9.8,50.07 6.36,13.77 18.42,25.03 35.85,33.88 17.43,8.73 37.78,13.09 61.05,13.09 32.34,0 56.73,-6.02 72.9,-17.96 16.17,-12.05 24.32,-26.32 24.32,-42.61 0,-11.68 -4.83,-22.87 -14.65,-33.39 -9.94,-10.51 -34.33,-23.49 -73.03,-38.87 -38.89,-15.56 -63.68,-26.32 -74.43,-32.65 -18.15,-10.28 -31.68,-22.33 -40.95,-36.28 -9.14,-13.91 -13.72,-29.96 -13.72,-47.91 0,-31.54 13.46,-58.66 40.56,-81.23 26.98,-22.64 64.75,-33.88 113.39,-33.88 54.02,0 95.24,11.68 123.41,34.74 28.23,23.25 42.94,53.81 44.01,91.69l-71.78 4.49c-1.12,-24.17 -10.28,-43.17 -27.57,-57.14 -17.23,-14.14 -41.75,-21.03 -73.29,-21.03 -25.45,0 -45.07,5.35 -59.19,15.99 -14.11,10.82 -21.07,22.51 -21.07,35.06 0,12.61 6.09,23.62 18.29,33.14 8.02,6.53 28.89,16.54 62.83,30.02 56.14,22.63 91.59,40.46 106.1,53.44 23.2,20.78 34.86,46.18 34.86,76 0,19.74 -6.49,39.24 -19.68,58.24 -13.12,19 -33.08,34.32 -60.05,45.7 -26.84,11.43 -58.52,17.09 -95.04,17.09 -49.63,0 -91.99,-11.44 -126.84,-34.13 -34.86,-22.87 -51.3,-59.96 -49.38,-111.31zm415.07 0l73.3 -4.25c0,19.62 3.31,36.35 9.8,50.07 6.37,13.77 18.43,25.03 35.86,33.88 17.42,8.73 37.77,13.09 61.03,13.09 32.34,0 56.73,-6.02 72.9,-17.96 16.17,-12.05 24.33,-26.32 24.33,-42.61 0,-11.68 -4.84,-22.87 -14.65,-33.39 -9.95,-10.51 -34.34,-23.49 -73.03,-38.87 -38.9,-15.56 -63.69,-26.32 -74.43,-32.65 -18.16,-10.28 -31.68,-22.33 -40.96,-36.28 -9.14,-13.91 -13.71,-29.96 -13.71,-47.91 0,-31.54 13.45,-58.66 40.55,-81.23 26.98,-22.64 64.76,-33.88 113.4,-33.88 54,0 95.23,11.68 123.4,34.74 28.23,23.25 42.94,53.81 44.01,91.69l-71.78 4.49c-1.12,-24.17 -10.27,-43.17 -27.57,-57.14 -17.23,-14.14 -41.75,-21.03 -73.29,-21.03 -25.45,0 -45.07,5.35 -59.19,15.99 -14.11,10.82 -21.07,22.51 -21.07,35.06 0,12.61 6.09,23.62 18.29,33.14 8.02,6.53 28.9,16.54 62.83,30.02 56.14,22.63 91.6,40.46 106.11,53.44 23.19,20.78 34.85,46.18 34.85,76 0,19.74 -6.49,39.24 -19.68,58.24 -13.12,19 -33.07,34.32 -60.05,45.7 -26.84,11.43 -58.52,17.09 -95.04,17.09 -49.63,0 -91.98,-11.44 -126.84,-34.13 -34.86,-22.87 -51.29,-59.96 -49.38,-111.31zm512.3 -337.74l17.43 -77.18 72.9 0 -17.24 77.18 -73.1 0zm-106.9 474.2l89.93 -399.36 73.3 0 -89.94 399.36 -73.29 0zm187.16 0l124.13 -551.38 73.29 0 -44.13 197.03c23.26,-19.74 44.26,-33.76 63.22,-41.81 18.82,-8.25 38.64,-12.3 59.12,-12.3 40.22,0 73.83,13.96 100.67,41.81 26.98,27.74 40.43,68.32 40.43,121.46 0,35.3 -5.37,67.64 -16.17,97.04 -10.8,29.27 -24.26,53.93 -40.16,73.79 -16.04,20.05 -32.47,35.98 -49.51,47.79 -17.03,11.93 -34.46,20.91 -52.28,26.69 -17.83,5.91 -35,8.85 -51.5,8.85 -28.37,0 -53.22,-6.95 -74.95,-20.78 -21.61,-14.03 -38.44,-35.18 -50.63,-63.84l-17.04 75.64 -64.48 0zm108.62 -163.95l-0.39 12.73c0,34.13 8.81,60.09 26.44,77.92 17.57,17.71 39.37,26.69 65.55,26.69 25.71,0 49.23,-8.3 70.84,-25.03 21.41,-16.67 39.04,-42.74 52.82,-78.04 13.85,-35.3 20.62,-67.89 20.62,-97.84 0,-33.51 -8.68,-59.65 -26.11,-78.17 -17.3,-18.63 -38.9,-27.85 -64.62,-27.85 -26.44,0 -50.76,9.47 -72.9,28.35 -22.13,19.01 -40.69,48.15 -55.47,87.44 -11.21,29.4 -16.77,53.93 -16.77,73.8zm347.41 163.95l124.07 -551.38 73.36 0 -124.13 551.38 -73.3 0zm506.21 -135.84l71.44 6.82c-10.27,32.84 -33.92,64.08 -70.71,93.72 -36.98,29.51 -80.92,44.27 -132.02,44.27 -31.81,0 -61.1,-6.82 -87.67,-20.42 -26.58,-13.71 -46.92,-33.64 -60.91,-59.64 -13.78,-26.08 -20.74,-55.72 -20.74,-89.11 0,-43.66 10.8,-85.91 32.54,-126.99 21.86,-40.95 49.9,-71.33 84.5,-91.38 34.59,-19.93 72.11,-29.88 112.33,-29.88 51.37,0 92.32,14.87 123.01,44.4 30.75,29.64 45.92,69.98 45.92,121.02 0,19.68 -1.78,39.67 -5.63,60.21l-316.99 0c-1,7.87 -1.53,14.76 -1.53,21.09 0,37.33 9.28,65.86 27.7,85.6 18.49,19.63 41.22,29.52 67.93,29.52 25.19,0 49.78,-7.69 74.1,-22.94 24.39,-15.32 43.35,-37.39 56.74,-66.29zm-213.14 -98.82l241.5 0c0.27,-7.07 0.46,-12.06 0.46,-15.01 0,-34.13 -9.14,-60.32 -27.56,-78.47 -18.36,-18.2 -42.02,-27.31 -70.98,-27.31 -31.28,0 -59.91,10.14 -85.62,30.13 -25.85,20.05 -45.07,50.18 -57.8,90.65z"/>
   <polygon class="fil1" points="-0.01,0 5612.22,0 5612.22,4807.04 -0.01,4807.04 "/>
   <polygon class="fil2" points="-0.01,5472.56 5612.22,5472.56 5612.22,10279.63 -0.01,10279.63 "/>
   <polygon class="fil2" points="6329.44,0 11941.66,0 11941.66,4807.04 6329.44,4807.04 "/>
   <path class="fil3" d="M5903.42 7027.49l26.88 0c5.6,93.03 46.1,169.68 121.09,229.97 73.81,59.52 158.41,89.29 253.86,89.29 73.78,0 133.53,-19.33 179.63,-57.67 46.12,-38.68 69.39,-84.83 69.39,-138.41 0,-56.56 -22.47,-100.83 -66.98,-132.11 -42.91,-30.51 -127.9,-64.74 -255.05,-103.45 -101.45,-31.24 -174.03,-56.93 -217.35,-77.39 -50.13,-23.81 -89.03,-56.19 -117.48,-96.74 -30.49,-41.67 -45.72,-88.19 -45.72,-139.52 0,-57.3 20.85,-113.86 62.15,-168.95 -9.21,28.3 -14.04,53.21 -14.04,74.04 0,56.56 14.43,106.42 43.71,149.22 29.7,44.27 66.58,77.77 110.29,100.47 44.11,23.07 117.09,49.49 219.76,79.26 133.93,37.94 230.58,79.61 289.92,125.39 57.35,44.27 85.83,104.19 85.83,179 0,73.28 -29.67,139.88 -89.03,199.43 -60.53,60.28 -150.37,90.41 -270.28,90.41 -48.51,0 -115.9,-8.17 -202.11,-24.91 -75.39,-14.9 -131.52,-22.34 -169.23,-23.07l-8.02 -8.95c0.79,-12.29 0.79,-28.27 0.79,-47.61 0,-23.45 -1.98,-59.55 -6.78,-108.28 -4.04,-48.39 -6.03,-84.86 -6.03,-108.67 0,-31.24 1.6,-58.41 4.8,-80.74zm829.3 -455.46l-24.46 0c-0.79,-84.46 -36.89,-146.98 -108.28,-187.54 -69.77,-39.82 -153.96,-59.91 -253.43,-59.91 -79.4,0 -144.37,15.64 -195.29,46.88 -51.73,31.25 -77.41,68.46 -77.41,112.39 0,46.49 20.46,82.96 60.95,109.75 42.52,29.03 125.93,63.63 250.25,103.81 115.9,36.84 196.89,66.98 243.41,90.42 49.32,25.32 90.23,61.78 123.1,108.67 32.88,48.73 49.34,103.07 49.34,162.59 0,90.82 -36.09,161.88 -107.88,213.6 26.46,-34.23 39.7,-82.22 39.7,-144.01 0,-58.04 -14.43,-109.77 -43.3,-154.79 -30.46,-45.78 -68.18,-81.88 -112.68,-108.67 -45.73,-27.9 -119.49,-57.3 -222.17,-88.55 -154.37,-47.25 -255.03,-87.44 -301.94,-120.94 -46.92,-33.85 -70.59,-87.07 -70.59,-158.9 0,-82.96 36.09,-148.09 108.27,-195.34 72.19,-45.78 174.03,-68.46 306.38,-68.46 90.23,0 200.09,14.5 330.44,43.53l0 7.8 1.99 41.29c0,21.6 0.8,48.03 2.42,78.53 2.38,36.84 3.61,69.59 3.61,97.87 0,18.98 -0.79,42.43 -2.42,69.95zm430.32 -315.16l38.87 0 0 1149.05 -77.38 0c-27.68,0 -85.42,4.46 -174.03,13.03l0 -19.72c42.51,-10.05 74.57,-28.67 96.65,-55.46 22.45,-27.53 37.69,-59.15 45.7,-94.88 8.44,-37.57 12.84,-117.59 12.84,-239.65l0 -456.93c0,-105.3 -15.23,-177.87 -45.72,-216.95 -30.47,-39.45 -66.96,-63.26 -109.47,-71.81l0 -19.72c47.72,2.98 118.71,7.07 212.55,13.03zm593.49 1149.05l-469.98 0 0 -1149.05 341.68 0c64.56,0 185.65,-4.48 364.52,-13.03 -1.62,21.56 -2.42,37.94 -2.42,49.13 0,14.5 2.02,48.36 5.63,101.21 2.39,35.7 3.61,54.69 3.61,57.66l0 27.53 -20.06 0c-28.08,-62.5 -60.16,-103.08 -96.25,-121.3 -36.1,-17.48 -103.84,-26.06 -203.31,-26.06l-186.88 0c-29.67,0 -56.95,1.88 -82.22,5.6 -14.01,24.54 -22.05,83.35 -24.43,176.38l-2.42 74.04 0 177.86 253.83 0c95.46,0 158.81,-7.82 190.09,-23.07 31.69,-15.27 56.55,-51.35 75.39,-109.04l25.66 0c-6.02,65.51 -9.24,122.44 -9.24,170.06 0,30.87 2.42,70.69 7.23,120.18 1.22,14.5 3.21,43.17 5.62,85.97l-25.66 0c-7.22,-64 -28.08,-107.93 -62.55,-131.74 -34.89,-24.18 -90.23,-36.08 -165.62,-36.08l-294.75 0 0 237.78c0,91.53 5.63,171.9 16.45,240.75 32.88,4.46 68.15,6.7 105.87,6.7l178.44 0c97.05,0 170.46,-10.05 219.76,-30.53 51.75,-21.2 102.67,-68.09 152.8,-140.66l23.25 0c-8.41,33.48 -21.26,71.83 -38.5,115.73 -21.26,56.56 -36.49,105.69 -46.1,146.98 -89.03,-8.57 -168.83,-13.03 -239.42,-13.03zm704.57 -995.37c-89.03,106.8 -133.53,248.93 -133.53,426.06 0,208 54.93,363.92 165.62,468.85 -83.81,-32.75 -150.39,-91.9 -199.7,-177.86 -49.32,-84.84 -74.2,-180.85 -74.2,-287.64 0,-73.31 12.84,-141.03 38.9,-202.81 24.08,-61.01 52.94,-108.64 86.62,-142.87 31.69,-32.38 70.17,-60.64 116.29,-83.72zm977.67 758.34l23.68 0 -37.72 184.56c-72.97,26.05 -143.14,45.41 -210.51,57.7 -67.38,12.26 -132.35,18.59 -194.9,18.59 -189.69,0 -338.06,-51.33 -445.11,-153.67 -107.48,-101.95 -161.22,-249.66 -161.22,-443.91 0,-193.12 57.75,-341.22 172.84,-443.56 114.27,-101.57 265.46,-152.57 453.53,-152.57 136.35,0 273.89,23.08 413.45,68.85 -6.42,91.54 -9.21,145.51 -9.21,162.26 0,15.24 0.4,30.13 1.2,44.63l0 26.43c0,37.57 -2.02,73.67 -6.03,107.9l-20.03 0c-48.54,-219.54 -184.06,-329.3 -406.64,-329.3 -150.39,0 -269.89,45.38 -359.32,136.17 -89.4,90.05 -133.93,220.29 -133.93,390.35 0,148.83 41.33,269.79 123.51,362.79 81.41,93.03 204.12,139.55 368.95,139.55 90.62,0 173.63,-16.75 249.03,-50.24 74.17,-32.01 133.93,-74.04 178.44,-126.51zm231.78 -13.77l-28.05 0c23.25,-42.03 46.1,-68.82 68.15,-79.63 22.48,-10.79 59.36,-16.38 110.29,-16.38l183.27 0c71.39,0 121.52,-7.43 150.79,-22.68 29.67,-15.27 54.14,-44.29 73.78,-86.33l36.49 0c-30.47,126.52 -105.86,189.78 -225.76,189.78l-273.5 0c-45.72,0 -77.4,5.2 -95.45,15.24zm478.42 -262.69l29.27 0c-24.86,42.04 -48.11,68.46 -69.36,78.51 -21.66,11.52 -58.15,17.48 -109.07,17.48l-184.49 0c-70.57,0 -120.3,7.06 -149.57,21.6 -29.67,15.25 -54.14,44.27 -73.78,86.33l-36.51 0c29.7,-125.78 105.09,-188.67 225.78,-188.67l273.5 0c44.9,0 76.19,-5.2 94.24,-15.25zm467.17 -481.88c-89.04,106.8 -133.54,248.93 -133.54,426.06 0,208 54.93,363.92 165.62,468.85 -83.81,-32.75 -150.39,-91.9 -199.69,-177.86 -49.34,-84.84 -74.2,-180.85 -74.2,-287.64 0,-73.31 12.84,-141.03 38.9,-202.81 24.07,-61.01 52.94,-108.64 86.62,-142.87 31.68,-32.38 70.16,-60.64 116.29,-83.72zm977.67 758.34l23.67 0 -37.71 184.56c-72.98,26.05 -143.15,45.41 -210.52,57.7 -67.38,12.26 -132.35,18.59 -194.9,18.59 -189.69,0 -338.06,-51.33 -445.11,-153.67 -107.48,-101.95 -161.22,-249.66 -161.22,-443.91 0,-193.12 57.75,-341.22 172.84,-443.56 114.28,-101.57 265.46,-152.57 453.53,-152.57 136.35,0 273.9,23.08 413.45,68.85 -6.42,91.54 -9.21,145.51 -9.21,162.26 0,15.24 0.4,30.13 1.2,44.63l0 26.43c0,37.57 -2.02,73.67 -6.02,107.9l-20.04 0c-48.54,-219.54 -184.06,-329.3 -406.64,-329.3 -150.39,0 -269.89,45.38 -359.31,136.17 -89.4,90.05 -133.93,220.29 -133.93,390.35 0,148.83 41.32,269.79 123.5,362.79 81.41,93.03 204.12,139.55 368.95,139.55 90.63,0 173.63,-16.75 249.03,-50.24 74.18,-32.01 133.93,-74.04 178.45,-126.51zm1361.85 124.65c85.4,-107.54 127.91,-269.39 127.91,-485.97 0,-191.26 -42.12,-340.09 -126.72,-447.25 161.22,89.66 241.81,242.6 241.81,459.18 0,213.59 -81.02,371.72 -243.01,474.04zm-946.81 -934.36c-86.22,123.92 -129.13,281.68 -129.13,474.45 0,174.51 41.33,325.58 123.5,453.6 -158.37,-96.74 -237.37,-251.56 -237.37,-464.4 0,-218.81 80.99,-373.23 243,-463.65zm878.64 467.75c0,-347.92 -136.36,-522.07 -408.66,-522.07 -267.08,0 -400.61,178.24 -400.61,535.1 0,336 135.15,503.81 405.04,503.81 269.47,0 404.23,-172.27 404.23,-516.84zm110.26 -1.1c0,133.96 -21.66,246.69 -65.76,339.35 -42.91,91.53 -103.47,158.9 -182.07,202.44 -76.59,44.27 -166.42,66.58 -268.67,66.58 -163.2,0 -289.12,-54.32 -378.16,-162.6 -89.43,-108.27 -133.93,-257.13 -133.93,-446.9 0,-196.83 45.33,-347.92 135.96,-453.22 91.02,-103.81 215.32,-155.92 373.72,-155.92 160.43,0 287.14,52.11 380.58,155.92 92.22,103.08 138.34,254.52 138.34,454.36zm1694.3 396.65l-1220.71 -965.6 138.77 0 988.1 780.67 0 -452.48c0,-75.55 -5.63,-133.58 -16.46,-174.52 -10.82,-38.34 -33.27,-70.69 -66.95,-96.74 -33.7,-25.69 -76.61,-42.43 -129.13,-50.24l0 -19.72c0.79,0 14.44,1.1 40.89,3.35 102.68,6.33 172.45,9.68 209.33,9.68 33.71,0 113.91,-4.48 240.61,-13.03l0 19.72c-40.89,5.2 -76.19,20.83 -107.07,46.89 -29.68,24.54 -50.14,55.06 -60.96,91.53 -10.82,37.2 -16.42,88.94 -16.42,155.92l0 664.57zm-1353.42 -965.6l1353.42 1072.77 0 89.31 -23.28 0 -1064.69 -840.58 0 506.8c0,110.51 15.24,187.17 45.73,229.97 30.46,43.17 79,71.06 144.77,84.09l0 19.72c-118.31,-8.57 -198.51,-13.03 -241.02,-13.03 -47.72,0 -119.5,4.46 -216.15,13.03l0 -19.72c67.38,-14.5 113.5,-43.91 137.54,-88.19 24.47,-44.29 36.52,-122.8 36.52,-235.55l-1.23 -568.95 -84.6 -66.61c-117.5,-92.64 -216.54,-151.81 -297.17,-176.36l0 -19.72 210.15 13.03zm1911.2 153.67c-89.03,106.8 -133.53,248.93 -133.53,426.06 0,208 54.93,363.92 165.62,468.85 -83.81,-32.75 -150.4,-91.9 -199.7,-177.86 -49.34,-84.84 -74.2,-180.85 -74.2,-287.64 0,-73.31 12.84,-141.03 38.9,-202.81 24.07,-61.01 52.94,-108.64 86.62,-142.87 31.69,-32.38 70.17,-60.64 116.29,-83.72zm977.67 758.34l23.67 0 -37.71 184.56c-72.97,26.05 -143.14,45.41 -210.52,57.7 -67.37,12.26 -132.34,18.59 -194.89,18.59 -189.69,0 -338.07,-51.33 -445.12,-153.67 -107.47,-101.95 -161.21,-249.66 -161.21,-443.91 0,-193.12 57.75,-341.22 172.84,-443.56 114.27,-101.57 265.46,-152.57 453.52,-152.57 136.36,0 273.9,23.08 413.46,68.85 -6.42,91.54 -9.21,145.51 -9.21,162.26 0,15.24 0.39,30.13 1.19,44.63l0 26.43c0,37.57 -2.01,73.67 -6.02,107.9l-20.04 0c-48.53,-219.54 -184.06,-329.3 -406.63,-329.3 -150.4,0 -269.89,45.38 -359.32,136.17 -89.4,90.05 -133.93,220.29 -133.93,390.35 0,148.83 41.32,269.79 123.5,362.79 81.42,93.03 204.13,139.55 368.95,139.55 90.63,0 173.64,-16.75 249.04,-50.24 74.17,-32.01 133.93,-74.04 178.44,-126.51zm380.97 -912.02l38.88 0 0 1149.05 -77.38 0c-27.68,0 -85.42,4.46 -174.03,13.03l0 -19.72c42.51,-10.05 74.57,-28.67 96.65,-55.46 22.45,-27.53 37.69,-59.15 45.7,-94.88 8.44,-37.57 12.84,-117.59 12.84,-239.65l0 -456.93c0,-105.3 -15.24,-177.87 -45.73,-216.95 -30.46,-39.45 -66.95,-63.26 -109.46,-71.81l0 -19.72c47.72,2.98 118.7,7.07 212.53,13.03zm593.49 1149.05l-469.97 0 0 -1149.05 341.67 0c64.57,0 185.66,-4.48 364.52,-13.03 -1.62,21.56 -2.41,37.94 -2.41,49.13 0,14.5 2.02,48.36 5.63,101.21 2.38,35.7 3.61,54.69 3.61,57.66l0 27.53 -20.06 0c-28.08,-62.5 -60.17,-103.08 -96.26,-121.3 -36.09,-17.48 -103.83,-26.06 -203.3,-26.06l-186.88 0c-29.67,0 -56.95,1.88 -82.22,5.6 -14.01,24.54 -22.05,83.35 -24.44,176.38l-2.41 74.04 0 177.86 253.83 0c95.45,0 158.8,-7.82 190.09,-23.07 31.69,-15.27 56.55,-51.35 75.39,-109.04l25.66 0c-6.02,65.51 -9.24,122.44 -9.24,170.06 0,30.87 2.41,70.69 7.22,120.18 1.23,14.5 3.22,43.17 5.63,85.97l-25.66 0c-7.23,-64 -28.08,-107.93 -62.55,-131.74 -34.9,-24.18 -90.23,-36.08 -165.62,-36.08l-294.75 0 0 237.78c0,91.53 5.63,171.9 16.45,240.75 32.88,4.46 68.15,6.7 105.86,6.7l178.45 0c97.04,0 170.45,-10.05 219.75,-30.53 51.76,-21.2 102.68,-68.09 152.81,-140.66l23.25 0c-8.41,33.48 -21.26,71.83 -38.5,115.73 -21.27,56.56 -36.49,105.69 -46.1,146.98 -89.03,-8.57 -168.84,-13.03 -239.43,-13.03zm1434.41 -507.93c85.43,-81.48 128.34,-178.97 128.34,-292.09 0,-119.45 -42.9,-222.9 -128.34,-310.71 157.61,58.8 236.21,158.9 236.21,300.66 0,138.79 -78.6,239.65 -236.21,302.14zm-714.2 -641.12l0 1149.05 -38.87 0c-50.13,0 -124.33,4.46 -222.97,13.03l0 -19.72c40.49,-4.46 78.21,-25.69 112.68,-64.37 34.49,-38.34 51.72,-118.71 51.72,-240.75l0 -531.01c0,-100.83 -12.02,-172.64 -36.49,-214.7 -24.04,-42.04 -66.95,-70.33 -127.9,-84.84l0 -19.72c104.27,7.07 191.28,11.52 261.84,13.03zm180.89 336.74l0 237.77c54.13,21.23 111.88,31.65 174.03,31.65 99.43,0 173.63,-25.32 222.97,-76.29 49.3,-51.71 74.17,-115.73 74.17,-191.99 0,-79.27 -24.86,-144.77 -74.17,-197.22 -49.34,-52.48 -126.32,-78.53 -231.38,-78.53 -57.75,0 -100.27,8.2 -126.75,24.95 -26.06,17.48 -38.87,100.83 -38.87,249.66zm-9.24 812.31l-85.83 0 0 -1149.05c19.67,0 34.89,-0.37 45.73,-1.13 44.5,-1.48 87.81,-3.72 129.13,-7.44 27.65,-2.98 57.75,-4.45 90.62,-4.45 139.56,0 241.82,33.86 307.97,101.21 64.97,68.48 97.45,153.31 97.45,255.26 0,103.81 -35.7,186.8 -107.05,248.58 -71.39,63.23 -164.03,94.88 -278.33,94.88 -63.75,0 -127.11,-10.05 -190.45,-30.51l0 193.87c0,95.25 14.43,165.21 43.3,210.25 28.47,46.49 74.97,74.04 139.93,81.86l0 19.72c-32.88,-4.45 -73.78,-7.43 -122.29,-9.68l-70.19 -3.35zm1665.82 0l-30.49 0 0 -1149.05 423.09 0c77.38,0 153.57,-4.48 228.97,-13.03 0,13.76 -1.2,38.69 -3.62,75.16 -2.41,33.48 -3.61,75.18 -3.61,125.41 0,31.99 -2.01,64.36 -5.63,97.12l-28.44 0c-1.62,-59.92 -17.65,-109.04 -48.14,-148.49 -31.26,-39.79 -97.44,-59.89 -198.51,-59.89l-266.67 0 0 780.3c0,89.66 13.64,156.64 41.32,201.68 27.25,45.38 69.37,73.3 126.72,84.09l0 19.72c-138.77,-8.57 -216.95,-13.03 -234.99,-13.03zm-504.88 -1149.05l387.36 0 0 1149.05 -35.3 0c-50.92,0 -126.72,4.46 -227.77,13.03l0 -19.72c64.96,-15.27 109.9,-46.15 133.93,-92.67 23.67,-45.75 35.3,-122.03 35.3,-228.83l0 -744.57 -299.56 0c-76.19,0 -129.53,14.5 -160.82,43.54 -31.66,29.01 -57.75,84.09 -78.97,164.84l-26.88 0c-0.79,-9.68 -1.2,-19.73 -1.2,-30.51 0,-14.91 1.59,-33.12 4.8,-55.83 9.24,-77.77 14.04,-148.09 14.04,-211.35 41.28,5.2 93.04,8.17 155.19,9.68l99.87 3.35zm1282.42 770.62l26.88 0c5.6,93.03 46.1,169.68 121.09,229.97 73.8,59.52 158.41,89.29 253.86,89.29 73.78,0 133.53,-19.33 179.63,-57.67 46.12,-38.68 69.39,-84.83 69.39,-138.41 0,-56.56 -22.48,-100.83 -66.98,-132.11 -42.91,-30.51 -127.9,-64.74 -255.06,-103.45 -101.45,-31.24 -174.03,-56.93 -217.34,-77.39 -50.13,-23.81 -89.03,-56.19 -117.48,-96.74 -30.49,-41.67 -45.73,-88.19 -45.73,-139.52 0,-57.3 20.86,-113.86 62.16,-168.95 -9.22,28.3 -14.04,53.21 -14.04,74.04 0,56.56 14.43,106.42 43.71,149.22 29.7,44.27 66.58,77.77 110.29,100.47 44.11,23.07 117.08,49.49 219.76,79.26 133.93,37.94 230.58,79.61 289.92,125.39 57.35,44.27 85.83,104.19 85.83,179 0,73.28 -29.67,139.88 -89.03,199.43 -60.53,60.28 -150.37,90.41 -270.29,90.41 -48.51,0 -115.88,-8.17 -202.1,-24.91 -75.39,-14.9 -131.52,-22.34 -169.23,-23.07l-8.02 -8.95c0.79,-12.29 0.79,-28.27 0.79,-47.61 0,-23.45 -1.99,-59.55 -6.79,-108.28 -4.03,-48.39 -6.02,-84.86 -6.02,-108.67 0,-31.24 1.59,-58.41 4.8,-80.74zm829.3 -455.46l-24.46 0c-0.8,-84.46 -36.89,-146.98 -108.28,-187.54 -69.77,-39.82 -153.97,-59.91 -253.44,-59.91 -79.39,0 -144.36,15.64 -195.29,46.88 -51.72,31.25 -77.4,68.46 -77.4,112.39 0,46.49 20.46,82.96 60.95,109.75 42.51,29.03 125.93,63.63 250.25,103.81 115.88,36.84 196.88,66.98 243.4,90.42 49.34,25.32 90.23,61.78 123.11,108.67 32.88,48.73 49.34,103.07 49.34,162.59 0,90.82 -36.09,161.88 -107.88,213.6 26.46,-34.23 39.7,-82.22 39.7,-144.01 0,-58.04 -14.43,-109.77 -43.3,-154.79 -30.46,-45.78 -68.18,-81.88 -112.68,-108.67 -45.73,-27.9 -119.5,-57.3 -222.17,-88.55 -154.37,-47.25 -255.03,-87.44 -301.95,-120.94 -46.91,-33.85 -70.59,-87.07 -70.59,-158.9 0,-82.96 36.1,-148.09 108.28,-195.34 72.18,-45.78 174.03,-68.46 306.38,-68.46 90.23,0 200.09,14.5 330.44,43.53l0 7.8 1.99 41.29c0,21.6 0.79,48.03 2.42,78.53 2.38,36.84 3.61,69.59 3.61,97.87 0,18.98 -0.8,42.43 -2.42,69.95z"/>
   <path class="fil3" d="M7734.19 9006.71l-1525.66 -965.6 173.45 0 1234.92 780.67 0 -452.47c0,-75.55 -7.04,-133.59 -20.58,-174.52 -13.52,-38.35 -41.57,-70.69 -83.65,-96.75 -42.14,-25.68 -95.78,-42.43 -161.42,-50.23l0 -19.72c0.99,0 18.04,1.1 51.11,3.34 128.33,6.33 215.53,9.68 261.63,9.68 42.13,0 142.35,-4.48 300.71,-13.02l0 19.72c-51.09,5.2 -95.22,20.83 -133.81,46.88 -37.09,24.55 -62.67,55.07 -76.2,91.54 -13.53,37.2 -20.51,88.94 -20.51,155.92l0 664.56zm-1691.51 -965.6l1691.51 1072.77 0 89.32 -29.11 0 -1330.64 -840.58 0 506.79c0,110.51 19.04,187.18 57.16,229.98 38.06,43.16 98.71,71.06 180.9,84.08l0 19.73c-147.86,-8.58 -248.07,-13.03 -301.21,-13.03 -59.63,0 -149.37,4.45 -270.14,13.03l0 -19.73c84.21,-14.5 141.84,-43.9 171.89,-88.18 30.57,-44.3 45.63,-122.8 45.63,-235.56l-1.53 -568.94 -105.73 -66.61c-146.86,-92.64 -270.63,-151.81 -371.39,-176.36l0 -19.72 262.65 13.02zm2364.09 0l48.59 0 0 1149.06 -96.71 0c-34.59,0 -106.78,4.45 -217.52,13.03l0 -19.73c53.14,-10.04 93.2,-28.66 120.8,-55.45 28.06,-27.53 47.1,-59.15 57.11,-94.88 10.56,-37.58 16.05,-117.59 16.05,-239.66l0 -456.93c0,-105.29 -19.02,-177.86 -57.14,-216.94 -38.08,-39.45 -83.68,-63.26 -136.82,-71.81l0 -19.72c59.65,2.98 148.36,7.06 265.64,13.02zm741.75 1149.06l-587.4 0 0 -1149.06 427.04 0c80.69,0 232.02,-4.48 455.58,-13.02 -2.02,21.56 -3.02,37.94 -3.02,49.12 0,14.5 2.53,48.37 7.02,101.21 2.99,35.71 4.51,54.7 4.51,57.67l0 27.53 -25.06 0c-35.1,-62.5 -75.21,-103.08 -120.31,-121.31 -45.1,-17.48 -129.79,-26.05 -254.09,-26.05l-233.57 0c-37.06,0 -71.16,1.88 -102.73,5.59 -17.51,24.55 -27.58,83.35 -30.54,176.38l-3.03 74.05 0 177.86 317.24 0c119.32,0 198.48,-7.83 237.56,-23.07 39.61,-15.27 70.69,-51.35 94.23,-109.04l32.07 0c-7.5,65.5 -11.52,122.43 -11.52,170.05 0,30.88 3.02,70.7 9.01,120.19 1.55,14.5 4.02,43.17 7.04,85.97l-32.08 0c-9.01,-64 -35.09,-107.94 -78.17,-131.75 -43.6,-24.18 -112.77,-36.07 -206.99,-36.07l-368.38 0 0 237.77c0,91.53 7.02,171.91 20.58,240.76 41.08,4.45 85.16,6.7 132.29,6.7l223.01 0c121.31,0 213.03,-10.05 274.65,-30.54 64.67,-21.19 128.32,-68.09 191,-140.66l29.05 0c-10.53,33.49 -26.58,71.84 -48.13,115.74 -26.58,56.56 -45.62,105.69 -57.62,146.98 -111.28,-8.58 -211.01,-13.03 -299.22,-13.03zm1505.05 0l-38.08 0 0 -1149.06 528.76 0c96.72,0 191.94,-4.48 286.17,-13.02 0,13.76 -1.5,38.68 -4.53,75.15 -3.02,33.49 -4.48,75.18 -4.48,125.42 0,31.99 -2.53,64.36 -7.04,97.11l-35.57 0c-2.02,-59.91 -22.03,-109.04 -60.15,-148.49 -39.06,-39.79 -121.78,-59.88 -248.1,-59.88l-333.29 0 0 780.3c0,89.66 17.05,156.63 51.64,201.68 34.07,45.38 86.71,73.3 158.37,84.08l0 19.73c-173.42,-8.58 -271.14,-13.03 -293.7,-13.03zm-630.97 -1149.06l484.1 0 0 1149.06 -44.1 0c-63.65,0 -158.37,4.45 -284.66,13.03l0 -19.73c81.19,-15.27 137.33,-46.14 167.37,-92.66 29.61,-45.75 44.13,-122.04 44.13,-228.83l0 -744.57 -374.39 0c-95.22,0 -161.89,14.5 -201,43.53 -39.55,29.01 -72.16,84.09 -98.68,164.84l-33.6 0c-1,-9.68 -1.49,-19.72 -1.49,-30.51 0,-14.9 2,-33.12 5.99,-55.82 11.56,-77.77 17.54,-148.09 17.54,-211.35 51.61,5.2 116.29,8.17 193.96,9.67l124.83 3.35zm2604.14 0l613.45 1084.69 -45.59 85.2 -30.55 0 -378.94 -666.07 -283.14 482.61 -585.9 -986.43c6.01,-0.76 55.14,-2.24 147.34,-4.48l64.17 -2.98 94.23 -5.56 0 19.72c-61.65,18.22 -92.73,46.52 -92.73,84.84 0,38.71 24.04,98.22 72.16,178.99l300.74 507.91 224.51 -378.44 -92.73 -163.35c-41.08,-73.28 -80.69,-125.76 -118.75,-157 -37.12,-31.28 -92.72,-55.46 -165.91,-72.94l0 -19.72c96.72,7.06 189.44,11.51 277.65,13.02zm-832.45 0l647.5 1085.79 -51.59 84.09 -25.08 0 -548.79 -922.43c-85.19,-142.16 -182.46,-222.53 -292.2,-240.76l0 -19.72c52.11,5.96 141.82,10.04 270.16,13.02zm1228.88 280.18l274.65 488.58 231.57 -419.73c52.12,-93.76 78.18,-165.96 78.18,-216.94 0,-67.71 -43.11,-109.41 -129.32,-125.39l0 -19.72c108.75,8.54 187.95,13.02 237.56,13.02 88.21,0 173.89,-4.48 257.11,-13.02l0 19.72c-68.63,29.01 -122.77,64 -162.88,104.56 -42.11,42.8 -94.72,120.19 -156.87,232.18l-355.36 640.05 -555.29 -983.49c119.26,-3.71 223.53,-7.82 312.71,-13.02l0 19.72c-66.61,16.74 -99.73,47.25 -99.73,91.53 0,41.29 22.56,102.34 67.66,181.95zm2441.84 756.49c106.73,-107.54 159.87,-269.38 159.87,-485.96 0,-191.26 -52.64,-340.09 -158.37,-447.25 201.46,89.65 302.21,242.59 302.21,459.17 0,213.6 -101.27,371.73 -303.71,474.04zm-1183.33 -934.35c-107.75,123.9 -161.39,281.68 -161.39,474.44 0,174.52 51.64,325.58 154.38,453.61 -197.96,-96.75 -296.69,-251.56 -296.69,-464.4 0,-218.81 101.23,-373.23 303.7,-463.65zm1098.12 467.75c0,-347.92 -170.41,-522.07 -510.72,-522.07 -333.79,0 -500.69,178.23 -500.69,535.09 0,336.01 168.93,503.82 506.23,503.82 336.78,0 505.18,-172.28 505.18,-516.84zm137.82 -1.11c0,133.96 -27.08,246.69 -82.19,339.36 -53.64,91.53 -129.32,158.9 -227.55,202.43 -95.72,44.27 -207.99,66.58 -335.78,66.58 -204,0 -361.36,-54.31 -472.64,-162.59 -111.76,-108.28 -167.41,-257.13 -167.41,-446.91 0,-196.83 56.66,-347.92 169.93,-453.21 113.76,-103.81 269.12,-155.92 467.1,-155.92 200.49,0 358.87,52.11 475.62,155.92 115.27,103.08 172.92,254.52 172.92,454.34zm1644.91 -33.85c63.64,-74.82 95.72,-157.41 95.72,-247.46 0,-81.88 -37.1,-164.47 -110.25,-247.45 168.37,53.21 252.58,136.56 252.58,250.8 0,115.34 -79.19,196.83 -238.06,244.11zm-894.12 -535.1l0 1149.06 -63.15 0c-24.59,0 -63.15,2.25 -115.79,6.7 -45.1,4.08 -98.24,6.33 -158.86,6.33l0 -19.73c62.64,-5.22 114.76,-27.89 155.84,-68.85 41.14,-40.55 61.67,-119.06 61.67,-235.16l0 -560.39c0,-158.14 -72.68,-248.58 -217.51,-271.26l0 -19.72c62.64,5.2 175.41,9.31 337.8,13.02zm229.05 299.54l0 236.67c57.6,10.78 120.26,16.38 187.92,16.38 220.05,0 330.32,-84.86 330.32,-254.89 0,-159.27 -109.3,-238.91 -327.3,-238.91 -70.68,0 -125.3,10.42 -164.37,31.65 -17.55,29.01 -26.56,98.97 -26.56,209.11zm-79.2 849.52l-42.57 0 0 -1149.06c58.62,0 121.28,-1.87 187.92,-5.59 76.18,-4.82 138.33,-7.43 186.44,-7.43 133.81,0 234.07,30.5 299.22,91.53 65.67,60.28 98.74,134.7 98.74,223.27 0,150.71 -85.71,247.09 -257.14,289.11 85.22,8.58 156.9,27.53 214.5,56.57 61.65,31.24 155.4,93.76 280.69,187.54 190.94,144.01 346.31,215.83 466.59,215.83 24.56,0 49.62,-6.33 75.18,-18.62l5.53 19.73c-39.12,37.57 -93.26,56.56 -162.89,56.56 -74.15,0 -151.88,-20.46 -233.57,-62.16 -76.18,-39.05 -190.43,-116.08 -341.82,-231.08 -182.4,-139.51 -359.31,-209.1 -531.76,-209.1 106.77,24.54 251.12,107.9 433.05,249.66 128.32,98.62 231.05,170.8 308.75,215.83 78.17,45.02 152.85,67.34 224.53,67.34l0 10.05c-33.1,8.57 -66.17,13.03 -98.24,13.03 -95.23,0 -177.41,-17.85 -247.11,-53.58 -37.09,-19.73 -84.21,-49.5 -141.32,-89.68 -57.65,-40.56 -126.3,-92.67 -206.49,-156.66 -117.78,-93.03 -204.49,-156.27 -261.62,-189.39 -60.62,-34.25 -119.81,-58.43 -177.41,-72.2l0 258.24c0,173.78 70.63,268.28 211.51,283.55l0 19.73c-117.29,-8.58 -214.53,-13.03 -290.71,-13.03zm1907.01 -1149.06l0 1149.06c-49.59,0 -149.34,4.45 -297.69,13.03l0 -19.73c118.31,-18.21 177.44,-85.59 177.44,-202.8l0 -721.5c0,-64.74 -12.03,-112.38 -36.58,-143.63 -24.56,-30.5 -71.66,-53.21 -140.85,-67.71l0 -19.72c93.72,7.06 192.96,11.51 297.69,13.02zm295.23 484.09l814.96 664.96 -161.4 0 -718.2 -593.13 0 383.63c0,60.28 13.05,105.32 39.58,135.09 25.55,30.51 73.18,53.21 142.35,67.71l0 19.73c-128.82,-8.58 -230.55,-13.03 -303.71,-13.03l0 -1149.06c133.78,-3.71 235.54,-7.82 303.71,-13.02l0 19.72c-73.16,12.27 -121.78,36.84 -145.35,72.94 -24.59,36.44 -36.58,116.81 -36.58,241.12l0 200.18 64.64 -36.84zm1020.42 664.96l-61.62 0 -875.08 -715.19 336.27 -199.43c115.3,-68.12 172.9,-120.56 172.9,-157.04 0,-28.29 -31.57,-51.74 -95.23,-70.69l0 -19.72c44.13,0 103.26,2.61 177.45,7.43 66.63,3.72 115.76,5.59 146.83,5.59 30.57,0 68.69,-1.5 114.79,-4.48 65.64,-3.71 127.79,-6.33 186.44,-8.54l0 19.72c-137.82,26.03 -288.21,85.94 -450.59,179.71l-98.71 56.93c-8.54,4.11 -15.03,7.82 -19.05,10.8l-308.22 184.2 584.37 480.74c177.44,146.61 310.72,221.03 400.95,223.27l0 19.73c-136.33,-8.58 -206.51,-13.03 -211.5,-13.03zm359.86 -378.42l33.6 0c6.98,93.03 57.6,169.68 151.32,229.97 92.25,59.52 197.98,89.29 317.29,89.29 92.2,0 166.88,-19.33 224.48,-57.67 57.65,-38.69 86.73,-84.83 86.73,-138.41 0,-56.57 -28.08,-100.85 -83.71,-132.12 -53.61,-30.5 -159.86,-64.74 -318.76,-103.44 -126.79,-31.24 -217.49,-56.93 -271.63,-77.39 -62.64,-23.81 -111.27,-56.19 -146.83,-96.75 -38.12,-41.67 -57.14,-88.18 -57.14,-139.52 0,-57.3 26.06,-113.86 77.67,-168.95 -11.5,28.3 -17.54,53.22 -17.54,74.05 0,56.56 18.05,106.42 54.61,149.22 37.12,44.27 83.22,77.77 137.85,100.46 55.11,23.08 146.34,49.5 274.65,79.27 167.41,37.94 288.19,79.61 362.33,125.39 71.69,44.27 107.28,104.19 107.28,178.99 0,73.28 -37.09,139.89 -111.27,199.43 -75.65,60.28 -187.94,90.42 -337.8,90.42 -60.65,0 -144.84,-8.17 -252.61,-24.91 -94.23,-14.91 -164.36,-22.34 -211.51,-23.08l-10.01 -8.94c1,-12.29 1,-28.27 1,-47.62 0,-23.44 -2.49,-59.54 -8.48,-108.27 -5.04,-48.4 -7.54,-84.86 -7.54,-108.67 0,-31.25 1.99,-58.42 6.01,-80.74zm1036.45 -455.46l-30.57 0c-1,-84.47 -46.11,-146.98 -135.31,-187.54 -87.21,-39.82 -192.43,-59.91 -316.76,-59.91 -99.25,0 -180.43,15.63 -244.09,46.88 -64.61,31.24 -96.74,68.46 -96.74,112.39 0,46.48 25.58,82.95 76.21,109.74 53.11,29.04 157.37,63.63 312.74,103.82 144.84,36.83 246.08,66.97 304.21,90.41 61.67,25.32 112.76,61.79 153.88,108.67 41.08,48.74 61.64,103.08 61.64,162.6 0,90.82 -45.1,161.88 -134.83,213.59 33.07,-34.22 49.62,-82.22 49.62,-144 0,-58.05 -18.05,-109.78 -54.12,-154.79 -38.08,-45.78 -85.21,-81.88 -140.84,-108.67 -57.14,-27.9 -149.34,-57.3 -277.65,-88.56 -192.94,-47.25 -318.73,-87.43 -377.38,-120.93 -58.63,-33.86 -88.21,-87.07 -88.21,-158.9 0,-82.96 45.1,-148.1 135.31,-195.35 90.23,-45.78 217.52,-68.46 382.9,-68.46 112.77,0 250.1,14.5 413.01,43.54l0 7.8 2.49 41.29c0,21.6 0.97,48.02 2.99,78.53 3,36.84 4.53,69.59 4.53,97.86 0,18.99 -1,42.43 -3.02,69.96z"/>
   <path class="fil4" d="M1245.56 2384.38l-79.39 99.73c-42.23,-46.64 -98.93,-69.95 -170.03,-69.95 -16.57,0 -30.49,1.24 -41.72,3.71 21.4,-18.85 42.8,-37.71 64.17,-56.56 19.25,-12.9 45.19,-19.36 77.82,-19.36 52.91,0 102.64,14.14 149.16,42.43zm56.13 384.76c0,54.56 -30.46,99.97 -91.42,136.17 -52.91,32.25 -110.14,48.39 -171.61,48.39 29.38,-14.4 55.07,-32.01 76.98,-52.84 28.34,-26.79 42.51,-52.35 42.51,-76.66 0,-30.75 -35.3,-60.78 -105.89,-90.05 -65.22,-26.79 -130.72,-53.58 -196.48,-80.37 -70.04,-36.71 -105.06,-79.63 -105.06,-128.74 0,-35.73 27,-71.19 80.99,-106.42 43.85,-28.77 88.78,-48.86 134.76,-60.28 -58.82,36.71 -88.24,72.44 -88.24,107.16 0,28.28 36.64,60.79 109.9,97.5 67.89,31.75 135.81,63.5 203.7,95.27 73.26,39.18 109.86,76.16 109.86,110.89zm-226.95 130.21c-22.99,13.29 -45.73,26.69 -68.18,40.45 -27.28,14.77 -52.65,22.07 -76.19,22.07 -35.3,0 -76.48,-10.17 -123.5,-30.51 -39.59,-17.37 -76.73,-38.2 -111.48,-62.52l104.27 -114.6c27.79,41.18 63.88,75.18 108.24,101.97 48.14,28.77 96.79,43.14 145.98,43.14 6.94,0 13.9,0 20.86,0zm704.14 -158.51c0,49.62 -23.25,93.77 -69.77,132.48 -41.18,34.73 -89.83,57.54 -145.95,68.46 27.79,-19.83 50.78,-44.64 68.97,-74.41 19.24,-31.75 28.87,-63.26 28.87,-94.51 0,-33.76 -7.5,-67.98 -22.45,-102.71 -19.27,-44.15 -44.39,-64.74 -75.39,-61.76l58.54 -40.95c49.19,3.98 88.21,22.6 117.08,55.82 26.74,31.75 40.1,70.96 40.1,117.59zm-215.72 147.36l-59.36 49.13c-46.52,1.47 -85.8,-14.64 -117.88,-48.4 -29.95,-31.75 -44.92,-69.46 -44.92,-113.09 0,-61.05 20.06,-110.89 60.16,-149.6 38.51,-37.71 90.63,-60.27 156.39,-67.71 -39.02,45.15 -63.34,75.9 -72.98,92.27 -17.1,30.77 -25.66,68.49 -25.66,113.12 0,32.76 6.13,60.28 18.44,82.62 15.51,27.77 38.51,41.67 68.97,41.67 5.34,0 10.97,0 16.85,0zm424.26 -546.25c-31.54,81.38 -47.31,180.11 -47.31,296.22 0,96.72 14.17,189.75 42.51,279.06 -29.41,27.3 -75.11,40.92 -137.15,40.92 -3.21,-36.2 -4.8,-80.61 -4.8,-133.21 0,-237.65 32.6,-407.8 97.85,-510.51l48.91 27.52zm474.81 243.37c-37.42,58.54 -56.15,131.48 -56.15,218.79 0,35.23 4,70.46 12.05,105.69l-53.75 23.05c-29.95,-65.48 -44.92,-139.66 -44.92,-222.51 0,-63.5 11.5,-121.8 34.5,-174.88l108.27 49.86zm-152.38 283.53c-45.98,33.25 -119.78,57.56 -221.38,72.94 -19.78,-49.6 -29.67,-109.41 -29.67,-179.34 0,-79.39 16.57,-153.57 49.74,-222.53l44.1 32.02c-3.21,25.29 -4.8,52.08 -4.8,80.37 0,76.89 13.1,133.7 39.31,170.43l103.44 -8.94 19.27 55.06zm529.43 -283.53l-29.67 68.46 -82.61 -24.54 4.03 -48.4 108.25 4.48zm-40.1 260.46c-62,57.56 -122.71,89.31 -182.04,95.27 -17.65,-47.62 -26.46,-106.42 -26.46,-176.38 0,-48.13 4.01,-93.27 12.02,-135.43l-107.47 2.98 -5.6 -55.83 127.51 -18.59c13.36,-49.63 29.96,-104.45 49.73,-164.5l58.54 18.62c-27.28,71.44 -40.89,149.83 -40.89,235.16 0,69.46 7.23,129.5 21.66,180.11l73.78 -27.52 19.24 46.12zm264.52 -479.24c0,15.37 -5.34,29.01 -16.03,40.92 -11.76,13.39 -25.66,20.09 -41.69,20.09 -12.31,0 -22.19,-4.35 -29.7,-13.03 -7.47,-8.67 -11.23,-18.72 -11.23,-30.14 0,-14.9 5.63,-28.66 16.85,-41.29 11.23,-12.65 24.86,-18.98 40.89,-18.98 12.31,0 22.19,4.22 29.67,12.66 7.5,8.41 11.23,18.35 11.23,29.77zm-24.83 529.1l-117.92 73.68c-22.99,-34.23 -34.49,-88.32 -34.49,-162.23 0,-84.83 11.5,-173.91 34.49,-267.18l54.54 8.94c-6.42,28.77 -9.64,57.81 -9.64,87.07 0,44.15 6.42,89.05 19.27,134.7 12.82,48.13 30.75,89.82 53.75,125.02zm494.81 -154.79c0,49.62 -23.25,93.77 -69.77,132.48 -41.18,34.73 -89.84,57.54 -145.95,68.46 27.79,-19.83 50.78,-44.64 68.96,-74.41 19.25,-31.75 28.87,-63.26 28.87,-94.51 0,-33.76 -7.49,-67.98 -22.45,-102.71 -19.27,-44.15 -44.39,-64.74 -75.38,-61.76l58.54 -40.95c49.19,3.98 88.21,22.6 117.08,55.82 26.74,31.75 40.1,70.96 40.1,117.59zm-215.72 147.36l-59.36 49.13c-46.52,1.47 -85.8,-14.64 -117.88,-48.4 -29.96,-31.75 -44.92,-69.46 -44.92,-113.09 0,-61.05 20.06,-110.89 60.16,-149.6 38.5,-37.71 90.62,-60.27 156.39,-67.71 -39.02,45.15 -63.34,75.9 -72.98,92.27 -17.11,30.77 -25.66,68.49 -25.66,113.12 0,32.76 6.13,60.28 18.44,82.62 15.51,27.77 38.5,41.67 68.97,41.67 5.34,0 10.97,0 16.85,0zm685.84 -177.87c0,86.34 -16.28,168.46 -48.9,246.35l-54.54 -17.87c13.91,-28.27 20.86,-64 20.86,-107.16 0,-59.55 -16.6,-114.1 -49.74,-163.74 -34.21,-6.43 -64.16,-9.65 -89.83,-9.65 -19.78,0 -34.21,1.71 -43.3,5.2l-4.8 -46.15c73.78,-49.1 144.61,-72.17 212.5,-69.19l18.47 0.73c26.2,43.68 39.27,97.5 39.27,161.49zm-275.08 119.56c0,54.21 -3.46,96.51 -10.43,126.78l-122.71 -41.06c31.04,-80 46.52,-159.77 46.52,-239.27 0,-47.25 -5.6,-83.72 -16.82,-109.65l58.54 -18.59c29.96,94.88 44.9,188.89 44.9,281.79zm668.88 -242.37l-48.9 66.24c-12.85,-27.29 -43.85,-44.14 -93.04,-50.6l34.49 -36.47c17.11,-1.98 29.68,-2.98 37.69,-2.98 18.7,0 41.98,7.94 69.77,23.81zm29.67 235.93c0,32.75 -18.96,59.78 -56.92,81.11 -29.95,16.88 -64.96,27.53 -105.06,32.02 39.56,-27.3 59.33,-56.09 59.33,-86.33 0,-26.3 -19.77,-48.62 -59.33,-66.98 -36.91,-14.9 -73.8,-29.77 -110.69,-44.64 -39.55,-19.35 -59.33,-43.67 -59.33,-72.94 0,-27.29 13.9,-51.37 41.69,-72.2 26.2,-19.82 54.54,-29.77 85.03,-29.77 9.61,0 19.24,1 28.87,2.98 -29.42,25.32 -44.14,47.39 -44.14,66.24 0,14.4 18.99,30.01 56.95,46.89 57.21,24.81 92.51,41.92 105.89,51.33 38.48,25.32 57.72,56.07 57.72,92.3zm-166.81 64.13c-10.69,9.55 -21.38,19.33 -32.09,29.38 -15.48,13.02 -27.79,19.62 -36.88,19.62 -30.47,0 -78.06,-19.36 -142.75,-57.93l73.78 -69.33c39.55,46.13 85.54,72.31 137.94,78.27z"/>
   <path class="fil4" d="M1154.91 7843.65l-79.4 99.73c-42.22,-46.64 -98.92,-69.96 -170.02,-69.96 -16.57,0 -30.49,1.24 -41.72,3.72 21.4,-18.85 42.8,-37.71 64.17,-56.56 19.24,-12.9 45.18,-19.36 77.81,-19.36 52.91,0 102.65,14.13 149.17,42.43zm56.13 384.76c0,54.55 -30.47,99.96 -91.42,136.17 -52.91,32.24 -110.15,48.39 -171.62,48.39 29.39,-14.4 55.08,-32.02 76.99,-52.85 28.33,-26.79 42.51,-52.35 42.51,-76.65 0,-30.75 -35.3,-60.79 -105.89,-90.05 -65.22,-26.79 -130.73,-53.58 -196.48,-80.37 -70.05,-36.71 -105.06,-79.64 -105.06,-128.74 0,-35.73 27,-71.2 80.99,-106.42 43.85,-28.77 88.77,-48.87 134.76,-60.28 -58.83,36.71 -88.24,72.44 -88.24,107.16 0,28.27 36.63,60.78 109.9,97.48 67.89,31.75 135.81,63.5 203.7,95.28 73.26,39.18 109.86,76.16 109.86,110.89zm-226.96 130.21c-22.99,13.29 -45.72,26.68 -68.17,40.45 -27.29,14.76 -52.66,22.07 -76.19,22.07 -35.3,0 -76.48,-10.18 -123.51,-30.51 -39.58,-17.38 -76.72,-38.21 -111.48,-62.52l104.27 -114.61c27.79,41.19 63.89,75.18 108.25,101.97 48.14,28.77 96.79,43.15 145.98,43.15 6.94,0 13.9,0 20.85,0zm579.17 -314.04l-29.67 68.46 -82.61 -24.55 4.03 -48.39 108.25 4.48zm-40.1 260.45c-62,57.57 -122.71,89.32 -182.04,95.28 -17.65,-47.62 -26.46,-106.43 -26.46,-176.38 0,-48.13 4.01,-93.27 12.02,-135.44l-107.47 2.98 -5.6 -55.82 127.51 -18.6c13.35,-49.62 29.95,-104.44 49.73,-164.49l58.54 18.62c-27.28,71.44 -40.89,149.83 -40.89,235.16 0,69.46 7.23,129.5 21.66,180.11l73.78 -27.53 19.24 46.12zm435.37 -275.34l-64.17 109.4c-25.66,-20.83 -56.95,-31.24 -93.84,-31.24 -27.25,0 -53.46,7.43 -78.6,22.31l-4.8 -59.52c69.51,-41.18 129.92,-61.78 181.25,-61.78 26.2,0 46.26,6.96 60.16,20.83zm-211.74 328.19l-128.31 63.99c-13.93,-53.58 -20.86,-115.58 -20.86,-186.03 0,-86.33 13.64,-162.73 40.89,-229.23l48.94 18.62c-12.31,29.28 -18.45,65.98 -18.45,110.15 0,80.37 25.93,154.55 77.79,222.5zm721.82 38.71c-17.65,5.96 -34.5,8.92 -50.53,8.92 -54.56,0 -89.83,-23.05 -105.89,-69.2 -8.56,-47.62 -17.11,-95.27 -25.66,-142.89 -13.9,-58.54 -44.37,-97.48 -91.42,-116.84l105.06 -40.92c41.18,14.39 68.71,52.58 82.61,114.6 7.47,53.58 14.98,107.16 22.45,160.76 9.64,55.08 30.75,83.61 63.37,85.59zm-232.6 -365.41c-56.13,12.4 -124.84,50.35 -206.11,113.86l-56.13 -59.54c20.83,-21.33 47.43,-38.57 79.8,-51.71 32.34,-13.16 64.02,-19.73 95.03,-19.73 29.41,0 58.54,5.7 87.41,17.11zm36.88 328.2c-14.43,14.86 -40.1,26.03 -76.98,33.49 -28.87,5.93 -58,8.91 -87.41,8.91 -28.87,0 -57.49,-10.41 -85.83,-31.24 -30.46,-22.34 -45.18,-46.64 -44.1,-72.94 1.07,-34.73 25.12,-65.48 72.18,-92.27 42.23,-24.31 83.16,-36.47 122.71,-36.47 25.67,0 51.32,4.23 76.98,12.66l-1.59 46.12c-6.42,-1.47 -13.9,-2.21 -22.48,-2.21 -25.12,0 -50.52,4.95 -76.19,14.86 -31.54,12.9 -47.57,29.53 -48.11,49.87 -0.54,15.87 5.63,29.4 18.44,40.55 12.84,11.15 27.54,16.74 44.11,16.74 26.2,0 56.41,-12.65 90.62,-37.94l17.65 49.87zm522.24 -314.8l-29.67 68.46 -82.61 -24.55 4.03 -48.39 108.25 4.48zm-40.1 260.45c-62,57.57 -122.71,89.32 -182.04,95.28 -17.65,-47.62 -26.46,-106.43 -26.46,-176.38 0,-48.13 4.01,-93.27 12.02,-135.44l-107.47 2.98 -5.6 -55.82 127.51 -18.6c13.35,-49.62 29.95,-104.44 49.73,-164.49l58.54 18.62c-27.28,71.44 -40.89,149.83 -40.89,235.16 0,69.46 7.22,129.5 21.66,180.11l73.78 -27.53 19.24 46.12zm526.13 -162.22c0,38.71 -21.14,69.72 -63.36,93.03 -36.35,19.83 -76.73,29.27 -121.09,28.27l-27.29 0 -34.5 -63.99c12.31,8.43 27.29,12.66 44.93,12.66 19.78,0 38.22,-5.23 55.33,-15.64 19.24,-11.39 28.86,-26.03 28.86,-43.91 0,-18.35 -8.15,-34.22 -24.46,-47.62 -16.29,-13.39 -34.61,-21.56 -54.93,-24.54 3.21,-12.93 17.65,-25.55 43.3,-37.98 23,-10.92 42.77,-16.37 59.36,-16.37 26.72,0 49.71,13.66 68.97,40.94 16.57,24.32 24.86,49.37 24.86,75.16zm-4.82 203.17c-44.37,44.64 -106.4,66.98 -186.05,66.98 -164.68,0 -247.05,-63.26 -247.05,-189.78 0,-52.58 28.37,-99.23 85.03,-139.91 52.94,-37.71 108.27,-56.56 166.01,-56.56 -87.69,62.52 -131.54,125.04 -131.54,187.54 0,37.71 13.64,71.46 40.92,101.23 28.87,31.25 63.34,46.89 103.44,46.89 52.4,0 103.72,-25.32 153.99,-75.92l15.24 59.54zm554.07 -415.27c0,65.48 -30.75,98.23 -92.22,98.23 -5.34,0 -19.52,-5.96 -42.51,-17.85 26.74,-7.43 40.1,-36.23 40.1,-86.33 0,-6.94 0,-13.16 0,-18.62l92.25 0c1.59,6.96 2.38,15.13 2.38,24.57zm-66.55 212.83c0,43.67 -16.32,83.12 -48.94,118.34 -34.21,37.21 -74.02,54.32 -119.49,51.35l-13.65 0 0 -55.83c25.7,2.01 45.19,-9.91 58.57,-35.7 10.14,-19.85 15.24,-42.93 15.24,-69.22 0,-37.71 -23.79,-66.24 -71.38,-85.6 -37.97,-14.87 -79.66,-21.33 -125.1,-19.33l128.31 -40.95c40.65,0 79.66,13.16 117.08,39.45 39.59,28.3 59.38,60.79 59.38,97.5zm-290.32 100.46l-63.37 72.94c-21.4,-6.46 -37.69,-20.6 -48.94,-42.43 -10.14,-18.85 -15.23,-39.69 -15.23,-62.5 0,-35.23 9.89,-64.26 29.67,-87.07 21.4,-25.32 50.27,-37.47 86.62,-36.47l6.42 0c-16.57,29.28 -24.86,58.78 -24.86,88.55 0,28.8 9.89,51.11 29.7,66.98zm290.32 300.67c0,24.31 -8.02,46.14 -24.08,65.47 -17.1,20.86 -38.21,31.02 -63.34,30.54l-10.42 0c24.04,-19.86 36.09,-40.95 36.09,-63.26 0,-20.83 -22.19,-44.41 -66.58,-70.7 -40.65,-22.83 -81.25,-45.9 -121.89,-69.22 -44.39,-29.27 -66.58,-58.54 -66.58,-87.81 0,-10.42 11.51,-32.02 34.5,-64.77 15.48,-21.33 31.01,-42.67 46.52,-63.99l29.67 13.39c-14.43,19.36 -21.66,40.19 -21.66,62.52 0,27.3 19.25,54.09 57.75,80.38 32.09,17.84 64.17,35.73 96.23,53.58 6.96,1.47 16.6,4.96 28.87,10.41 29.96,17.85 44.93,52.35 44.93,103.45zm-127.51 78.13c-19.81,25.32 -50.27,37.98 -91.45,37.98 -57.75,0 -120.83,-18.85 -189.27,-56.56l78.61 -122.8c13.36,38.2 33.93,70.96 61.75,98.23 32.6,31.28 68.44,46.88 107.45,46.88 10.71,0 21.66,-1.24 32.91,-3.72zm384.13 -797.02c0,15.38 -5.34,29.01 -16.03,40.92 -11.76,13.4 -25.66,20.1 -41.69,20.1 -12.31,0 -22.19,-4.35 -29.7,-13.03 -7.47,-8.68 -11.23,-18.72 -11.23,-30.14 0,-14.9 5.63,-28.67 16.85,-41.29 11.23,-12.66 24.86,-18.99 40.89,-18.99 12.31,0 22.19,4.23 29.67,12.66 7.5,8.41 11.23,18.36 11.23,29.77zm-24.84 529.11l-117.91 73.67c-22.99,-34.22 -34.5,-88.31 -34.5,-162.22 0,-84.84 11.51,-173.91 34.5,-267.18l54.54 8.94c-6.42,28.77 -9.64,57.8 -9.64,87.07 0,44.14 6.42,89.05 19.27,134.7 12.82,48.12 30.75,89.82 53.74,125.02zm496.59 -212.09c0,38.71 -21.14,69.72 -63.37,93.03 -36.35,19.83 -76.73,29.27 -121.09,28.27l-27.29 0 -34.49 -63.99c12.3,8.43 27.28,12.66 44.92,12.66 19.78,0 38.22,-5.23 55.33,-15.64 19.24,-11.39 28.87,-26.03 28.87,-43.91 0,-18.35 -8.16,-34.22 -24.47,-47.62 -16.29,-13.39 -34.61,-21.56 -54.93,-24.54 3.22,-12.93 17.65,-25.55 43.3,-37.98 23,-10.92 42.78,-16.37 59.38,-16.37 26.71,0 49.7,13.66 68.96,40.94 16.58,24.32 24.87,49.37 24.87,75.16zm-4.83 203.17c-44.36,44.64 -106.4,66.98 -186.05,66.98 -164.68,0 -247.04,-63.26 -247.04,-189.78 0,-52.58 28.36,-99.23 85.02,-139.91 52.94,-37.71 108.28,-56.56 166.02,-56.56 -87.7,62.52 -131.55,125.04 -131.55,187.54 0,37.71 13.64,71.46 40.92,101.23 28.87,31.25 63.34,46.89 103.44,46.89 52.41,0 103.72,-25.32 153.99,-75.92l15.24 59.54zm396.21 -299.19l-48.91 66.24c-12.84,-27.3 -43.84,-44.14 -93.03,-50.6l34.49 -36.47c17.11,-1.98 29.67,-2.98 37.69,-2.98 18.7,0 41.98,7.94 69.77,23.81zm29.67 235.92c0,32.75 -18.96,59.79 -56.92,81.12 -29.96,16.87 -64.96,27.53 -105.06,32.02 39.56,-27.3 59.33,-56.1 59.33,-86.34 0,-26.29 -19.77,-48.62 -59.33,-66.97 -36.91,-14.91 -73.8,-29.77 -110.69,-44.64 -39.55,-19.36 -59.33,-43.67 -59.33,-72.94 0,-27.3 13.9,-51.37 41.69,-72.2 26.2,-19.83 54.54,-29.77 85.03,-29.77 9.6,0 19.24,1 28.87,2.98 -29.42,25.32 -44.14,47.39 -44.14,66.24 0,14.4 18.99,30.01 56.95,46.88 57.2,24.81 92.5,41.93 105.89,51.35 38.48,25.32 57.72,56.06 57.72,92.29zm-166.82 64.14c-10.68,9.55 -21.37,19.33 -32.08,29.37 -15.49,13.03 -27.79,19.63 -36.88,19.63 -30.47,0 -78.07,-19.36 -142.75,-57.94l73.78 -69.32c39.55,46.12 85.54,72.3 137.93,78.27z"/>
   <path class="fil4" d="M7850.81 2189.25l-79.4 99.73c-42.22,-46.64 -98.92,-69.95 -170.02,-69.95 -16.57,0 -30.49,1.24 -41.72,3.71 21.4,-18.85 42.8,-37.71 64.17,-56.56 19.24,-12.9 45.18,-19.36 77.81,-19.36 52.92,0 102.65,14.14 149.17,42.43zm56.13 384.76c0,54.56 -30.47,99.97 -91.42,136.17 -52.91,32.25 -110.15,48.39 -171.62,48.39 29.39,-14.4 55.08,-32.01 76.99,-52.84 28.33,-26.79 42.51,-52.35 42.51,-76.66 0,-30.75 -35.3,-60.78 -105.89,-90.05 -65.22,-26.79 -130.73,-53.58 -196.48,-80.37 -70.05,-36.71 -105.06,-79.63 -105.06,-128.74 0,-35.73 27,-71.19 80.99,-106.42 43.85,-28.77 88.77,-48.86 134.76,-60.28 -58.83,36.71 -88.24,72.44 -88.24,107.16 0,28.27 36.64,60.79 109.9,97.5 67.89,31.75 135.81,63.49 203.7,95.27 73.26,39.18 109.86,76.16 109.86,110.89zm-226.95 130.21c-23,13.29 -45.73,26.69 -68.18,40.45 -27.29,14.77 -52.66,22.07 -76.19,22.07 -35.3,0 -76.48,-10.17 -123.51,-30.51 -39.58,-17.37 -76.72,-38.2 -111.48,-62.52l104.27 -114.6c27.79,41.18 63.89,75.18 108.25,101.97 48.14,28.77 96.79,43.14 145.98,43.14 6.94,0 13.9,0 20.86,0zm705.91 -215.81c0,38.72 -21.14,69.72 -63.37,93.03 -36.35,19.83 -76.73,29.28 -121.09,28.28l-27.29 0 -34.49 -64c12.3,8.44 27.28,12.66 44.92,12.66 19.78,0 38.22,-5.23 55.33,-15.64 19.24,-11.39 28.87,-26.03 28.87,-43.9 0,-18.36 -8.15,-34.23 -24.47,-47.62 -16.29,-13.4 -34.61,-21.58 -54.93,-24.55 3.22,-12.92 17.65,-25.55 43.32,-37.98 22.99,-10.92 42.77,-16.37 59.36,-16.37 26.71,0 49.7,13.66 68.96,40.95 16.58,24.31 24.87,49.36 24.87,75.15zm-4.83 203.17c-44.36,44.64 -106.4,66.98 -186.05,66.98 -164.68,0 -247.04,-63.26 -247.04,-189.78 0,-52.58 28.36,-99.23 85.02,-139.91 52.94,-37.71 108.28,-56.56 166.02,-56.56 -87.7,62.52 -131.55,125.04 -131.55,187.54 0,37.71 13.65,71.47 40.92,101.24 28.87,31.24 63.34,46.88 103.44,46.88 52.41,0 103.73,-25.32 153.99,-75.92l15.24 59.54zm485.9 -273.87l-88.22 72.94c-9.63,-18.85 -24.07,-34.49 -43.3,-46.89 -19.24,-12.42 -39.84,-18.62 -61.76,-18.62 -6.42,0 -12.56,0.51 -18.44,1.5l64.17 -58.8c10.14,-1.98 20.32,-2.99 30.46,-2.99 47.6,0 86.62,17.62 117.09,52.85zm4.82 264.93c-18.18,20.83 -50.27,37.71 -96.25,50.6 -38.51,10.42 -75.93,15.64 -112.28,15.64 -58.83,0 -106.94,-14.13 -144.37,-42.43 -40.1,-30.26 -60.16,-71.93 -60.16,-125.02 0,-56.56 20.85,-104.68 62.57,-144.37 36.89,-35.23 86.62,-61.52 149.17,-78.9 -26.2,24.31 -48.65,53.84 -67.38,88.57 -20.82,38.19 -31.25,72.68 -31.25,103.42 0,28.8 13.9,58.07 41.69,87.84 27.82,29.78 57.21,44.64 88.24,44.64 69.51,0 119.75,-22.8 150.76,-68.46l19.27 68.46zm473.99 -292.46c-37.43,58.54 -56.16,131.48 -56.16,218.79 0,35.23 4.01,70.46 12.05,105.69l-53.74 23.05c-29.96,-65.48 -44.93,-139.66 -44.93,-222.51 0,-63.5 11.51,-121.8 34.5,-174.88l108.28 49.86zm-152.38 283.53c-45.98,33.25 -119.78,57.56 -221.38,72.94 -19.78,-49.6 -29.67,-109.41 -29.67,-179.34 0,-79.39 16.57,-153.57 49.73,-222.53l44.11 32.02c-3.22,25.29 -4.8,52.08 -4.8,80.37 0,76.89 13.1,133.7 39.31,170.43l103.43 -8.94 19.28 55.06zm565.41 -298.42l-64.17 109.41c-25.66,-20.83 -56.95,-31.25 -93.84,-31.25 -27.25,0 -53.46,7.44 -78.61,22.31l-4.8 -59.51c69.52,-41.19 129.94,-61.79 181.26,-61.79 26.2,0 46.26,6.96 60.16,20.83zm-211.74 328.19l-128.32 64c-13.92,-53.58 -20.85,-115.58 -20.85,-186.04 0,-86.33 13.64,-162.73 40.89,-229.22l48.93 18.62c-12.3,29.27 -18.44,65.97 -18.44,110.14 0,80.37 25.91,154.55 77.79,222.5zm407.4 -532.08c0,15.37 -5.34,29.01 -16.03,40.92 -11.76,13.39 -25.66,20.09 -41.69,20.09 -12.31,0 -22.19,-4.35 -29.7,-13.03 -7.47,-8.67 -11.23,-18.72 -11.23,-30.14 0,-14.9 5.63,-28.66 16.85,-41.29 11.23,-12.65 24.86,-18.98 40.89,-18.98 12.3,0 22.19,4.22 29.67,12.65 7.5,8.42 11.23,18.36 11.23,29.78zm-24.84 529.1l-117.91 73.68c-22.99,-34.23 -34.5,-88.32 -34.5,-162.23 0,-84.83 11.51,-173.91 34.5,-267.18l54.54 8.94c-6.42,28.77 -9.64,57.81 -9.64,87.07 0,44.15 6.42,89.05 19.27,134.7 12.82,48.13 30.75,89.82 53.74,125.02zm369.84 -310.32l-29.67 68.46 -82.61 -24.54 4.03 -48.4 108.25 4.48zm-40.1 260.46c-62,57.56 -122.71,89.31 -182.04,95.27 -17.65,-47.62 -26.46,-106.42 -26.46,-176.38 0,-48.13 4.01,-93.27 12.02,-135.43l-107.47 2.98 -5.6 -55.83 127.51 -18.59c13.35,-49.63 29.95,-104.45 49.73,-164.5l58.54 18.62c-27.28,71.44 -40.89,149.83 -40.89,235.16 0,69.46 7.22,129.5 21.66,180.11l73.78 -27.52 19.24 46.12zm304.65 -38.69l-33.71 31.99c-39.56,-17.85 -79.12,-51.08 -118.7,-99.7 -32.6,-39.21 -60.43,-82.12 -83.41,-128.77l113.1 -63.99c36.35,106.67 77.25,193.5 122.72,260.48zm236.57 -224.01c-14.43,85.33 -60.95,189.01 -139.56,311.08 -62.54,96.25 -134.18,189.01 -214.93,278.33l-103.46 -87.07c95.17,-75.92 179.12,-156.77 251.84,-242.6 97.3,-114.12 149.71,-211.35 157.21,-291.72l48.9 31.99z"/>
   <polygon class="fil5 str0" points="6689.38,500.99 11485.41,500.99 11485.41,4352.01 6689.38,4352.01 "/>
   <path class="fil6" d="M21807.83 8315.54c0,44.68 -9.04,86.52 -26.77,125.31 -18.05,39.09 -42.41,72.86 -73.69,101.61 -30.98,28.45 -67.97,51.05 -110.06,67.8 -42.43,16.48 -87.53,24.83 -135.67,24.83 -49.9,0 -95.94,-8.09 -138.03,-23.99 -41.81,-16.19 -78.21,-38.24 -108.28,-66.43 -30.38,-27.9 -53.85,-61.4 -70.99,-99.89 -17.13,-38.82 -25.54,-81.22 -25.54,-127.55 0,-44.93 9.01,-86.52 26.77,-125.31 18.05,-38.5 42.4,-72.28 73.66,-100.73 31.29,-28.74 67.69,-51.37 109.77,-67.53 41.81,-16.48 87.22,-24.59 135.96,-24.59 49.93,0 95.94,7.83 138.06,23.74 42.09,15.9 78.18,37.66 108.28,65.84 30.35,27.92 53.82,61.42 70.95,100.21 17.14,38.5 25.58,80.93 25.58,126.68zm-79.4 4.75c0,-38.5 -6.62,-73.68 -19.86,-105.48 -13.22,-31.53 -31.57,-58.59 -55.01,-81.22 -23.47,-22.6 -51.44,-39.89 -83.64,-51.89 -32.16,-12 -67.34,-18.14 -104.95,-18.14 -40.29,0 -76.98,6.7 -109.46,19.8 -32.8,13.13 -60.76,30.99 -84.23,53.87 -23.45,22.89 -41.49,49.4 -54.14,79.83 -12.62,30.14 -18.93,62.49 -18.93,96.83 0,38.23 6.59,73.13 19.83,104.66 13.25,31.54 31.57,58.59 55.05,81.2 23.44,22.63 51.44,40.18 83.61,52.47 32.16,12.29 67.37,18.43 104.95,18.43 40.33,0 77.01,-6.69 110.09,-20.09 32.79,-13.39 60.76,-31.28 84.2,-53.87 23.16,-22.6 40.92,-49.13 53.54,-79.53 12.65,-30.14 18.96,-62.53 18.96,-96.86zm-103.75 149.59c0,2.24 -0.63,4.45 -1.5,6.14 -0.92,1.95 -3.02,3.35 -6.63,4.2 -3.32,0.81 -8.44,1.37 -15.03,1.95 -6.34,0.56 -15.03,0.81 -26.17,0.81 -10.24,0 -18.05,-0.26 -24.36,-0.81 -6.02,-0.58 -11.13,-1.4 -15.03,-2.79 -3.61,-1.4 -6.62,-3.35 -8.73,-5.59 -2.1,-2.52 -3.61,-5.86 -4.82,-10.32l-18.65 -56.38c-6.91,-20.09 -15.34,-34.34 -24.95,-42.14 -9.64,-7.83 -24.36,-12 -43.62,-12l-23.76 0 0 114.68c0,5.89 -2.7,10.05 -7.49,12.3 -5.12,1.95 -16.58,3.05 -34.9,3.05 -18.36,0 -30.38,-1.1 -36.09,-3.05 -6.03,-2.25 -8.72,-6.41 -8.72,-12.3l0 -293.57c0,-12 3.01,-21.49 9.63,-28.19 6.31,-6.99 16.23,-10.33 29.16,-10.33l101.05 0c23.76,0 44.22,1.95 62.26,5.88 18.05,3.62 33.08,9.76 45.73,17.85 12.62,8.09 22.26,18.4 28.87,30.7 6.31,12.29 9.61,26.79 9.61,43.82 0,25.95 -7.81,46.3 -22.85,60.84 -15.34,14.5 -36.09,24.54 -61.66,30.69 13.84,4.2 27.08,11.71 39.42,22.05 12.33,10.34 23.16,25.95 31.88,46.59l21.03 52.19c4.21,12.58 6.34,20.67 6.34,23.73zm-109.49 -226.33c0,-6.14 -0.89,-11.71 -2.39,-17.3 -1.81,-5.31 -5.43,-10.05 -10.23,-14.25 -5.12,-4.2 -11.74,-7.25 -19.86,-9.49 -8.1,-1.95 -18.65,-3.06 -30.98,-3.06l-40.31 0 0 91.54 38.79 0c24.67,0 41.52,-4.46 50.84,-13.11 9.64,-8.65 14.13,-20.09 14.13,-34.33z"/>
   <polygon class="fil5 str0" points="390.35,435.25 5186.37,435.25 5186.37,4286.28 390.35,4286.28 "/>
   <polygon class="fil5 str0" points="390.35,5982.18 5186.37,5982.18 5186.37,9833.2 390.35,9833.2 "/>
   <g>
    <path class="fil7" d="M434.14 11879.7c-24.2,8.99 -47.56,15.73 -70.2,20.09 -22.64,4.36 -46.27,6.61 -70.77,6.61 -39.15,0 -73.89,-5.42 -104.08,-16.12 -30.18,-10.7 -55.52,-26.69 -76.31,-47.83 -20.65,-21.14 -36.45,-47.43 -47.13,-78.74 -10.68,-31.31 -16.09,-67.78 -16.09,-109.39 0,-42.54 5.83,-80.33 17.51,-113.49 11.67,-33.16 28.48,-61.17 50.12,-84.02 21.65,-22.86 47.98,-40.29 79.02,-52.32 31.04,-11.89 65.78,-17.97 104.5,-17.97 12.53,0 24.21,0.27 35.17,0.79 11.11,0.53 21.79,1.45 32.47,2.91 10.53,1.45 21.21,3.3 32.03,5.55 10.82,2.38 22.07,5.42 33.75,8.99l0 94.46c-23.64,-10.31 -46.13,-17.71 -67.49,-22.06 -21.5,-4.36 -40.86,-6.61 -58.38,-6.61 -25.91,0 -47.98,4.36 -66.35,12.95 -18.37,8.59 -33.46,20.74 -45.28,36.33 -11.81,15.72 -20.49,34.22 -26.05,55.76 -5.56,21.53 -8.4,45.31 -8.4,71.08 0,27.36 2.85,51.8 8.54,73.33 5.7,21.53 14.52,39.77 26.49,54.83 11.96,14.93 27.34,26.29 45.98,34.22 18.51,7.79 40.73,11.75 66.21,11.75 9.26,0 19.22,-0.79 29.9,-2.5 10.68,-1.59 21.5,-3.83 32.46,-6.61 11.1,-2.64 21.93,-5.95 32.6,-9.65 10.68,-3.7 20.65,-7.52 29.76,-11.36l0 89.04zm490.65 -180.07c0,31.05 -4.7,59.32 -14.24,84.95 -9.4,25.77 -23.07,47.7 -40.86,66.07 -17.8,18.36 -39.58,32.5 -65.5,42.54 -25.77,10.04 -55.24,15.06 -88.42,15.06 -31.46,0 -59.51,-4.23 -84.29,-12.68 -24.77,-8.59 -45.71,-21.28 -62.93,-38.19 -17.23,-16.91 -30.47,-38.05 -39.58,-63.42 -9.26,-25.49 -13.81,-55.09 -13.81,-88.91 0,-31.18 4.84,-59.59 14.39,-85.08 9.54,-25.64 23.35,-47.44 41.28,-65.41 17.94,-18.1 39.87,-32.1 65.64,-42.02 25.91,-9.91 55.1,-14.93 87.7,-14.93 31.62,0 59.94,4.36 84.58,12.95 24.78,8.72 45.85,21.53 63.08,38.58 17.23,17.04 30.33,38.05 39.44,63.28 8.97,25.1 13.52,54.17 13.52,87.2zm-105.93 2.38c0,-40.83 -8.26,-71.48 -24.93,-91.96 -16.51,-20.47 -40.86,-30.78 -73.18,-30.78 -17.8,0 -32.89,3.3 -45.43,9.65 -12.52,6.47 -22.77,15.32 -30.89,26.55 -7.97,11.23 -13.95,24.31 -17.66,39.23 -3.83,15.07 -5.69,31.05 -5.69,48.1 0,40.95 8.97,71.87 26.77,92.61 17.79,20.88 42,31.18 72.9,31.18 16.95,0 31.75,-3.16 44.28,-9.51 12.52,-6.21 22.64,-15.06 30.46,-26.29 7.69,-11.24 13.53,-24.44 17.51,-39.64 3.84,-15.19 5.84,-31.57 5.84,-49.15zm446.8 197.38l0 -256.18c0,-43.2 -17.24,-64.74 -51.83,-64.74 -17.23,0 -33.6,6.47 -49.41,19.42 -15.67,12.81 -32.33,30.39 -49.83,52.58l0 248.91 -101.81 0 0 -393.32 88 0 2.56 58.14c8.69,-10.04 17.66,-19.29 26.91,-27.48 9.26,-8.33 19.37,-15.33 30.18,-21.14 10.97,-5.81 22.64,-10.17 35.03,-13.34 12.53,-3.04 26.63,-4.63 42.14,-4.63 21.79,0 40.58,3.3 56.82,9.91 16.09,6.47 29.62,15.85 40.44,27.88 10.82,11.89 18.94,26.42 24.35,43.34 5.4,16.91 8.11,35.8 8.11,56.67l0 263.97 -101.66 0zm566.4 -115.73c0,22.46 -5.27,41.61 -15.95,57.47 -10.81,15.85 -24.91,28.8 -42.57,38.71 -17.65,9.92 -37.73,17.17 -60.09,21.67 -22.35,4.49 -45.27,6.74 -68.62,6.74 -31.18,0 -59.23,-1.32 -84.29,-3.97 -25.06,-2.77 -48.7,-6.73 -70.91,-11.89l0 -85.08c26.2,10.04 52.25,17.31 78.17,21.8 26.06,4.49 50.54,6.87 73.61,6.87 26.77,0 46.71,-3.96 59.94,-11.89 13.25,-7.79 19.79,-18.1 19.79,-30.79 0,-5.94 -1.42,-11.36 -4.12,-16.25 -2.86,-4.9 -7.98,-9.65 -15.67,-14.14 -7.69,-4.48 -18.5,-9.11 -32.32,-13.86 -13.96,-4.76 -32.18,-10.17 -54.67,-16.12 -20.79,-5.41 -39.16,-11.49 -54.82,-18.37 -15.8,-6.87 -28.76,-14.93 -39.02,-24.17 -10.25,-9.25 -18.08,-20.08 -23.2,-32.37 -5.12,-12.15 -7.69,-26.55 -7.69,-43.08 0,-15.98 3.84,-31.17 11.68,-45.31 7.82,-14.27 19.36,-26.69 34.88,-37.39 15.37,-10.7 34.59,-19.15 57.66,-25.37 23.2,-6.21 50.12,-9.25 81.01,-9.25 26.63,0 50.26,1.32 70.91,3.83 20.5,2.64 38.73,5.41 54.67,8.59l0 77.02c-24.2,-7.27 -46.98,-12.42 -68.2,-15.33 -21.36,-2.91 -42.43,-4.48 -63.22,-4.48 -20.94,0 -37.59,3.57 -50.26,10.43 -12.67,7 -19.08,16.65 -19.08,29.07 0,5.95 1.28,11.23 3.84,15.85 2.42,4.63 7.4,9.25 14.8,13.61 7.41,4.36 17.66,8.99 30.9,13.74 13.1,4.75 30.62,9.91 52.25,15.59 24.49,6.47 45.14,13.48 61.8,20.75 16.66,7.39 30.04,15.72 40.29,24.97 10.1,9.25 17.37,19.95 21.78,31.71 4.56,11.9 6.69,25.5 6.69,40.7zm221.12 -277.59l0 256.31c0,21.41 4.28,37.66 12.96,48.62 8.69,10.96 21.65,16.38 39.16,16.38 17.08,0 33.32,-6.47 49.12,-19.55 15.67,-13.08 32.33,-30.65 49.84,-52.84l0 -248.92 101.8 0 0 393.32 -88.14 0 -2.42 -57.99c-8.98,10.04 -17.95,19.15 -27.2,27.47 -9.1,8.2 -19.08,15.2 -29.75,21.01 -10.68,5.81 -22.36,10.31 -35.03,13.62 -12.68,3.16 -26.63,4.75 -42.01,4.75 -21.64,0 -40.58,-3.3 -56.81,-9.77 -16.38,-6.61 -29.9,-15.99 -40.73,-28.14 -10.82,-12.16 -18.94,-26.56 -24.35,-43.47 -5.55,-16.92 -8.26,-35.81 -8.26,-56.81l0 -263.98 101.8 0zm505.61 -80.06l-119.75 0 0 -73.59 224.12 0 0 473.38 122.16 0 0 73.59 -360.8 0 0 -73.59 134.26 0 0 -399.79zm682.44 469.56c-18.37,3.82 -36.74,6.87 -55.39,9.25 -18.66,2.37 -36.31,3.43 -52.96,3.43 -27.91,0 -51.83,-2.64 -72.05,-8.06 -20.07,-5.41 -36.87,-13.74 -49.97,-24.83 -13.24,-11.1 -22.93,-25.23 -29.19,-42.28 -6.26,-17.17 -9.39,-37.66 -9.39,-61.44l0 -191.97 -113.91 0 0 -73.59 113.91 0 0 -100.54 104.23 -25.23 0 125.77 164.74 0 0 73.59 -164.74 0 0 184.97c0,22.46 5.56,39.5 16.66,50.99 11.1,11.49 29.76,17.17 55.95,17.17 16.66,0 32.89,-1.32 48.84,-3.82 15.8,-2.64 30.33,-5.55 43.28,-8.99l0 75.58zm385.86 3.82l-2.42 -51.52c-8.97,8.84 -18.22,16.91 -27.9,24.17 -9.82,7.4 -20.5,13.74 -32.18,19.16 -11.67,5.41 -24.34,9.64 -38.15,12.68 -13.81,2.91 -28.9,4.36 -45.28,4.36 -21.64,0 -40.72,-2.91 -57.1,-8.85 -16.51,-5.95 -30.18,-14.13 -41.28,-24.83 -11.11,-10.58 -19.65,-23.26 -25.35,-38.32 -5.69,-14.94 -8.55,-31.45 -8.55,-49.55 0,-18.49 4.28,-35.67 12.81,-51.39 8.4,-15.72 21.36,-29.34 38.73,-40.7 17.38,-11.36 39.16,-20.21 65.08,-26.69 26.06,-6.47 56.52,-9.65 91.55,-9.65l55.53 0 0 -23.65c0,-10.04 -1.57,-19.15 -4.56,-27.21 -3.13,-8.2 -7.97,-15.06 -14.8,-20.74 -6.83,-5.68 -15.67,-10.04 -26.49,-13.22 -10.96,-3.04 -24.2,-4.63 -40.15,-4.63 -24.91,0 -49.69,2.65 -74.03,7.93 -24.35,5.29 -47.84,12.69 -70.62,22.33l0 -75.57c20.21,-7.39 43.71,-13.61 70.2,-18.49 26.62,-4.89 54.24,-7.4 82.86,-7.4 31.47,0 58.38,2.77 80.88,8.33 22.64,5.55 41.15,13.86 55.67,24.97 14.66,11.1 25.48,24.97 32.46,41.61 6.83,16.65 10.39,36.07 10.39,58.27l0 268.59 -87.28 0zm-14.52 -173.73l-62.22 0c-17.23,0 -31.75,1.45 -43.71,4.63 -11.97,3.03 -21.79,7.27 -29.19,12.68 -7.55,5.42 -13.1,11.76 -16.51,18.76 -3.42,7.13 -5.27,14.67 -5.27,22.73 0,15.98 5.55,28.14 16.8,36.59 11.1,8.32 26.19,12.56 45.42,12.56 14.09,0 28.9,-4.76 44.14,-14.28 15.37,-9.64 32.18,-23.26 50.54,-41.09l0 -52.58zm471.44 173.73l0 -256.18c0,-43.2 -17.24,-64.74 -51.83,-64.74 -17.23,0 -33.6,6.47 -49.41,19.42 -15.66,12.81 -32.32,30.39 -49.83,52.58l0 248.91 -101.8 0 0 -393.32 87.99 0 2.57 58.14c8.68,-10.04 17.65,-19.29 26.9,-27.48 9.26,-8.33 19.37,-15.33 30.18,-21.14 10.97,-5.81 22.64,-10.17 35.03,-13.34 12.53,-3.04 26.63,-4.63 42.15,-4.63 21.78,0 40.57,3.3 56.81,9.91 16.09,6.47 29.62,15.85 40.44,27.88 10.82,11.89 18.94,26.42 24.35,43.34 5.4,16.91 8.11,35.8 8.11,56.67l0 263.97 -101.66 0zm559.71 -15.06c-19.93,7.4 -40.72,12.95 -62.08,16.65 -21.36,3.57 -43.85,5.42 -67.2,5.42 -33.6,0 -63.8,-4.24 -90.56,-12.82 -26.63,-8.45 -49.27,-21.14 -67.92,-37.91 -18.65,-16.78 -32.89,-37.52 -42.72,-62.36 -9.97,-24.71 -14.8,-53.38 -14.8,-85.88 0,-31.44 5.27,-59.98 15.95,-85.61 10.81,-25.5 25.9,-47.3 45.27,-65.4 19.5,-17.97 43.01,-31.98 70.34,-41.76 27.34,-9.77 57.94,-14.66 91.55,-14.66 27.48,0 50.69,1.32 69.48,3.96 18.8,2.77 35.6,6.22 50.7,10.31l0 91.69c-17.23,-7.93 -36.03,-14.13 -56.1,-18.49 -20.22,-4.49 -39.31,-6.61 -57.39,-6.61 -18.94,0 -35.87,2.91 -50.97,8.84 -14.95,5.95 -27.62,14.28 -37.87,24.84 -10.25,10.57 -18.22,23.39 -23.64,38.45 -5.4,15.19 -8.11,31.71 -8.11,49.81 0,18.76 2.99,35.67 8.82,50.6 5.84,15.06 14.1,27.74 24.78,38.18 10.68,10.43 23.64,18.49 38.58,24.04 15.09,5.56 31.75,8.33 50.12,8.33 8.82,0 18.22,-0.66 28.05,-1.72 9.97,-1.19 19.79,-2.91 29.62,-5.15 9.97,-2.11 19.65,-4.62 29.19,-7.52 9.68,-2.77 18.65,-5.95 26.9,-9.25l0 84.02zm381.73 -27.87c-14.67,34.09 -30.05,63.94 -46,89.58 -16.08,25.63 -33.59,47.03 -52.82,64.21 -19.22,17.17 -40.58,30.12 -64.08,38.71 -23.49,8.72 -49.83,12.95 -79.02,12.95 -6.97,0 -14.52,-0.27 -22.78,-0.93 -8.11,-0.66 -16.51,-1.58 -25.2,-2.91l0 -80.06c3.42,0.54 7.12,1.06 11.53,1.72 4.28,0.66 8.83,1.19 13.52,1.59 4.7,0.39 9.55,0.66 14.38,0.92 4.84,0.27 9.4,0.4 13.53,0.4 11.67,0 22.49,-2.11 32.6,-6.21 9.97,-4.1 19.21,-9.92 27.76,-17.18 8.4,-7.39 16.09,-16.11 23.07,-26.42 6.98,-10.17 13.1,-21.28 18.37,-33.43l-168.16 -393.32 113.48 0 87.99 223.02 26.34 72 25.91 -68.96 88.85 -226.06 109.22 0 -148.51 350.39zm814.72 201.61l0 -792.71 93.83 0 0 792.71 -93.83 0zm1176.8 -311.53c0,27.62 -5.41,51.53 -16.37,72 -11.11,20.35 -26.35,37.13 -46.14,50.47 -19.79,13.35 -43.28,23.12 -70.48,29.59 -27.34,6.48 -57.1,9.65 -89.27,9.65 -28.63,0 -56.39,-1.45 -83.01,-4.63 -26.77,-3.03 -53.11,-8.18 -79.31,-15.45l0 -94.07c12.81,4.1 26.2,8.06 40.02,11.63 13.95,3.57 27.9,6.74 42,9.51 13.96,2.64 28.05,4.75 41.86,6.34 13.96,1.59 27.48,2.38 40.44,2.38 19.5,0 36.03,-1.59 49.7,-4.63 13.67,-3.16 24.77,-7.39 33.32,-12.81 8.68,-5.42 14.95,-11.89 18.79,-19.42 3.99,-7.4 5.83,-15.72 5.83,-24.71 0,-12.42 -3.84,-22.72 -11.39,-31.18 -7.69,-8.32 -17.79,-15.85 -30.33,-22.19 -12.52,-6.47 -26.77,-12.29 -42.72,-17.44 -15.95,-5.15 -32.32,-10.7 -48.83,-16.65 -16.52,-5.95 -32.75,-12.68 -48.84,-20.21 -15.95,-7.39 -30.18,-16.77 -42.72,-27.87 -12.52,-10.97 -22.64,-24.31 -30.18,-39.64 -7.69,-15.33 -11.53,-33.82 -11.53,-55.49 0,-19.96 3.99,-38.72 11.68,-56.55 7.82,-17.83 20.07,-33.3 36.74,-46.63 16.66,-13.35 38.15,-23.92 64.21,-31.71 26.19,-7.93 57.66,-11.9 94.68,-11.9 10.82,0 22.21,0.53 34.04,1.45 11.81,0.93 23.49,1.99 35.03,3.43 11.52,1.46 22.64,3.04 33.32,5.03 10.81,1.98 20.64,3.96 29.47,6.07l0 87.06c-8.83,-3.16 -18.66,-5.94 -29.19,-8.59 -10.53,-2.5 -21.49,-4.75 -32.75,-6.73 -11.25,-1.99 -22.64,-3.43 -34.03,-4.49 -11.39,-0.93 -22.21,-1.45 -32.46,-1.45 -18.08,0 -33.46,1.32 -46,3.96 -12.38,2.78 -22.78,6.48 -30.75,11.24 -8.11,4.75 -13.96,10.7 -17.51,17.7 -3.7,6.88 -5.41,14.67 -5.41,23.12 0,10.58 3.7,19.69 11.39,27.35 7.69,7.67 17.79,14.4 30.47,20.48 12.67,6.08 26.91,11.76 43,17.04 15.95,5.29 32.33,10.97 49.13,17.05 16.94,6.07 33.32,12.95 49.26,20.74 15.95,7.66 30.33,17.17 43,28.28 12.68,11.09 22.78,24.17 30.47,39.23 7.55,15.06 11.39,33.04 11.39,53.64zm483.96 -46.9c0,31.05 -4.7,59.32 -14.24,84.95 -9.4,25.77 -23.06,47.7 -40.86,66.07 -17.8,18.36 -39.58,32.5 -65.5,42.54 -25.77,10.04 -55.24,15.06 -88.42,15.06 -31.46,0 -59.51,-4.23 -84.29,-12.68 -24.77,-8.59 -45.71,-21.28 -62.93,-38.19 -17.23,-16.91 -30.47,-38.05 -39.58,-63.42 -9.26,-25.49 -13.81,-55.09 -13.81,-88.91 0,-31.18 4.84,-59.59 14.39,-85.08 9.54,-25.64 23.35,-47.44 41.28,-65.41 17.95,-18.1 39.87,-32.1 65.64,-42.02 25.91,-9.91 55.1,-14.93 87.7,-14.93 31.62,0 59.95,4.36 84.58,12.95 24.78,8.72 45.85,21.53 63.08,38.58 17.23,17.04 30.33,38.05 39.44,63.28 8.97,25.1 13.52,54.17 13.52,87.2zm-105.93 2.38c0,-40.83 -8.26,-71.48 -24.93,-91.96 -16.51,-20.47 -40.86,-30.78 -73.18,-30.78 -17.8,0 -32.89,3.3 -45.43,9.65 -12.52,6.47 -22.77,15.32 -30.89,26.55 -7.97,11.23 -13.95,24.31 -17.65,39.23 -3.84,15.07 -5.7,31.05 -5.7,48.1 0,40.95 8.97,71.87 26.77,92.61 17.79,20.88 42,31.18 72.9,31.18 16.95,0 31.75,-3.16 44.28,-9.51 12.52,-6.21 22.64,-15.06 30.47,-26.29 7.68,-11.24 13.52,-24.44 17.5,-39.64 3.84,-15.19 5.84,-31.57 5.84,-49.15zm330.76 -276l-119.75 0 0 -73.59 224.11 0 0 473.38 122.16 0 0 73.59 -360.8 0 0 -73.59 134.27 0 0 -399.79zm433.83 80.06l0 256.31c0,21.41 4.28,37.66 12.97,48.62 8.68,10.96 21.64,16.38 39.15,16.38 17.08,0 33.32,-6.47 49.12,-19.55 15.67,-13.08 32.33,-30.65 49.84,-52.84l0 -248.92 101.8 0 0 393.32 -88.14 0 -2.42 -57.99c-8.97,10.04 -17.94,19.15 -27.19,27.47 -9.11,8.2 -19.08,15.2 -29.76,21.01 -10.68,5.81 -22.36,10.31 -35.03,13.62 -12.67,3.16 -26.63,4.75 -42.01,4.75 -21.64,0 -40.57,-3.3 -56.81,-9.77 -16.37,-6.61 -29.9,-15.99 -40.73,-28.14 -10.81,-12.16 -18.94,-26.56 -24.34,-43.47 -5.56,-16.92 -8.26,-35.81 -8.26,-56.81l0 -263.98 101.79 0zm718.33 389.5c-18.37,3.82 -36.74,6.87 -55.39,9.25 -18.65,2.37 -36.31,3.43 -52.96,3.43 -27.91,0 -51.83,-2.64 -72.04,-8.06 -20.08,-5.41 -36.88,-13.74 -49.98,-24.83 -13.24,-11.1 -22.92,-25.23 -29.18,-42.28 -6.27,-17.17 -9.4,-37.66 -9.4,-61.44l0 -191.97 -113.91 0 0 -73.59 113.91 0 0 -100.54 104.23 -25.23 0 125.77 164.74 0 0 73.59 -164.74 0 0 184.97c0,22.46 5.56,39.5 16.66,50.99 11.1,11.49 29.76,17.17 55.95,17.17 16.66,0 32.89,-1.32 48.84,-3.82 15.8,-2.64 30.33,-5.55 43.28,-8.99l0 75.58zm369.63 -497.04c0,8.46 -1.71,16.51 -4.99,24.05 -3.27,7.4 -7.97,14.01 -13.95,19.55 -5.99,5.55 -12.96,9.91 -21.08,13.08 -8.11,3.3 -16.79,4.89 -26.34,4.89 -9.4,0 -18.22,-1.59 -26.48,-4.89 -8.11,-3.17 -15.24,-7.54 -21.21,-13.08 -5.98,-5.55 -10.68,-12.15 -13.96,-19.55 -3.41,-7.54 -4.98,-15.59 -4.98,-24.05 0,-8.45 1.57,-16.51 4.98,-24.04 3.28,-7.4 7.98,-14.01 13.96,-19.69 5.98,-5.68 13.1,-10.17 21.21,-13.34 8.26,-3.31 17.08,-4.9 26.48,-4.9 9.55,0 18.22,1.59 26.34,4.9 8.12,3.16 15.09,7.66 21.08,13.34 5.98,5.68 10.68,12.29 13.95,19.69 3.28,7.52 4.99,15.59 4.99,24.04zm-112.63 181.14l-119.75 0 0 -73.59 224.12 0 0 319.73 122.16 0 0 73.59 -360.8 0 0 -73.59 134.26 0 0 -246.14zm714.63 119.97c0,31.05 -4.7,59.32 -14.25,84.95 -9.39,25.77 -23.06,47.7 -40.86,66.07 -17.8,18.36 -39.58,32.5 -65.5,42.54 -25.77,10.04 -55.24,15.06 -88.41,15.06 -31.47,0 -59.52,-4.23 -84.29,-12.68 -24.78,-8.59 -45.71,-21.28 -62.94,-38.19 -17.23,-16.91 -30.46,-38.05 -39.58,-63.42 -9.25,-25.49 -13.8,-55.09 -13.8,-88.91 0,-31.18 4.83,-59.59 14.38,-85.08 9.54,-25.64 23.35,-47.44 41.28,-65.41 17.95,-18.1 39.87,-32.1 65.64,-42.02 25.91,-9.91 55.11,-14.93 87.71,-14.93 31.6,0 59.94,4.36 84.57,12.95 24.78,8.72 45.85,21.53 63.08,38.58 17.24,17.04 30.33,38.05 39.44,63.28 8.98,25.1 13.53,54.17 13.53,87.2zm-105.94 2.38c0,-40.83 -8.26,-71.48 -24.91,-91.96 -16.51,-20.47 -40.86,-30.78 -73.19,-30.78 -17.79,0 -32.89,3.3 -45.42,9.65 -12.53,6.47 -22.78,15.32 -30.9,26.55 -7.97,11.23 -13.95,24.31 -17.65,39.23 -3.84,15.07 -5.7,31.05 -5.7,48.1 0,40.95 8.98,71.87 26.77,92.61 17.8,20.88 42.01,31.18 72.9,31.18 16.95,0 31.75,-3.16 44.28,-9.51 12.52,-6.21 22.64,-15.06 30.47,-26.29 7.69,-11.24 13.52,-24.44 17.51,-39.64 3.84,-15.19 5.83,-31.57 5.83,-49.15zm446.8 197.38l0 -256.18c0,-43.2 -17.23,-64.74 -51.83,-64.74 -17.23,0 -33.59,6.47 -49.41,19.42 -15.66,12.81 -32.32,30.39 -49.83,52.58l0 248.91 -101.8 0 0 -393.32 87.99 0 2.57 58.14c8.68,-10.04 17.65,-19.29 26.9,-27.48 9.26,-8.33 19.37,-15.33 30.18,-21.14 10.97,-5.81 22.65,-10.17 35.04,-13.34 12.52,-3.04 26.62,-4.63 42.14,-4.63 21.78,0 40.58,3.3 56.81,9.91 16.09,6.47 29.62,15.85 40.44,27.88 10.82,11.89 18.94,26.42 24.35,43.34 5.41,16.91 8.11,35.8 8.11,56.67l0 263.97 -101.66 0zm566.41 -115.73c0,22.46 -5.27,41.61 -15.95,57.47 -10.82,15.85 -24.93,28.8 -42.57,38.71 -17.66,9.92 -37.74,17.17 -60.09,21.67 -22.36,4.49 -45.28,6.74 -68.63,6.74 -31.18,0 -59.23,-1.32 -84.29,-3.97 -25.06,-2.77 -48.7,-6.73 -70.91,-11.89l0 -85.08c26.2,10.04 52.25,17.31 78.17,21.8 26.06,4.49 50.55,6.87 73.61,6.87 26.77,0 46.71,-3.96 59.95,-11.89 13.24,-7.79 19.79,-18.1 19.79,-30.79 0,-5.94 -1.42,-11.36 -4.13,-16.25 -2.85,-4.9 -7.97,-9.65 -15.66,-14.14 -7.69,-4.48 -18.51,-9.11 -32.33,-13.86 -13.95,-4.76 -32.18,-10.17 -54.67,-16.12 -20.78,-5.41 -39.15,-11.49 -54.82,-18.37 -15.8,-6.87 -28.76,-14.93 -39.01,-24.17 -10.26,-9.25 -18.09,-20.08 -23.21,-32.37 -5.12,-12.15 -7.69,-26.55 -7.69,-43.08 0,-15.98 3.84,-31.17 11.68,-45.31 7.83,-14.27 19.36,-26.69 34.88,-37.39 15.38,-10.7 34.59,-19.15 57.66,-25.37 23.21,-6.21 50.12,-9.25 81.01,-9.25 26.63,0 50.26,1.32 70.91,3.83 20.5,2.64 38.73,5.41 54.67,8.59l0 77.02c-24.2,-7.27 -46.98,-12.42 -68.2,-15.33 -21.36,-2.91 -42.43,-4.48 -63.22,-4.48 -20.93,0 -37.58,3.57 -50.26,10.43 -12.67,7 -19.07,16.65 -19.07,29.07 0,5.95 1.28,11.23 3.84,15.85 2.41,4.63 7.4,9.25 14.8,13.61 7.4,4.36 17.66,8.99 30.89,13.74 13.1,4.75 30.62,9.91 52.25,15.59 24.49,6.47 45.14,13.48 61.8,20.75 16.66,7.39 30.05,15.72 40.29,24.97 10.11,9.25 17.37,19.95 21.78,31.71 4.56,11.9 6.7,25.5 6.7,40.7zm720.03 274.4l0 -792.71 93.84 0 0 792.71 -93.84 0zm1176.81 -311.53c0,27.62 -5.41,51.53 -16.38,72 -11.1,20.35 -26.34,37.13 -46.13,50.47 -19.79,13.35 -43.28,23.12 -70.49,29.59 -27.34,6.48 -57.09,9.65 -89.27,9.65 -28.62,0 -56.39,-1.45 -83.01,-4.63 -26.77,-3.03 -53.11,-8.18 -79.3,-15.45l0 -94.07c12.81,4.1 26.19,8.06 40.01,11.63 13.96,3.57 27.9,6.74 42.01,9.51 13.95,2.64 28.05,4.75 41.86,6.34 13.95,1.59 27.47,2.38 40.43,2.38 19.51,0 36.03,-1.59 49.7,-4.63 13.67,-3.16 24.77,-7.39 33.32,-12.81 8.69,-5.42 14.96,-11.89 18.79,-19.42 3.99,-7.4 5.84,-15.72 5.84,-24.71 0,-12.42 -3.84,-22.72 -11.39,-31.18 -7.69,-8.32 -17.8,-15.85 -30.34,-22.19 -12.52,-6.47 -26.76,-12.29 -42.71,-17.44 -15.95,-5.15 -32.33,-10.7 -48.84,-16.65 -16.51,-5.95 -32.75,-12.68 -48.84,-20.21 -15.95,-7.39 -30.18,-16.77 -42.71,-27.87 -12.53,-10.97 -22.65,-24.31 -30.19,-39.64 -7.69,-15.33 -11.53,-33.82 -11.53,-55.49 0,-19.96 3.99,-38.72 11.68,-56.55 7.83,-17.83 20.08,-33.3 36.74,-46.63 16.66,-13.35 38.16,-23.92 64.21,-31.71 26.2,-7.93 57.66,-11.9 94.69,-11.9 10.81,0 22.21,0.53 34.03,1.45 11.81,0.93 23.49,1.99 35.03,3.43 11.53,1.46 22.64,3.04 33.32,5.03 10.82,1.98 20.65,3.96 29.47,6.07l0 87.06c-8.82,-3.16 -18.65,-5.94 -29.18,-8.59 -10.55,-2.5 -21.5,-4.75 -32.75,-6.73 -11.26,-1.99 -22.65,-3.43 -34.04,-4.49 -11.39,-0.93 -22.2,-1.45 -32.46,-1.45 -18.08,0 -33.46,1.32 -45.98,3.96 -12.39,2.78 -22.78,6.48 -30.76,11.24 -8.11,4.75 -13.96,10.7 -17.51,17.7 -3.7,6.88 -5.41,14.67 -5.41,23.12 0,10.58 3.7,19.69 11.39,27.35 7.69,7.67 17.8,14.4 30.47,20.48 12.68,6.08 26.91,11.76 43.01,17.04 15.95,5.29 32.32,10.97 49.12,17.05 16.95,6.07 33.32,12.95 49.26,20.74 15.95,7.66 30.33,17.17 43.01,28.28 12.67,11.09 22.78,24.17 30.47,39.23 7.55,15.06 11.39,33.04 11.39,53.64zm471.43 -73.98c0,6.47 -0.14,14.79 -0.57,25.23 -0.43,10.3 -1.14,19.95 -2,28.94l-278.64 0c0,17.3 2.85,32.5 8.55,45.71 5.7,13.22 13.81,24.18 24.2,33.16 10.53,8.85 23.07,15.6 37.59,20.21 14.66,4.76 30.75,7 48.55,7 20.64,0 42.72,-1.44 66.21,-4.48 23.49,-2.91 47.83,-7.79 73.18,-14.4l0 75.04c-10.82,2.77 -22.64,5.41 -35.45,7.66 -12.81,2.38 -25.91,4.49 -39.29,6.22 -13.25,1.85 -26.77,3.16 -40.44,4.09 -13.52,0.92 -26.77,1.32 -39.58,1.32 -32.33,0 -61.22,-4.23 -86.71,-12.68 -25.63,-8.59 -47.27,-21.14 -65.07,-37.79 -17.8,-16.65 -31.47,-37.25 -41.01,-61.7 -9.4,-24.57 -14.1,-52.97 -14.1,-85.22 0,-31.97 4.7,-61.03 14.1,-87.2 9.54,-26.29 22.93,-48.75 40.15,-67.37 17.23,-18.76 38.16,-33.16 62.79,-43.34 24.49,-10.17 51.97,-15.33 82.3,-15.33 30.04,0 56.66,4.36 79.73,12.95 23.07,8.72 42.43,20.74 57.95,36.2 15.51,15.46 27.34,33.96 35.45,55.36 8.11,21.41 12.1,44.92 12.1,70.43zm-103.52 -13.48c0.29,-15.59 -1.7,-29.06 -6.11,-40.43 -4.57,-11.49 -10.55,-21.01 -18.24,-28.53 -7.68,-7.4 -16.51,-12.95 -26.63,-16.65 -10.25,-3.57 -21.07,-5.42 -32.75,-5.42 -25.63,0 -46.7,7.93 -63.07,23.79 -16.38,15.84 -26.06,38.32 -29.19,67.24l175.98 0z"/>
    <path class="fil7" d="M13568.45 11884.33c-19.94,7.4 -40.73,12.95 -62.09,16.65 -21.36,3.57 -43.85,5.42 -67.2,5.42 -33.6,0 -63.79,-4.24 -90.56,-12.82 -26.63,-8.45 -49.26,-21.14 -67.92,-37.91 -18.65,-16.78 -32.88,-37.52 -42.72,-62.36 -9.96,-24.71 -14.8,-53.38 -14.8,-85.88 0,-31.44 5.27,-59.98 15.95,-85.61 10.82,-25.5 25.91,-47.3 45.27,-65.4 19.51,-17.97 43.01,-31.98 70.34,-41.76 27.34,-9.77 57.95,-14.66 91.55,-14.66 27.48,0 50.7,1.32 69.49,3.96 18.79,2.77 35.59,6.22 50.69,10.31l0 91.69c-17.23,-7.93 -36.02,-14.13 -56.1,-18.49 -20.21,-4.49 -39.29,-6.61 -57.38,-6.61 -18.95,0 -35.88,2.91 -50.97,8.84 -14.96,5.95 -27.63,14.28 -37.88,24.84 -10.25,10.57 -18.22,23.39 -23.63,38.45 -5.41,15.19 -8.12,31.71 -8.12,49.81 0,18.76 2.99,35.67 8.83,50.6 5.83,15.06 14.09,27.74 24.77,38.18 10.68,10.43 23.64,18.49 38.58,24.04 15.09,5.56 31.76,8.33 50.12,8.33 8.83,0 18.22,-0.66 28.05,-1.72 9.97,-1.19 19.79,-2.91 29.63,-5.15 9.96,-2.11 19.65,-4.62 29.18,-7.52 9.68,-2.77 18.65,-5.95 26.91,-9.25l0 84.02zm227.81 -378.26l0 256.31c0,21.41 4.27,37.66 12.96,48.62 8.68,10.96 21.64,16.38 39.15,16.38 17.09,0 33.32,-6.47 49.13,-19.55 15.66,-13.08 32.32,-30.65 49.83,-52.84l0 -248.92 101.8 0 0 393.32 -88.14 0 -2.42 -57.99c-8.97,10.04 -17.94,19.15 -27.19,27.47 -9.11,8.2 -19.08,15.2 -29.76,21.01 -10.68,5.81 -22.35,10.31 -35.03,13.62 -12.67,3.16 -26.63,4.75 -42,4.75 -21.65,0 -40.58,-3.3 -56.82,-9.77 -16.37,-6.61 -29.89,-15.99 -40.72,-28.14 -10.82,-12.16 -18.94,-26.56 -24.35,-43.47 -5.56,-16.92 -8.26,-35.81 -8.26,-56.81l0 -263.98 101.8 0zm641.58 152.99c0.57,-14.79 -0.14,-27.21 -2.29,-37.66 -2.13,-10.3 -5.4,-18.75 -9.96,-25.49 -4.56,-6.74 -10.26,-11.63 -16.95,-14.67 -6.69,-3.16 -14.24,-4.62 -22.93,-4.62 -14.95,0 -30.47,5.68 -46.56,17.17 -15.95,11.49 -33.45,30.39 -52.67,56.67l0 248.91 -104.37 0 0 -393.32 92.26 0 3.71 57.34c6.97,-10.04 14.8,-19.15 23.64,-27.09 8.68,-8.05 18.5,-14.93 29.18,-20.74 10.68,-5.81 22.5,-10.17 35.59,-13.34 13.1,-3.04 27.48,-4.63 43.01,-4.63 21.36,0 40.44,3.43 56.95,10.31 16.51,6.73 30.47,16.91 41.72,30.39 11.25,13.34 19.65,30.25 25.06,50.47 5.41,20.21 7.69,43.59 6.83,70.28l-102.23 0zm446.37 -260.54c0,8.46 -1.71,16.51 -4.98,24.05 -3.28,7.4 -7.98,14.01 -13.96,19.55 -5.98,5.55 -12.96,9.91 -21.07,13.08 -8.12,3.3 -16.8,4.89 -26.34,4.89 -9.4,0 -18.24,-1.59 -26.49,-4.89 -8.11,-3.17 -15.24,-7.54 -21.21,-13.08 -5.98,-5.55 -10.68,-12.15 -13.95,-19.55 -3.42,-7.54 -4.99,-15.59 -4.99,-24.05 0,-8.45 1.57,-16.51 4.99,-24.04 3.27,-7.4 7.97,-14.01 13.95,-19.69 5.98,-5.68 13.1,-10.17 21.21,-13.34 8.26,-3.31 17.09,-4.9 26.49,-4.9 9.54,0 18.21,1.59 26.34,4.9 8.11,3.16 15.09,7.66 21.07,13.34 5.98,5.68 10.68,12.29 13.96,19.69 3.27,7.52 4.98,15.59 4.98,24.04zm-112.63 181.14l-119.74 0 0 -73.59 224.11 0 0 319.73 122.16 0 0 73.59 -360.8 0 0 -73.59 134.26 0 0 -246.14zm682.44 315.91c-18.37,3.82 -36.74,6.87 -55.39,9.25 -18.65,2.37 -36.31,3.43 -52.96,3.43 -27.91,0 -51.83,-2.64 -72.04,-8.06 -20.08,-5.41 -36.88,-13.74 -49.98,-24.83 -13.24,-11.1 -22.92,-25.23 -29.18,-42.28 -6.27,-17.17 -9.4,-37.66 -9.4,-61.44l0 -191.97 -113.91 0 0 -73.59 113.91 0 0 -100.54 104.23 -25.23 0 125.77 164.74 0 0 73.59 -164.74 0 0 184.97c0,22.46 5.56,39.5 16.66,50.99 11.1,11.49 29.76,17.17 55.95,17.17 16.66,0 32.89,-1.32 48.84,-3.82 15.8,-2.64 30.33,-5.55 43.28,-8.99l0 75.58zm375.04 -39.11c-14.67,34.09 -30.05,63.94 -46,89.58 -16.09,25.63 -33.59,47.03 -52.82,64.21 -19.22,17.17 -40.58,30.12 -64.08,38.71 -23.49,8.72 -49.83,12.95 -79.02,12.95 -6.98,0 -14.52,-0.27 -22.78,-0.93 -8.11,-0.66 -16.51,-1.58 -25.2,-2.91l0 -80.06c3.42,0.54 7.12,1.06 11.53,1.72 4.27,0.66 8.82,1.19 13.52,1.59 4.7,0.39 9.55,0.66 14.38,0.92 4.84,0.27 9.4,0.4 13.53,0.4 11.67,0 22.49,-2.11 32.6,-6.21 9.97,-4.1 19.21,-9.92 27.76,-17.18 8.4,-7.39 16.09,-16.11 23.07,-26.42 6.97,-10.17 13.1,-21.28 18.36,-33.43l-168.15 -393.32 113.47 0 88 223.02 26.34 72 25.91 -68.96 88.85 -226.06 109.21 0 -148.5 350.39zm814.72 201.61l0 -792.71 93.83 0 0 792.71 -93.83 0zm1176.8 -311.53c0,27.62 -5.41,51.53 -16.38,72 -11.1,20.35 -26.34,37.13 -46.13,50.47 -19.79,13.35 -43.28,23.12 -70.48,29.59 -27.34,6.48 -57.1,9.65 -89.28,9.65 -28.62,0 -56.38,-1.45 -83,-4.63 -26.77,-3.03 -53.12,-8.18 -79.31,-15.45l0 -94.07c12.81,4.1 26.19,8.06 40.01,11.63 13.96,3.57 27.91,6.74 42.01,9.51 13.96,2.64 28.05,4.75 41.86,6.34 13.96,1.59 27.48,2.38 40.44,2.38 19.5,0 36.02,-1.59 49.69,-4.63 13.67,-3.16 24.78,-7.39 33.33,-12.81 8.68,-5.42 14.95,-11.89 18.79,-19.42 3.99,-7.4 5.83,-15.72 5.83,-24.71 0,-12.42 -3.84,-22.72 -11.39,-31.18 -7.69,-8.32 -17.79,-15.85 -30.33,-22.19 -12.53,-6.47 -26.77,-12.29 -42.72,-17.44 -15.95,-5.15 -32.32,-10.7 -48.83,-16.65 -16.52,-5.95 -32.75,-12.68 -48.84,-20.21 -15.95,-7.39 -30.19,-16.77 -42.72,-27.87 -12.52,-10.97 -22.64,-24.31 -30.18,-39.64 -7.69,-15.33 -11.53,-33.82 -11.53,-55.49 0,-19.96 3.99,-38.72 11.68,-56.55 7.82,-17.83 20.07,-33.3 36.73,-46.63 16.66,-13.35 38.16,-23.92 64.22,-31.71 26.19,-7.93 57.66,-11.9 94.68,-11.9 10.82,0 22.21,0.53 34.03,1.45 11.82,0.93 23.49,1.99 35.03,3.43 11.53,1.46 22.65,3.04 33.33,5.03 10.81,1.98 20.64,3.96 29.47,6.07l0 87.06c-8.83,-3.16 -18.66,-5.94 -29.19,-8.59 -10.53,-2.5 -21.5,-4.75 -32.75,-6.73 -11.25,-1.99 -22.64,-3.43 -34.03,-4.49 -11.39,-0.93 -22.21,-1.45 -32.46,-1.45 -18.09,0 -33.46,1.32 -46,3.96 -12.38,2.78 -22.78,6.48 -30.75,11.24 -8.12,4.75 -13.96,10.7 -17.51,17.7 -3.71,6.88 -5.41,14.67 -5.41,23.12 0,10.58 3.7,19.69 11.39,27.35 7.69,7.67 17.79,14.4 30.47,20.48 12.67,6.08 26.9,11.76 43,17.04 15.95,5.29 32.32,10.97 49.13,17.05 16.94,6.07 33.31,12.95 49.26,20.74 15.95,7.66 30.33,17.17 43,28.28 12.67,11.09 22.78,24.17 30.47,39.23 7.55,15.06 11.39,33.04 11.39,53.64zm451.78 149.04c-18.36,3.82 -36.73,6.87 -55.39,9.25 -18.65,2.37 -36.31,3.43 -52.96,3.43 -27.9,0 -51.83,-2.64 -72.04,-8.06 -20.08,-5.41 -36.88,-13.74 -49.97,-24.83 -13.25,-11.1 -22.93,-25.23 -29.19,-42.28 -6.27,-17.17 -9.4,-37.66 -9.4,-61.44l0 -191.97 -113.91 0 0 -73.59 113.91 0 0 -100.54 104.23 -25.23 0 125.77 164.74 0 0 73.59 -164.74 0 0 184.97c0,22.46 5.56,39.5 16.66,50.99 11.11,11.49 29.76,17.17 55.96,17.17 16.66,0 32.89,-1.32 48.83,-3.82 15.81,-2.64 30.34,-5.55 43.28,-8.99l0 75.58zm392.98 -236.5c0.57,-14.79 -0.14,-27.21 -2.28,-37.66 -2.13,-10.3 -5.41,-18.75 -9.97,-25.49 -4.56,-6.74 -10.25,-11.63 -16.94,-14.67 -6.69,-3.16 -14.24,-4.62 -22.93,-4.62 -14.95,0 -30.47,5.68 -46.56,17.17 -15.95,11.49 -33.46,30.39 -52.67,56.67l0 248.91 -104.37 0 0 -393.32 92.26 0 3.7 57.34c6.98,-10.04 14.81,-19.15 23.65,-27.09 8.68,-8.05 18.5,-14.93 29.18,-20.74 10.68,-5.81 22.49,-10.17 35.59,-13.34 13.1,-3.04 27.48,-4.63 43.01,-4.63 21.35,0 40.43,3.43 56.94,10.31 16.52,6.73 30.47,16.91 41.73,30.39 11.25,13.34 19.65,30.25 25.06,50.47 5.41,20.21 7.69,43.59 6.83,70.28l-102.24 0zm462.6 240.33l-2.41 -51.52c-8.98,8.84 -18.22,16.91 -27.91,24.17 -9.82,7.4 -20.5,13.74 -32.17,19.16 -11.68,5.41 -24.35,9.64 -38.16,12.68 -13.81,2.91 -28.9,4.36 -45.28,4.36 -21.64,0 -40.72,-2.91 -57.09,-8.85 -16.52,-5.95 -30.19,-14.13 -41.29,-24.83 -11.1,-10.58 -19.65,-23.26 -25.35,-38.32 -5.69,-14.94 -8.54,-31.45 -8.54,-49.55 0,-18.49 4.27,-35.67 12.81,-51.39 8.4,-15.72 21.36,-29.34 38.73,-40.7 17.37,-11.36 39.15,-20.21 65.07,-26.69 26.06,-6.47 56.53,-9.65 91.56,-9.65l55.53 0 0 -23.65c0,-10.04 -1.57,-19.15 -4.56,-27.21 -3.13,-8.2 -7.98,-15.06 -14.81,-20.74 -6.83,-5.68 -15.66,-10.04 -26.48,-13.22 -10.97,-3.04 -24.2,-4.63 -40.15,-4.63 -24.91,0 -49.7,2.65 -74.04,7.93 -24.35,5.29 -47.84,12.69 -70.62,22.33l0 -75.57c20.22,-7.39 43.72,-13.61 70.2,-18.49 26.63,-4.89 54.24,-7.4 82.87,-7.4 31.46,0 58.38,2.77 80.87,8.33 22.64,5.55 41.15,13.86 55.67,24.97 14.67,11.1 25.48,24.97 32.46,41.61 6.83,16.65 10.4,36.07 10.4,58.27l0 268.59 -87.29 0zm-14.51 -173.73l-62.23 0c-17.23,0 -31.75,1.45 -43.71,4.63 -11.96,3.03 -21.78,7.27 -29.19,12.68 -7.55,5.42 -13.09,11.76 -16.51,18.76 -3.41,7.13 -5.27,14.67 -5.27,22.73 0,15.98 5.56,28.14 16.8,36.59 11.1,8.32 26.2,12.56 45.42,12.56 14.1,0 28.9,-4.76 44.14,-14.28 15.38,-9.64 32.18,-23.26 50.55,-41.09l0 -52.58zm568.11 169.91c-18.37,3.82 -36.74,6.87 -55.39,9.25 -18.65,2.37 -36.31,3.43 -52.96,3.43 -27.91,0 -51.83,-2.64 -72.05,-8.06 -20.07,-5.41 -36.87,-13.74 -49.97,-24.83 -13.24,-11.1 -22.93,-25.23 -29.19,-42.28 -6.26,-17.17 -9.39,-37.66 -9.39,-61.44l0 -191.97 -113.91 0 0 -73.59 113.91 0 0 -100.54 104.23 -25.23 0 125.77 164.74 0 0 73.59 -164.74 0 0 184.97c0,22.46 5.56,39.5 16.66,50.99 11.1,11.49 29.76,17.17 55.95,17.17 16.66,0 32.89,-1.32 48.84,-3.82 15.8,-2.64 30.33,-5.55 43.28,-8.99l0 75.58zm489.37 -223.02c0,6.47 -0.14,14.79 -0.57,25.23 -0.43,10.3 -1.14,19.95 -2,28.94l-278.64 0c0,17.3 2.85,32.5 8.55,45.71 5.69,13.22 13.81,24.18 24.2,33.16 10.53,8.85 23.06,15.6 37.58,20.21 14.67,4.76 30.76,7 48.56,7 20.64,0 42.71,-1.44 66.2,-4.48 23.5,-2.91 47.84,-7.79 73.19,-14.4l0 75.04c-10.82,2.77 -22.64,5.41 -35.45,7.66 -12.81,2.38 -25.91,4.49 -39.29,6.22 -13.25,1.85 -26.77,3.16 -40.44,4.09 -13.52,0.92 -26.77,1.32 -39.58,1.32 -32.33,0 -61.23,-4.23 -86.71,-12.68 -25.63,-8.59 -47.27,-21.14 -65.08,-37.79 -17.79,-16.65 -31.46,-37.25 -41,-61.7 -9.4,-24.57 -14.1,-52.97 -14.1,-85.22 0,-31.97 4.7,-61.03 14.1,-87.2 9.54,-26.29 22.92,-48.75 40.15,-67.37 17.23,-18.76 38.15,-33.16 62.79,-43.34 24.49,-10.17 51.97,-15.33 82.3,-15.33 30.04,0 56.66,4.36 79.73,12.95 23.07,8.72 42.43,20.74 57.95,36.2 15.51,15.46 27.34,33.96 35.45,55.36 8.11,21.41 12.1,44.92 12.1,70.43zm-103.52 -13.48c0.29,-15.59 -1.7,-29.06 -6.12,-40.43 -4.56,-11.49 -10.53,-21.01 -18.22,-28.53 -7.69,-7.4 -16.51,-12.95 -26.63,-16.65 -10.25,-3.57 -21.07,-5.42 -32.75,-5.42 -25.63,0 -46.7,7.93 -63.08,23.79 -16.37,15.84 -26.05,38.32 -29.18,67.24l175.98 0zm521.98 -84.02c7.69,8.98 13.25,18.49 16.38,28.4 3.28,9.92 4.83,20.09 4.83,30.39 0,21.94 -4.12,41.36 -12.25,58.14 -8.26,16.78 -19.78,30.78 -34.74,42.14 -14.8,11.37 -32.6,19.96 -53.4,25.77 -20.64,5.81 -43.56,8.71 -68.48,8.71 -14.81,0 -28.48,-1.32 -41.01,-4.09 -12.39,-2.77 -21.94,-5.81 -28.34,-9.5 -4.7,4.35 -8.69,9.25 -12.1,14.52 -3.28,5.29 -4.99,11.37 -4.99,17.97 0,4.24 1.14,8.33 3.42,12.42 2.13,4.09 5.41,7.79 9.68,11.1 4.41,3.16 9.55,5.81 15.52,7.93 5.98,1.98 12.67,3.16 20.21,3.43l100.53 3.43c22.49,0.54 42.85,3.17 61.09,7.93 18.21,4.89 33.88,11.63 46.98,20.35 13.09,8.85 23.06,19.42 30.18,31.98 7.11,12.55 10.68,26.82 10.68,42.8 0,18.24 -4.41,35.54 -13.39,51.8 -8.82,16.25 -22.35,30.38 -40.29,42.41 -17.94,12.02 -40.15,21.53 -66.92,28.41 -26.62,7 -57.66,10.43 -92.97,10.43 -34.17,0 -63.64,-2.5 -88.28,-7.54 -24.63,-5.02 -44.71,-12.02 -60.51,-21 -15.67,-9.12 -27.34,-19.82 -34.75,-32.38 -7.55,-12.55 -11.25,-26.29 -11.25,-41.21 0,-8.99 1.14,-17.44 3.7,-25.11 2.57,-7.79 6.27,-15.18 11.25,-22.33 4.99,-7.13 11.26,-14 18.8,-20.74 7.55,-6.61 16.37,-13.34 26.63,-20.08 -13.53,-7.27 -23.93,-16.51 -31.04,-27.88 -7.12,-11.36 -10.55,-23.51 -10.55,-36.33 0,-8.85 1.14,-17.05 3.71,-24.57 2.41,-7.66 5.69,-14.93 9.82,-21.94 3.98,-7 8.68,-13.61 13.95,-20.08 5.27,-6.47 10.82,-12.81 16.66,-19.03 -10.25,-9.5 -18.79,-21 -25.63,-34.6 -6.83,-13.48 -10.26,-30.52 -10.26,-50.87 0,-21.94 4.28,-41.48 12.68,-58.66 8.55,-17.17 20.36,-31.57 35.31,-43.34 14.96,-11.75 32.89,-20.61 53.54,-26.69 20.79,-6.07 43.43,-9.11 67.92,-9.11 12.38,0 24.48,0.53 36.02,1.72 11.53,1.19 22.07,3.16 31.47,5.94l146.8 0 0 68.97 -66.64 0zm-239.91 376.67c0,15.19 8.26,26.42 24.77,33.55 16.66,7.27 39.87,10.83 69.91,10.83 19.22,0 35.46,-1.58 48.56,-5.02 13.24,-3.3 24.06,-7.66 32.32,-13.08 8.4,-5.41 14.38,-11.75 17.94,-19.02 3.71,-7.27 5.56,-14.67 5.56,-22.46 0,-6.88 -1.85,-12.81 -5.27,-17.58 -3.41,-4.75 -8.4,-8.72 -14.67,-12.02 -6.27,-3.17 -13.52,-5.68 -22.07,-7.4 -8.4,-1.59 -17.79,-2.77 -28.18,-3.17l-89.7 -1.58c-7.98,5.14 -14.67,10.04 -19.8,14.66 -5.12,4.63 -9.1,9.25 -12.1,13.74 -2.85,4.49 -4.83,9.12 -5.83,13.74 -1,4.63 -1.42,9.51 -1.42,14.8zm17.09 -315.5c0,20.87 6.69,37.39 19.79,49.68 13.24,12.29 31.75,18.37 55.39,18.37 12.38,0 23.35,-1.86 32.75,-5.81 9.25,-3.83 16.94,-8.99 23.06,-15.46 6.12,-6.47 10.68,-13.86 13.81,-22.46 2.99,-8.45 4.56,-17.31 4.56,-26.69 0,-21.93 -6.55,-38.98 -19.79,-51.26 -13.25,-12.29 -31.6,-18.36 -55.24,-18.36 -12.53,0 -23.49,1.98 -32.75,5.81 -9.4,3.82 -17.09,9.11 -23.21,15.59 -6.12,6.61 -10.68,14.27 -13.8,23.12 -3,8.72 -4.56,17.97 -4.56,27.48zm624.06 -237.69c0,8.46 -1.71,16.51 -4.98,24.05 -3.28,7.4 -7.98,14.01 -13.96,19.55 -5.98,5.55 -12.96,9.91 -21.07,13.08 -8.11,3.3 -16.8,4.89 -26.34,4.89 -9.4,0 -18.22,-1.59 -26.48,-4.89 -8.12,-3.17 -15.24,-7.54 -21.22,-13.08 -5.98,-5.55 -10.68,-12.15 -13.95,-19.55 -3.42,-7.54 -4.99,-15.59 -4.99,-24.05 0,-8.45 1.57,-16.51 4.99,-24.04 3.27,-7.4 7.97,-14.01 13.95,-19.69 5.99,-5.68 13.1,-10.17 21.22,-13.34 8.26,-3.31 17.08,-4.9 26.48,-4.9 9.54,0 18.22,1.59 26.34,4.9 8.11,3.16 15.09,7.66 21.07,13.34 5.98,5.68 10.68,12.29 13.96,19.69 3.27,7.52 4.98,15.59 4.98,24.04zm-112.62 181.14l-119.75 0 0 -73.59 224.11 0 0 319.73 122.16 0 0 73.59 -360.8 0 0 -73.59 134.27 0 0 -246.14zm702.09 92.89c0,6.47 -0.14,14.79 -0.58,25.23 -0.42,10.3 -1.13,19.95 -1.99,28.94l-278.64 0c0,17.3 2.85,32.5 8.54,45.71 5.7,13.22 13.81,24.18 24.2,33.16 10.55,8.85 23.07,15.6 37.59,20.21 14.67,4.76 30.76,7 48.55,7 20.65,0 42.72,-1.44 66.21,-4.48 23.49,-2.91 47.84,-7.79 73.19,-14.4l0 75.04c-10.82,2.77 -22.65,5.41 -35.46,7.66 -12.81,2.38 -25.91,4.49 -39.29,6.22 -13.25,1.85 -26.77,3.16 -40.44,4.09 -13.52,0.92 -26.77,1.32 -39.58,1.32 -32.32,0 -61.22,-4.23 -86.71,-12.68 -25.63,-8.59 -47.26,-21.14 -65.07,-37.79 -17.79,-16.65 -31.47,-37.25 -41.01,-61.7 -9.4,-24.57 -14.09,-52.97 -14.09,-85.22 0,-31.97 4.69,-61.03 14.09,-87.2 9.54,-26.29 22.93,-48.75 40.15,-67.37 17.24,-18.76 38.16,-33.16 62.79,-43.34 24.49,-10.17 51.97,-15.33 82.3,-15.33 30.05,0 56.67,4.36 79.74,12.95 23.06,8.72 42.43,20.74 57.94,36.2 15.52,15.46 27.34,33.96 35.46,55.36 8.11,21.41 12.1,44.92 12.1,70.43zm-103.52 -13.48c0.28,-15.59 -1.71,-29.06 -6.12,-40.43 -4.56,-11.49 -10.53,-21.01 -18.22,-28.53 -7.69,-7.4 -16.52,-12.95 -26.63,-16.65 -10.26,-3.57 -21.08,-5.42 -32.75,-5.42 -25.63,0 -46.71,7.93 -63.08,23.79 -16.37,15.84 -26.06,38.32 -29.19,67.24l175.99 0zm553.58 124.6c0,22.46 -5.27,41.61 -15.95,57.47 -10.81,15.85 -24.91,28.8 -42.57,38.71 -17.66,9.92 -37.73,17.17 -60.09,21.67 -22.35,4.49 -45.27,6.74 -68.62,6.74 -31.18,0 -59.23,-1.32 -84.3,-3.97 -25.05,-2.77 -48.69,-6.73 -70.9,-11.89l0 -85.08c26.2,10.04 52.25,17.31 78.17,21.8 26.06,4.49 50.54,6.87 73.61,6.87 26.77,0 46.71,-3.96 59.94,-11.89 13.25,-7.79 19.79,-18.1 19.79,-30.79 0,-5.94 -1.42,-11.36 -4.12,-16.25 -2.86,-4.9 -7.98,-9.65 -15.67,-14.14 -7.69,-4.48 -18.5,-9.11 -32.32,-13.86 -13.96,-4.76 -32.18,-10.17 -54.67,-16.12 -20.79,-5.41 -39.16,-11.49 -54.82,-18.37 -15.8,-6.87 -28.76,-14.93 -39.02,-24.17 -10.25,-9.25 -18.08,-20.08 -23.2,-32.37 -5.12,-12.15 -7.69,-26.55 -7.69,-43.08 0,-15.98 3.84,-31.17 11.68,-45.31 7.82,-14.27 19.36,-26.69 34.88,-37.39 15.37,-10.7 34.59,-19.15 57.66,-25.37 23.2,-6.21 50.12,-9.25 81.01,-9.25 26.63,0 50.26,1.32 70.91,3.83 20.5,2.64 38.73,5.41 54.67,8.59l0 77.02c-24.2,-7.27 -46.98,-12.42 -68.2,-15.33 -21.36,-2.91 -42.44,-4.48 -63.22,-4.48 -20.94,0 -37.59,3.57 -50.26,10.43 -12.67,7 -19.08,16.65 -19.08,29.07 0,5.95 1.28,11.23 3.84,15.85 2.42,4.63 7.4,9.25 14.8,13.61 7.41,4.36 17.66,8.99 30.9,13.74 13.1,4.75 30.61,9.91 52.25,15.59 24.49,6.47 45.14,13.48 61.8,20.75 16.66,7.39 30.04,15.72 40.29,24.97 10.1,9.25 17.37,19.95 21.78,31.71 4.56,11.9 6.69,25.5 6.69,40.7z"/>
   </g>
   <path class="fil8" d="M12595.22 4748.47l-93.25 -196.73c-8.79,-18.71 -21.02,-32.78 -36.71,-42.38 -15.68,-9.42 -34.13,-14.23 -55.16,-14.23l-23.78 0 0 253.33 -124.11 0 0 -612.25 192.37 0c36.36,0 69.46,2.89 99.11,8.64 29.46,5.75 54.8,15.35 75.65,28.8 20.85,13.42 36.89,31.01 48.26,52.44 11.21,21.61 16.91,48 16.91,79.18 0,22.56 -3.63,42.55 -10.7,59.98 -7.06,17.43 -17.07,32.63 -29.82,45.25 -12.92,12.63 -28.08,22.87 -45.84,30.54 -17.75,7.85 -36.89,13.3 -57.92,16.48 16.21,3.21 31.04,11.68 44.48,25.58 13.44,13.92 27.06,34.06 40.5,60.14l106 205.21 -146 0zm-31.02 -432c0,-30.06 -10.34,-51.49 -30.86,-64.6 -20.5,-13.12 -51.37,-19.69 -92.38,-19.69l-54.63 0 0 172.73 50.5 0c19.31,0 36.71,-1.92 52.4,-5.6 15.68,-3.84 28.96,-9.44 40.16,-16.78 11.04,-7.52 19.65,-16.81 25.68,-28 6.05,-11.04 9.14,-23.67 9.14,-38.07zm708.23 408c-29.29,11.04 -57.56,19.19 -84.97,24.64 -27.57,5.29 -56.01,7.99 -85.66,7.99 -47.41,0 -89.45,-6.55 -125.83,-19.51 -36.53,-12.94 -67.38,-32.13 -92.38,-57.88 -25.17,-25.58 -44.12,-57.44 -57.05,-95.32 -12.94,-37.91 -19.47,-82.06 -19.47,-132.44 0,-51.49 7.06,-97.4 21.19,-137.55 14.13,-40.14 34.3,-74.04 60.5,-101.71 26.38,-27.67 58.25,-48.79 95.67,-63.34 37.56,-14.56 79.81,-21.74 126.49,-21.74 15.18,0 29.32,0.31 42.59,0.95 13.44,0.64 26.37,1.76 39.12,3.52 12.92,1.77 25.86,4 38.94,6.72 13.11,2.88 26.72,6.57 40.85,10.89l0 114.19c-28.59,-12.47 -55.84,-21.28 -81.7,-26.54 -25.84,-5.29 -49.46,-8.01 -70.65,-8.01 -31.2,0 -57.92,5.29 -80.16,15.68 -22.23,10.56 -40.5,25.11 -54.82,44.15 -14.11,18.86 -24.65,41.25 -31.37,67.48 -6.72,26.08 -10.15,54.7 -10.15,85.89 0,33.11 3.43,62.69 10.34,88.93 6.9,26.08 17.58,48.15 32.06,66.22 14.47,18.22 32.92,31.99 55.49,41.58 22.41,9.44 49.29,14.24 80.17,14.24 11.03,0 23.09,-0.97 36.01,-3.05 12.93,-2.07 26.03,-4.64 39.31,-7.98 13.45,-3.21 26.53,-7.22 39.48,-11.68 12.92,-4.49 24.98,-9.11 36.01,-13.76l0 107.47zm346.28 -456.77c12.75,0 24.81,2.24 35.85,6.55 11.21,4.32 20.85,10.4 28.77,18.07 8.1,7.68 14.66,16.64 19.31,27.03 4.67,10.24 7.08,21.28 7.08,32.8 0,11.83 -2.41,23.02 -7.08,33.26 -4.65,10.39 -11.21,19.35 -19.31,26.72 -7.92,7.49 -17.57,13.58 -28.77,17.9 -11.04,4.33 -23.1,6.57 -35.85,6.57 -12.75,0 -24.65,-2.24 -35.68,-6.57 -10.86,-4.32 -20.52,-10.4 -28.79,-17.9 -8.28,-7.37 -14.83,-16.33 -19.47,-26.72 -4.65,-10.25 -7.06,-21.43 -7.06,-33.26 0,-11.52 2.41,-22.56 7.06,-32.8 4.64,-10.39 11.19,-19.35 19.47,-27.03 8.27,-7.67 17.93,-13.75 28.79,-18.07 11.03,-4.31 22.93,-6.55 35.68,-6.55zm0 322.42c12.75,0 24.81,2.24 35.85,6.56 11.21,4.33 20.85,10.41 28.77,17.92 8.1,7.36 14.66,16.32 19.31,26.71 4.67,10.25 7.08,21.28 7.08,32.78 0,11.85 -2.41,23.05 -7.08,33.29 -4.65,10.4 -11.21,19.36 -19.31,27.03 -7.92,7.68 -17.57,13.76 -28.77,18.07 -11.04,4.32 -23.1,6.55 -35.85,6.55 -12.75,0 -24.65,-2.23 -35.68,-6.55 -10.86,-4.31 -20.52,-10.39 -28.79,-18.07 -8.28,-7.67 -14.83,-16.63 -19.47,-27.03 -4.65,-10.24 -7.06,-21.43 -7.06,-33.29 0,-11.5 2.41,-22.53 7.06,-32.78 4.64,-10.39 11.19,-19.35 19.47,-26.71 8.27,-7.5 17.93,-13.59 28.79,-17.92 11.03,-4.32 22.93,-6.56 35.68,-6.56zm360.76 158.34l0 -101.72 168.56 0 0 -393.6 -146.68 75 -40.5 -93.09 209.92 -102.67 103.42 0 0 514.36 144.8 0 0 101.72 -439.52 0zm557.23 0l0 -84.44 155.99 -144.76c29.13,-27.18 52.56,-50.54 70.32,-70.2 17.59,-19.69 31.2,-37.26 40.85,-52.78 9.66,-15.52 15.85,-29.74 18.95,-42.86 2.94,-13.11 4.48,-26.72 4.48,-40.78 0,-11.52 -2.05,-22.56 -6.03,-32.96 -4.12,-10.56 -9.99,-19.51 -17.73,-27.18 -7.61,-7.68 -17.43,-13.76 -29.15,-18.4 -11.9,-4.47 -25.34,-6.72 -40.5,-6.72 -25.86,0 -49.81,5.28 -72.05,15.68 -22.21,10.39 -43.26,24.46 -63.07,41.91l-65.17 -77.74c28.63,-24.79 60.85,-44.46 96.7,-59.34 35.85,-14.86 74.63,-22.22 116.34,-22.22 32.42,0 61.55,3.84 87.91,11.52 26.19,7.67 48.6,18.86 67.41,33.9 18.62,15.04 33.09,33.75 43.43,56.29 10.17,22.4 15.35,48.46 15.35,77.73 0,24.46 -3.45,47.18 -10.53,68.3 -7.05,20.95 -17.4,41.58 -30.84,61.57 -13.44,20 -29.99,39.96 -49.82,59.96 -19.64,20 -42.05,41.12 -67.38,63.19l-95.84 84.75 278.19 0 0 105.57 -447.8 0zm750.64 0l-139.43 0 262.33 -501.89 -316.3 0 0 -110.36 458.14 0 0 99.65 -264.75 512.6zm863.35 -309c0,50.38 -5.87,95.32 -17.76,134.98 -11.7,39.68 -28.94,73.1 -51.7,100.45 -22.74,27.35 -50.31,48.13 -83.07,62.53 -32.57,14.4 -69.97,21.59 -112.04,21.59 -36.38,0 -69.8,-5.91 -100.49,-17.74 -30.68,-11.84 -57.04,-30.56 -79.28,-55.97 -22.23,-25.43 -39.47,-58.06 -52.06,-97.73 -12.41,-39.66 -18.62,-87.17 -18.62,-142.35 0,-50.37 6.03,-95.31 17.93,-134.99 11.9,-39.66 29.13,-73.1 51.73,-100.43 22.57,-27.36 50.31,-48.15 83.42,-62.55 32.91,-14.38 70.31,-21.59 112.03,-21.59 36.37,0 69.81,5.93 100.48,17.76 30.68,11.83 56.87,30.54 78.94,55.82 22.05,25.27 39.28,57.73 51.87,97.39 12.42,39.68 18.62,87.33 18.62,142.83zm-390.91 2.23c0,6.25 0,12.16 0,17.61 0,5.44 0.34,11.04 1.03,16.64l247.68 -166.01c-11.88,-31.03 -27.39,-53.9 -46.86,-68.79 -19.31,-14.86 -42.07,-22.38 -68.44,-22.38 -18.8,0 -36.37,4.46 -52.58,13.42 -16.2,8.8 -30.15,22.56 -42.23,40.94 -11.88,18.55 -21.36,41.75 -28.24,69.58 -6.92,27.82 -10.35,60.78 -10.35,98.99zm266.82 1.77c0,-5.29 -0.16,-10.56 -0.53,-16.16 -0.33,-5.42 -0.52,-10.71 -0.52,-15.67l-246.13 165.07c10.86,30.21 26.03,52.61 45.5,67.32 19.64,14.56 42.4,21.93 68.26,21.93 18.78,0 36.54,-4.49 52.73,-13.61 16.38,-8.96 30.51,-22.71 42.59,-40.94 11.9,-18.24 21.19,-41.42 27.91,-69.24 6.72,-28.01 10.17,-60.78 10.17,-98.69zm397.98 305l-139.44 0 262.34 -501.89 -316.3 0 0 -110.36 458.14 0 0 99.65 -264.75 512.6zm850.95 -194.17c0,31.03 -6.03,59.02 -18.11,84.13 -12.23,25.11 -28.94,46.7 -50.31,64.61 -21.38,17.92 -46.72,31.82 -76.37,41.43 -29.63,9.75 -62.05,14.54 -97.36,14.54 -77.06,0 -136.01,-22.53 -176.67,-67.48 -40.69,-44.94 -61.02,-113.57 -61.02,-206 0,-33.75 2.25,-65.74 6.54,-96.3 4.32,-30.39 11.73,-58.37 21.9,-84.27 10.35,-25.76 24.12,-48.94 41.54,-69.91 17.24,-20.95 38.95,-38.71 64.81,-53.25 25.84,-14.38 56.52,-25.75 91.87,-33.58 35.33,-8 76.34,-12 123.23,-12l75.15 0 0 96.93 -87.73 0c-36.36,0 -66.86,3.37 -91.34,10.23 -24.65,6.88 -44.64,16.8 -60.16,29.59 -15.51,12.8 -27.06,28.31 -34.82,46.71 -7.75,18.38 -12.75,39.17 -15.16,62.37l-1.03 11.35c17.58,-7.83 37.4,-14.23 59.81,-19.36 22.41,-4.96 45.84,-7.49 70.31,-7.49 35.69,0 67.05,4.31 93.94,12.94 26.88,8.49 49.29,20.97 67.22,37.11 18.11,16.32 31.55,35.99 40.35,59.01 8.97,23.19 13.44,49.43 13.44,78.69zm-128.23 5.12c0,-14.24 -2.07,-27.51 -6.05,-39.52 -4.12,-11.99 -10.32,-22.38 -18.95,-31.01 -8.63,-8.49 -19.47,-15.19 -32.75,-20.17 -13.28,-4.79 -29.13,-7.18 -47.58,-7.18 -10.84,0 -21.54,0.79 -32.06,2.57 -10.5,1.74 -20.85,3.98 -30.68,6.88 -9.99,2.88 -19.3,5.91 -28.27,9.42 -8.96,3.52 -16.9,7.04 -23.96,10.89 0,31.51 2.41,58.06 7.06,79.8 4.67,21.76 11.9,39.35 21.38,53.11 9.65,13.75 21.54,23.67 35.85,29.75 14.3,6.08 30.86,9.11 49.64,9.11 16.2,0 30.68,-2.55 43.78,-7.5 13.09,-4.97 24.3,-12.16 33.62,-21.28 9.13,-9.29 16.37,-20.15 21.36,-32.8 5,-12.63 7.6,-26.7 7.6,-42.05zm675.15 -6.72c0,32.78 -7.41,61.89 -22.25,87.48 -14.82,25.43 -35.34,46.87 -61.54,64.47 -26.36,17.43 -57.22,30.71 -92.91,39.82 -35.66,9.11 -74.46,13.6 -116.17,13.6 -10.51,0 -21.52,-0.33 -33.25,-0.97 -11.9,-0.63 -23.78,-1.44 -35.85,-2.39 -12.25,-0.95 -23.95,-2.24 -35.34,-3.67 -11.55,-1.44 -22.06,-2.88 -31.89,-4.49l0 -99.79c19.31,4.32 41.38,7.83 66.19,10.4 25,2.72 50.51,4 76.36,4 50.68,0 89.1,-8.96 115.66,-26.87 26.36,-18.07 39.64,-43.02 39.64,-74.85 0,-33.11 -12.23,-57.75 -36.87,-73.73 -24.65,-16.14 -64.31,-24.15 -119.28,-24.15l-129.29 0 0 -325.32 380.59 0 0 107.48 -265.8 0 0 124.74 47.41 0c33.78,0 65.84,2.9 96.52,8.49 30.7,5.6 57.58,15.35 81.01,29.27 23.45,13.91 42.07,32.78 56.01,56.46 13.97,23.82 21.05,53.73 21.05,90.04z"/>
  </g>
 </g>
</svg>
