<?xml version="1.0" encoding="UTF-8"?>
<!DOCTYPE svg PUBLIC "-//W3C//DTD SVG 1.1//EN" "http://www.w3.org/Graphics/SVG/1.1/DTD/svg11.dtd">
<!-- Creator: CorelDRAW -->
<svg xmlns="http://www.w3.org/2000/svg" xml:space="preserve" width="329.306mm" height="54.9255mm" version="1.1" style="shape-rendering:geometricPrecision; text-rendering:geometricPrecision; image-rendering:optimizeQuality; fill-rule:evenodd; clip-rule:evenodd"
viewBox="0 0 33129.11 5525.66"
 xmlns:xlink="http://www.w3.org/1999/xlink"
 xmlns:xodm="http://www.corel.com/coreldraw/odm/2003">
 <defs>
  <style type="text/css">
   <![CDATA[
    .fil1 {fill:#ED3237;fill-rule:nonzero}
    .fil0 {fill:#175663;fill-rule:nonzero}
   ]]>
  </style>
 </defs>
 <g id="Layer_x0020_1">
  <metadata id="CorelCorpID_0Corel-Layer"/>
  <path class="fil0" d="M559.87 3321.86c83.1,196.32 186.98,346.94 311.63,452.89 124.64,104.9 262.78,157.88 412.35,157.88 154.8,0 281.51,-45.71 380.21,-137.12 99.72,-90.35 149.57,-205.67 149.57,-342.76 0,-112.19 -37.4,-212.96 -112.19,-303.32 -74.79,-89.34 -197.36,-181.79 -367.69,-274.21l-162.05 -88.32c-369.79,-197.35 -592.08,-328.21 -666.87,-392.61 -154.76,-134 -263.84,-268.02 -328.25,-400.96 -63.35,-132.96 -95.54,-288.77 -95.54,-466.38 0,-392.62 131.9,-712.56 394.73,-960.83 262.78,-248.24 605.55,-372.88 1027.3,-372.88 297.08,0 556.75,67.49 780.08,202.55 223.31,135.02 397.8,329.26 523.51,583.74l-463.28 323.06c-81.03,-195.29 -183.86,-341.75 -308.5,-439.39 -124.65,-97.65 -273.2,-146.45 -445.63,-146.45 -143.33,0 -262.78,44.67 -357.31,134 -94.53,89.34 -141.27,201.5 -141.27,335.5 0,113.22 39.48,212.94 117.38,298.13 77.91,85.17 227.48,184.89 450.79,299.15l75.83 39.48c416.53,206.69 666.87,344.83 752.04,416.53 150.62,123.59 258.65,253.43 325.12,390.55 65.46,137.09 98.7,296.02 98.7,478.84 0,399.91 -139.19,725.03 -418.63,976.42 -279.41,251.36 -641.92,377.05 -1088.59,377.05 -318.88,0 -600.36,-69.6 -844.46,-209.84 -245.14,-140.21 -431.07,-337.57 -558.84,-593.1l559.87 -337.57zm4632.73 1034.56l-725.03 -1302.57 813.32 -1396.05 535.98 0 -581.71 1028.35 928.65 1670.26 -971.21 0zm-1646.38 0l0 -4356.42 878.75 0 0 4356.42 -878.75 0zm2960.34 0l0 -2698.61 878.79 0 0 2698.61 -878.79 0zm-18.68 -3806.93c0,-127.77 44.67,-236.81 135.02,-327.19 90.39,-90.36 198.41,-135.03 325.13,-135.03 129.86,0 238.9,44.67 328.24,134 89.35,89.31 134.01,198.38 134.01,328.22 0,128.81 -44.67,236.84 -135.06,326.17 -90.35,89.34 -199.43,134 -327.19,134 -126.72,0 -234.74,-44.67 -325.13,-135.05 -90.35,-90.36 -135.02,-198.39 -135.02,-325.13zm2605.13 2972.82c0,166.23 28.05,279.43 83.1,339.68 56.1,59.21 163.07,89.34 320.95,89.34l219.2 0 0 405.1 -747.9 0c-277.33,0 -472.62,-60.23 -585.84,-179.69 -112.19,-119.46 -168.26,-333.44 -168.26,-641.94l0 -3534.79 878.75 0 0 3522.31zm1908.14 0c0,166.23 28.05,279.43 83.1,339.68 56.1,59.21 163.08,89.34 320.95,89.34l219.2 0 0 405.1 -747.89 0c-277.34,0 -472.63,-60.23 -585.84,-179.69 -112.2,-119.46 -168.27,-333.44 -168.27,-641.94l0 -3534.79 878.75 0 0 3522.31zm773.88 834.11l0 -179.69 1027.3 -2126.27 -1046.02 0 0 -392.65 1620.43 0c138.15,0 236.81,20.79 297.08,61.29 59.18,40.5 89.31,106.98 89.31,200.48 0,44.67 -6.21,90.36 -18.69,137.1 -11.43,46.76 -29.06,92.45 -50.87,137.12l-872.54 1776.21 1104.16 0 0 386.41 -2150.14 0zm2799.35 -2100.29l130.88 -1457.33c20.78,-206.72 67.52,-357.34 143.36,-451.87 74.79,-94.53 183.83,-141.26 325.13,-141.26 126.71,0 234.74,41.55 325.09,124.64 90.39,83.1 135.06,182.82 135.06,298.13 0,59.22 -12.48,121.53 -36.36,189.05 -24.93,66.48 -60.24,134 -107.01,203.57l-803.96 1235.07 -112.19 0zm2206.27 341.72l0 1758.57 -436.26 0 0 -2260.26c0,-181.77 36.36,-314.72 108.02,-398.86 71.67,-84.15 182.82,-126.72 332.38,-126.72 123.63,0 233.72,35.31 330.32,105.92 97.65,69.6 196.31,188.04 298.13,355.25l601.41 979.54 0 -1353.48 436.26 0 0 2348.56c0,162.05 -23.88,277.33 -71.67,346.93 -47.79,68.55 -126.74,102.84 -234.77,102.84 -82.04,0 -155.78,-27 -223.31,-82.04 -67.52,-55.08 -150.62,-157.89 -248.27,-309.56l-892.25 -1466.69zm2610.29 -341.72l130.88 -1457.33c20.79,-206.72 67.52,-357.34 143.36,-451.87 74.79,-94.53 183.83,-141.26 325.13,-141.26 126.72,0 234.74,41.55 325.1,124.64 90.38,83.1 135.05,182.82 135.05,298.13 0,59.22 -12.47,121.53 -36.36,189.05 -24.93,66.48 -60.24,134 -107,203.57l-803.97 1235.07 -112.19 0zm5621.58 1107.28c-170.33,355.25 -413.41,626.34 -729.17,812.27 -314.75,186.98 -687.63,280.46 -1117.66,280.46 -278.39,0 -535.98,-39.48 -772.82,-118.4 -237.87,-78.96 -450.82,-196.35 -639.84,-350.06 -253.46,-204.62 -443.56,-443.53 -570.27,-716.73 -126.72,-273.2 -190.1,-575.46 -190.1,-907.85 0,-633.63 206.72,-1151.94 619.08,-1557.04 413.44,-404.08 944.2,-606.64 1593.4,-606.64 372.91,0 698.03,74.79 975.38,223.35 276.32,149.57 516.24,380.17 719.84,691.8l-517.3 381.18c-123.59,-263.83 -275.26,-462.21 -452.88,-594.15 -178.64,-131.9 -382.24,-197.33 -611.79,-197.33 -351.1,0 -622.21,141.27 -815.43,424.85 -192.14,282.52 -288.76,682.44 -288.76,1199.7 0,476.8 110.12,861.11 331.36,1153 221.25,291.88 511.06,438.34 870.45,438.34 226.46,0 433.15,-73.74 620.13,-220.22 186.98,-147.47 350.06,-364.57 489.24,-653.34l487.15 316.81zm1114.57 993.01c-208.79,0 -356.3,-45.71 -442.51,-138.14 -86.22,-92.45 -128.78,-252.41 -128.78,-479.89l0 -1462.55c0,-227.47 42.57,-387.43 128.78,-479.89 86.22,-92.42 233.72,-138.15 442.51,-138.15l1255.8 0 0 405.11 -667.88 0c-112.19,0 -186.98,19.74 -224.36,60.23 -37.4,40.53 -56.1,121.56 -56.1,241.01l0 440.41 847.61 0 0 405.1 -847.61 0 0 449.77c0,117.38 18.69,195.29 55.05,233.72 36.36,38.43 111.15,58.17 225.41,58.17l710.49 0 0 405.1 -1298.4 0zm1991.21 0l0 -2698.61 1176.87 0c362.53,0 638.82,68.55 827.87,205.67 188,136.08 282.52,335.51 282.52,597.27 0,180.74 -41.55,328.25 -125.69,441.47 -84.11,113.21 -210.85,193.19 -379.12,239.93l791.51 1214.28 -1028.35 0 -612.83 -1271.4 0 -48.8c169.3,-24.93 291.88,-78.96 370.81,-163.11 77.91,-84.11 117.38,-204.62 117.38,-360.43 0,-157.89 -41.55,-278.39 -124.65,-359.38 -84.14,-81.03 -206.69,-121.55 -369.8,-121.55 -23.87,0 -43.61,0 -58.17,1.05 -14.52,1.05 -26.99,3.12 -39.48,5.19l0 2318.43 -828.89 0zm3409.1 0l0 -2237.41 -722.97 0 0 -461.2 2324.68 0 0 461.2 -722.96 0 0 2237.41 -878.75 0z"/>
  <g id="_2153144348192">
   <path class="fil1" d="M3018.62 5241.28l0 69.2 -535.29 0 0 -756.96 519.06 0 0 69.19 -439.03 0 0 269.26 391.45 0 0 68.13 -391.45 0 0 281.16 455.26 0zm881.3 -503.91c71.37,0 127.43,20.53 168.16,61.61 40.73,41.11 61.1,101.67 61.1,181.67l0 329.84 -76.78 0 0 -322.24c0,-59.11 -14.24,-104.17 -42.72,-135.18 -28.48,-30.99 -68.66,-46.5 -120.56,-46.5 -59.11,0 -105.6,18.19 -139.51,54.62 -33.86,36.4 -50.82,86.67 -50.82,150.84l0 298.46 -76.76 0 0 -322.24c0,-59.11 -14.26,-104.17 -42.72,-135.18 -28.48,-30.99 -69.04,-46.5 -121.67,-46.5 -58.39,0 -104.71,18.19 -138.95,54.62 -34.24,36.4 -51.35,86.67 -51.35,150.84l0 298.46 -76.79 0 0 -568.8 73.54 0 0 103.81c20.18,-34.61 48.28,-61.28 84.36,-80.03 36.04,-18.75 77.47,-28.1 124.35,-28.1 47.59,0 88.84,10.09 123.81,30.27 34.97,20.18 61.11,50.09 78.4,89.74 20.92,-37.47 51.01,-66.85 90.29,-88.13 39.3,-21.26 84.17,-31.88 134.63,-31.88zm730.99 0c53.37,0 101.67,12.05 144.92,36.22 43.25,24.14 77.14,58.22 101.64,102.18 24.53,43.98 36.76,94.07 36.76,150.3 0,56.96 -12.23,107.41 -36.76,151.4 -24.5,43.99 -58.22,78.04 -101.11,102.2 -42.89,24.14 -91.37,36.23 -145.45,36.23 -46.13,0 -87.77,-9.56 -124.88,-28.66 -37.14,-19.1 -67.6,-47.05 -91.38,-83.81l0 316.85 -76.78 0 0 -778.59 73.54 0 0 112.44c23.07,-37.47 53.51,-66.31 91.37,-86.49 37.84,-20.18 80.57,-30.27 128.13,-30.27zm-5.38 510.4c39.64,0 75.68,-9.2 108.13,-27.59 32.43,-18.37 57.86,-44.53 76.22,-78.4 18.4,-33.87 27.6,-72.44 27.6,-115.71 0,-43.25 -9.2,-81.64 -27.6,-115.15 -18.36,-33.52 -43.78,-59.65 -76.22,-78.4 -32.44,-18.75 -68.49,-28.12 -108.13,-28.12 -40.39,0 -76.61,9.37 -108.69,28.12 -32.08,18.75 -57.32,44.88 -75.69,78.4 -18.39,33.51 -27.59,71.9 -27.59,115.15 0,43.27 9.2,81.84 27.59,115.71 18.37,33.87 43.61,60.03 75.69,78.4 32.08,18.39 68.3,27.59 108.69,27.59zm678.01 68.13c-54.79,0 -104.19,-12.44 -148.15,-37.32 -43.99,-24.85 -78.58,-59.29 -103.81,-103.27 -25.24,-43.96 -37.86,-93.7 -37.86,-149.23 0,-55.5 12.62,-105.24 37.86,-149.22 25.23,-43.96 59.82,-78.22 103.81,-102.72 43.95,-24.53 93.36,-36.76 148.15,-36.76 54.77,0 104.17,12.23 148.14,36.76 43.98,24.5 78.39,58.75 103.27,102.72 24.89,43.98 37.3,93.72 37.3,149.22 0,55.53 -12.41,105.27 -37.3,149.23 -24.88,43.98 -59.29,78.42 -103.27,103.27 -43.96,24.88 -93.37,37.32 -148.14,37.32zm0 -68.13c40.36,0 76.59,-9.2 108.67,-27.59 32.08,-18.37 57.14,-44.53 75.15,-78.4 18.04,-33.87 27.02,-72.44 27.02,-115.71 0,-43.25 -8.98,-81.82 -27.02,-115.69 -18.01,-33.89 -43.07,-60.03 -75.15,-78.39 -32.08,-18.39 -68.31,-27.59 -108.67,-27.59 -40.38,0 -76.6,9.2 -108.69,27.59 -32.08,18.36 -57.31,44.5 -75.68,78.39 -18.39,33.87 -27.59,72.44 -27.59,115.69 0,43.27 9.2,81.84 27.59,115.71 18.37,33.87 43.6,60.03 75.68,78.4 32.09,18.39 68.31,27.59 108.69,27.59zm1264.12 -506.08l-215.19 568.8 -72.46 0 -179.51 -466.08 -179.5 466.08 -72.44 0 -214.11 -568.8 73.52 0 178.42 483.38 182.78 -483.38 65.96 0 181.67 483.38 180.57 -483.38 70.3 0zm594.74 308.19l-475.79 0c4.32,59.11 27.03,106.88 68.13,143.28 41.11,36.41 93.01,54.62 155.72,54.62 35.32,0 67.77,-6.31 97.32,-18.92 29.55,-12.63 55.15,-31.2 76.78,-55.69l43.25 49.74c-25.24,30.27 -56.79,53.34 -94.62,69.19 -37.86,15.87 -79.5,23.81 -124.91,23.81 -58.4,0 -110.12,-12.44 -155.18,-37.32 -45.04,-24.85 -80.19,-59.29 -105.42,-103.27 -25.24,-43.96 -37.86,-93.7 -37.86,-149.23 0,-55.5 12.08,-105.24 36.22,-149.22 24.16,-43.96 57.32,-78.22 99.5,-102.72 42.17,-24.53 89.59,-36.76 142.2,-36.76 52.63,0 99.86,12.23 141.67,36.76 41.79,24.5 74.59,58.57 98.4,102.17 23.78,43.63 35.68,93.54 35.68,149.77l-1.1 23.8zm-274.66 -246.55c-54.79,0 -100.74,17.47 -137.89,52.44 -37.11,34.97 -58.19,80.56 -63.25,136.79l403.35 0c-5.03,-56.23 -26.14,-101.82 -63.25,-136.79 -37.14,-34.97 -83.45,-52.44 -138.96,-52.44zm506.08 49.74c18.01,-38.22 44.86,-67.06 80.54,-86.5 35.68,-19.47 79.85,-29.19 132.47,-29.19l0 74.59 -18.37 -1.07c-59.85,0 -106.7,18.39 -140.59,55.14 -33.87,36.76 -50.8,88.31 -50.8,154.65l0 289.81 -76.79 0 0 -568.8 73.54 0 0 111.38zm351.44 -111.38l76.79 0 0 568.8 -76.79 0 0 -568.8zm38.93 -124.35c-15.87,0 -29.19,-5.42 -40,-16.23 -10.83,-10.82 -16.23,-23.8 -16.23,-38.92 0,-14.44 5.39,-27.05 16.23,-37.86 10.8,-10.8 24.13,-16.23 40,-16.23 15.87,0 29.19,5.24 40,15.68 10.83,10.45 16.23,22.89 16.23,37.29 0,15.87 -5.39,29.21 -16.23,40.03 -10.8,10.8 -24.13,16.23 -40,16.23zm541.77 120.03c71.37,0 128.16,20.71 170.33,62.17 42.17,41.44 63.25,101.82 63.25,181.11l0 329.84 -76.79 0 0 -322.24c0,-59.11 -14.76,-104.17 -44.32,-135.18 -29.56,-30.99 -71.73,-46.5 -126.52,-46.5 -61.29,0 -109.77,18.19 -145.45,54.62 -35.68,36.4 -53.52,86.67 -53.52,150.84l0 298.46 -76.78 0 0 -568.8 73.54 0 0 104.89c20.9,-34.62 49.91,-61.46 87.03,-80.57 37.14,-19.1 80.21,-28.63 129.22,-28.63zm971.07 4.32l0 499.59c0,96.58 -23.61,168.14 -70.83,214.65 -47.21,46.49 -118.4,69.74 -213.55,69.74 -52.65,0 -102.56,-7.74 -149.8,-23.25 -47.2,-15.5 -85.59,-36.93 -115.15,-64.35l38.93 -58.39c27.37,24.53 60.74,43.63 100.03,57.32 39.29,13.69 80.56,20.53 123.81,20.53 72.08,0 125.06,-16.75 158.96,-50.27 33.87,-33.54 50.8,-85.62 50.8,-156.26l0 -72.46c-23.78,36.05 -54.95,63.45 -93.52,82.2 -38.57,18.72 -81.28,28.1 -128.15,28.1 -53.34,0 -101.82,-11.7 -145.45,-35.12 -43.6,-23.45 -77.86,-56.26 -102.72,-98.43 -24.88,-42.17 -37.32,-89.91 -37.32,-143.27 0,-53.34 12.44,-100.93 37.32,-142.75 24.86,-41.82 58.93,-74.25 102.18,-97.32 43.27,-23.07 91.93,-34.59 145.98,-34.59 48.3,0 91.93,9.73 130.85,29.19 38.93,19.44 70.28,47.57 94.05,84.33l0 -109.2 73.55 0zm-290.87 479.03c41.08,0 78.21,-8.81 111.37,-26.49 33.16,-17.66 58.93,-42.35 77.32,-74.07 18.37,-31.7 27.57,-67.75 27.57,-108.13 0,-40.36 -9.2,-76.23 -27.57,-107.59 -18.39,-31.37 -43.98,-55.86 -76.78,-73.54 -32.81,-17.66 -70.12,-26.49 -111.91,-26.49 -41.11,0 -78.04,8.65 -110.86,25.95 -32.8,17.29 -58.39,41.82 -76.76,73.54 -18.39,31.73 -27.59,67.78 -27.59,108.14 0,40.38 9.2,76.43 27.59,108.13 18.37,31.72 43.96,56.42 76.76,74.07 32.83,17.68 69.76,26.49 110.86,26.49zm1014.28 96.25c-56.22,0 -110.12,-9.01 -161.67,-27.02 -51.52,-18.04 -91.37,-41.81 -119.47,-71.37l31.34 -61.64c27.41,27.38 63.81,49.56 109.23,66.49 45.41,16.94 92.26,25.42 140.56,25.42 67.78,0 118.6,-12.44 152.47,-37.29 33.9,-24.89 50.83,-57.14 50.83,-96.79 0,-30.3 -9.2,-54.44 -27.59,-72.47 -18.37,-18.01 -40.9,-31.87 -67.56,-41.61 -26.69,-9.73 -63.81,-20.38 -111.4,-31.9 -56.94,-14.44 -102.35,-28.31 -136.26,-41.64 -33.87,-13.33 -62.89,-33.69 -87.05,-61.11 -24.14,-27.37 -36.23,-64.52 -36.23,-111.37 0,-38.22 10.09,-73.01 30.3,-104.35 20.18,-31.37 51.17,-56.43 92.98,-75.15 41.82,-18.75 93.72,-28.13 155.72,-28.13 43.27,0 85.62,5.96 127.05,17.83 41.46,11.91 77.32,28.31 107.59,49.22l-27.02 63.78c-31.73,-20.9 -65.6,-36.58 -101.65,-47.02 -36.04,-10.47 -71.37,-15.68 -105.98,-15.68 -66.32,0 -116.26,12.8 -149.77,38.39 -33.51,25.59 -50.27,58.57 -50.27,98.93 0,30.27 9.16,54.62 27.57,73.01 18.39,18.37 41.46,32.44 69.19,42.17 27.77,9.73 65.06,20.36 111.93,31.88 55.51,13.71 100.39,27.22 134.63,40.56 34.26,13.33 63.27,33.51 87.05,60.56 23.78,27.03 35.68,63.61 35.68,109.74 0,38.22 -10.27,73.01 -30.8,104.38 -20.56,31.34 -52.08,56.23 -94.62,74.62 -42.56,18.36 -94.82,27.56 -156.82,27.56zm739.66 -41.1c-14.41,12.98 -32.26,22.89 -53.51,29.76 -21.29,6.85 -43.45,10.27 -66.52,10.27 -53.34,0 -94.44,-14.44 -123.28,-43.27 -28.84,-28.84 -43.25,-69.56 -43.25,-122.18l0 -343.88 -101.64 0 0 -64.88 101.64 0 0 -124.35 76.79 0 0 124.35 173.01 0 0 64.88 -173.01 0 0 339.53c0,33.9 8.45,59.68 25.39,77.32 16.96,17.68 41.28,26.49 73,26.49 15.87,0 31.2,-2.51 45.96,-7.56 14.79,-5.06 27.6,-12.26 38.4,-21.64l27.02 55.15zm652.07 -534.18l0 568.8 -73.54 0 0 -103.81c-20.18,34.61 -47.95,61.46 -83.25,80.56 -35.33,19.1 -75.71,28.66 -121.14,28.66 -74.25,0 -132.83,-20.74 -175.71,-62.17 -42.89,-41.46 -64.35,-102.2 -64.35,-182.23l0 -329.81 76.78 0 0 322.24c0,59.85 14.77,105.24 44.35,136.26 29.56,31.01 71.73,46.49 126.53,46.49 59.82,0 107.05,-18.19 141.64,-54.59 34.61,-36.43 51.9,-87.06 51.9,-151.94l0 -298.46 76.79 0zm734.24 -233.58l0 802.38 -73.54 0 0 -112.47c-23.07,38.21 -53.51,67.41 -91.37,87.58 -37.86,20.21 -80.57,30.3 -128.13,30.3 -53.37,0 -101.67,-12.26 -144.92,-36.79 -43.25,-24.5 -77.14,-58.74 -101.64,-102.71 -24.52,-43.99 -36.78,-94.08 -36.78,-150.33 0,-56.23 12.26,-106.32 36.78,-150.3 24.5,-43.96 58.39,-78.04 101.64,-102.18 43.25,-24.16 91.55,-36.22 144.92,-36.22 46.13,0 87.77,9.53 124.88,28.63 37.12,19.11 67.6,47.05 91.38,83.81l0 -341.71 76.78 0zm-286.55 739.66c39.64,0 75.5,-9.2 107.58,-27.59 32.08,-18.37 57.3,-44.53 75.69,-78.4 18.39,-33.87 27.56,-72.44 27.56,-115.71 0,-43.25 -9.16,-81.82 -27.56,-115.69 -18.39,-33.89 -43.61,-60.03 -75.69,-78.39 -32.08,-18.39 -67.95,-27.59 -107.58,-27.59 -40.39,0 -76.61,9.2 -108.69,27.59 -32.09,18.36 -57.32,44.5 -75.69,78.39 -18.39,33.87 -27.59,72.44 -27.59,115.69 0,43.27 9.2,81.84 27.59,115.71 18.37,33.87 43.6,60.03 75.69,78.4 32.08,18.39 68.3,27.59 108.69,27.59zm995.92 -197.9l-475.79 0c4.32,59.11 27.02,106.88 68.13,143.28 41.1,36.41 93.01,54.62 155.71,54.62 35.33,0 67.78,-6.31 97.32,-18.92 29.56,-12.63 55.15,-31.2 76.79,-55.69l43.25 49.74c-25.24,30.27 -56.79,53.34 -94.62,69.19 -37.86,15.87 -79.5,23.81 -124.92,23.81 -58.39,0 -110.12,-12.44 -155.18,-37.32 -45.03,-24.85 -80.18,-59.29 -105.42,-103.27 -25.23,-43.96 -37.86,-93.7 -37.86,-149.23 0,-55.5 12.08,-105.24 36.23,-149.22 24.16,-43.96 57.32,-78.22 99.5,-102.72 42.17,-24.53 89.58,-36.76 142.2,-36.76 52.63,0 99.85,12.23 141.67,36.76 41.79,24.5 74.59,58.57 98.4,102.17 23.78,43.63 35.68,93.54 35.68,149.77l-1.1 23.8zm-274.66 -246.55c-54.79,0 -100.74,17.47 -137.89,52.44 -37.11,34.97 -58.19,80.56 -63.25,136.79l403.35 0c-5.04,-56.23 -26.14,-101.82 -63.25,-136.79 -37.14,-34.97 -83.46,-52.44 -138.96,-52.44zm722.34 -65.96c71.37,0 128.16,20.71 170.33,62.17 42.17,41.44 63.25,101.82 63.25,181.11l0 329.84 -76.79 0 0 -322.24c0,-59.11 -14.76,-104.17 -44.32,-135.18 -29.56,-30.99 -71.73,-46.5 -126.52,-46.5 -61.29,0 -109.77,18.19 -145.45,54.62 -35.68,36.4 -53.52,86.67 -53.52,150.84l0 298.46 -76.78 0 0 -568.8 73.54 0 0 104.89c20.9,-34.62 49.91,-61.46 87.03,-80.57 37.14,-19.1 80.21,-28.63 129.22,-28.63zm741.81 538.5c-14.41,12.98 -32.26,22.89 -53.51,29.76 -21.29,6.85 -43.45,10.27 -66.52,10.27 -53.34,0 -94.44,-14.44 -123.28,-43.27 -28.84,-28.84 -43.25,-69.56 -43.25,-122.18l0 -343.88 -101.64 0 0 -64.88 101.64 0 0 -124.35 76.79 0 0 124.35 173.01 0 0 64.88 -173.01 0 0 339.53c0,33.9 8.45,59.68 25.39,77.32 16.96,17.68 41.28,26.49 73,26.49 15.87,0 31.2,-2.51 45.96,-7.56 14.8,-5.06 27.6,-12.26 38.4,-21.64l27.02 55.15zm291.97 40.03c-46.14,0 -90.3,-6.67 -132.47,-20 -42.17,-13.36 -75.15,-30.12 -98.93,-50.3l34.59 -60.56c23.81,18.75 53.72,34.07 89.77,45.98 36.04,11.88 73.54,17.84 112.46,17.84 51.91,0 90.28,-8.1 115.16,-24.33 24.88,-16.22 37.31,-39.13 37.31,-68.68 0,-20.9 -6.87,-37.29 -20.56,-49.2 -13.69,-11.87 -30.99,-20.9 -51.9,-27.02 -20.9,-6.13 -48.66,-12.08 -83.25,-17.86 -46.16,-8.63 -83.28,-17.47 -111.4,-26.49 -28.1,-9.01 -52.08,-24.32 -71.91,-45.96 -19.82,-21.63 -29.73,-51.55 -29.73,-89.76 0,-47.57 19.82,-86.5 59.47,-116.79 39.67,-30.27 94.79,-45.39 165.45,-45.39 36.78,0 73.54,4.85 110.3,14.59 36.78,9.73 67.05,22.52 90.83,38.39l-33.52 61.64c-46.87,-32.44 -102.74,-48.66 -167.61,-48.66 -49.02,0 -85.96,8.63 -110.84,25.96 -24.88,17.29 -37.29,40 -37.29,68.12 0,21.62 7.03,38.93 21.08,51.91 14.05,12.98 31.55,22.52 52.44,28.66 20.92,6.11 49.76,12.41 86.52,18.9 45.41,8.66 81.82,17.31 109.22,25.96 27.38,8.65 50.8,23.44 70.27,44.34 19.47,20.93 29.19,49.74 29.19,86.52 0,49.74 -20.71,89.2 -62.17,118.4 -41.46,29.19 -98.93,43.81 -172.47,43.81zm659.63 -574.21l76.78 0 0 568.8 -76.78 0 0 -568.8zm38.92 -124.35c-15.86,0 -29.19,-5.42 -40,-16.23 -10.83,-10.82 -16.22,-23.8 -16.22,-38.92 0,-14.44 5.38,-27.05 16.22,-37.86 10.8,-10.8 24.14,-16.23 40,-16.23 15.87,0 29.21,5.24 40.01,15.68 10.82,10.45 16.22,22.89 16.22,37.29 0,15.87 -5.39,29.21 -16.22,40.03 -10.8,10.8 -24.14,16.23 -40.01,16.23zm541.77 120.03c71.38,0 128.16,20.71 170.33,62.17 42.17,41.44 63.25,101.82 63.25,181.11l0 329.84 -76.78 0 0 -322.24c0,-59.11 -14.77,-104.17 -44.33,-135.18 -29.56,-30.99 -71.73,-46.5 -126.52,-46.5 -61.28,0 -109.77,18.19 -145.45,54.62 -35.68,36.4 -53.51,86.67 -53.51,150.84l0 298.46 -76.79 0 0 -568.8 73.54 0 0 104.89c20.9,-34.62 49.92,-61.46 87.03,-80.57 37.14,-19.1 80.21,-28.63 129.22,-28.63zm1374.42 -183.84l0 756.96 -65.99 0 -486.6 -614.22 0 614.22 -80.03 0 0 -756.96 65.96 0 487.69 614.21 0 -614.21 78.96 0zm725.58 496.34l-475.78 0c4.32,59.11 27.02,106.88 68.12,143.28 41.11,36.41 93.01,54.62 155.72,54.62 35.32,0 67.77,-6.31 97.32,-18.92 29.56,-12.63 55.15,-31.2 76.78,-55.69l43.25 49.74c-25.24,30.27 -56.78,53.34 -94.62,69.19 -37.86,15.87 -79.49,23.81 -124.91,23.81 -58.39,0 -110.12,-12.44 -155.18,-37.32 -45.04,-24.85 -80.18,-59.29 -105.42,-103.27 -25.24,-43.96 -37.86,-93.7 -37.86,-149.23 0,-55.5 12.08,-105.24 36.22,-149.22 24.16,-43.96 57.32,-78.22 99.5,-102.72 42.17,-24.53 89.59,-36.76 142.21,-36.76 52.62,0 99.85,12.23 141.66,36.76 41.79,24.5 74.6,58.57 98.4,102.17 23.78,43.63 35.68,93.54 35.68,149.77l-1.1 23.8zm-274.65 -246.55c-54.8,0 -100.75,17.47 -137.9,52.44 -37.11,34.97 -58.19,80.56 -63.24,136.79l403.34 0c-5.03,-56.23 -26.13,-101.82 -63.25,-136.79 -37.14,-34.97 -83.45,-52.44 -138.95,-52.44zm732.07 472.54c-14.41,12.98 -32.26,22.89 -53.51,29.76 -21.28,6.85 -43.45,10.27 -66.52,10.27 -53.34,0 -94.44,-14.44 -123.28,-43.27 -28.84,-28.84 -43.25,-69.56 -43.25,-122.18l0 -343.88 -101.64 0 0 -64.88 101.64 0 0 -124.35 76.79 0 0 124.35 173.01 0 0 64.88 -173.01 0 0 339.53c0,33.9 8.45,59.68 25.39,77.32 16.96,17.68 41.28,26.49 73.01,26.49 15.86,0 31.19,-2.51 45.95,-7.56 14.8,-5.06 27.6,-12.26 38.4,-21.64l27.02 55.15zm963.5 -534.18l-215.19 568.8 -72.46 0 -179.5 -466.08 -179.51 466.08 -72.44 0 -214.11 -568.8 73.52 0 178.43 483.38 182.77 -483.38 65.96 0 181.67 483.38 180.57 -483.38 70.3 0zm332 574.21c-54.8,0 -104.19,-12.44 -148.16,-37.32 -43.98,-24.85 -78.57,-59.29 -103.81,-103.27 -25.24,-43.96 -37.86,-93.7 -37.86,-149.23 0,-55.5 12.62,-105.24 37.86,-149.22 25.24,-43.96 59.83,-78.22 103.81,-102.72 43.96,-24.53 93.36,-36.76 148.16,-36.76 54.77,0 104.16,12.23 148.13,36.76 43.99,24.5 78.4,58.75 103.28,102.72 24.88,43.98 37.29,93.72 37.29,149.22 0,55.53 -12.41,105.27 -37.29,149.23 -24.88,43.98 -59.29,78.42 -103.28,103.27 -43.96,24.88 -93.36,37.32 -148.13,37.32zm0 -68.13c40.36,0 76.58,-9.2 108.66,-27.59 32.08,-18.37 57.14,-44.53 75.15,-78.4 18.04,-33.87 27.03,-72.44 27.03,-115.71 0,-43.25 -8.99,-81.82 -27.03,-115.69 -18.01,-33.89 -43.07,-60.03 -75.15,-78.39 -32.08,-18.39 -68.3,-27.59 -108.66,-27.59 -40.39,0 -76.61,9.2 -108.69,27.59 -32.08,18.36 -57.32,44.5 -75.69,78.39 -18.39,33.87 -27.59,72.44 -27.59,115.69 0,43.27 9.2,81.84 27.59,115.71 18.37,33.87 43.61,60.03 75.69,78.4 32.08,18.39 68.3,27.59 108.69,27.59zm519.06 -394.71c18.01,-38.22 44.85,-67.06 80.53,-86.5 35.69,-19.47 79.86,-29.19 132.47,-29.19l0 74.59 -18.36 -1.07c-59.85,0 -106.7,18.39 -140.6,55.14 -33.86,36.76 -50.8,88.31 -50.8,154.65l0 289.81 -76.78 0 0 -568.8 73.54 0 0 111.38zm562.3 171.93l-134.08 123.28 0 162.21 -76.78 0 0 -802.38 76.78 0 0 543.92 339.53 -310.34 95.16 0 -243.29 232.48 265.99 336.32 -94.08 0 -229.23 -285.49zm430.37 -283.31l76.79 0 0 568.8 -76.79 0 0 -568.8zm38.93 -124.35c-15.87,0 -29.19,-5.42 -40,-16.23 -10.83,-10.82 -16.23,-23.8 -16.23,-38.92 0,-14.44 5.39,-27.05 16.23,-37.86 10.8,-10.8 24.13,-16.23 40,-16.23 15.87,0 29.19,5.24 40,15.68 10.83,10.45 16.22,22.89 16.22,37.29 0,15.87 -5.38,29.21 -16.22,40.03 -10.8,10.8 -24.13,16.23 -40,16.23zm541.77 120.03c71.37,0 128.16,20.71 170.33,62.17 42.17,41.44 63.25,101.82 63.25,181.11l0 329.84 -76.79 0 0 -322.24c0,-59.11 -14.77,-104.17 -44.32,-135.18 -29.56,-30.99 -71.73,-46.5 -126.53,-46.5 -61.28,0 -109.76,18.19 -145.44,54.62 -35.68,36.4 -53.52,86.67 -53.52,150.84l0 298.46 -76.78 0 0 -568.8 73.54 0 0 104.89c20.9,-34.62 49.91,-61.46 87.03,-80.57 37.13,-19.1 80.2,-28.63 129.22,-28.63zm971.06 4.32l0 499.59c0,96.58 -23.6,168.14 -70.83,214.65 -47.2,46.49 -118.39,69.74 -213.55,69.74 -52.65,0 -102.55,-7.74 -149.79,-23.25 -47.2,-15.5 -85.59,-36.93 -115.15,-64.35l38.92 -58.39c27.38,24.53 60.74,43.63 100.04,57.32 39.29,13.69 80.56,20.53 123.81,20.53 72.08,0 125.06,-16.75 158.96,-50.27 33.86,-33.54 50.8,-85.62 50.8,-156.26l0 -72.46c-23.78,36.05 -54.95,63.45 -93.52,82.2 -38.57,18.72 -81.28,28.1 -128.16,28.1 -53.33,0 -101.82,-11.7 -145.44,-35.12 -43.61,-23.45 -77.87,-56.26 -102.72,-98.43 -24.88,-42.17 -37.32,-89.91 -37.32,-143.27 0,-53.34 12.44,-100.93 37.32,-142.75 24.85,-41.82 58.93,-74.25 102.17,-97.32 43.28,-23.07 91.94,-34.59 145.98,-34.59 48.31,0 91.94,9.73 130.86,29.19 38.93,19.44 70.27,47.57 94.05,84.33l0 -109.2 73.54 0zm-290.86 479.03c41.07,0 78.21,-8.81 111.37,-26.49 33.16,-17.66 58.93,-42.35 77.32,-74.07 18.37,-31.7 27.57,-67.75 27.57,-108.13 0,-40.36 -9.2,-76.23 -27.57,-107.59 -18.39,-31.37 -43.98,-55.86 -76.79,-73.54 -32.8,-17.66 -70.11,-26.49 -111.9,-26.49 -41.11,0 -78.04,8.65 -110.86,25.95 -32.8,17.29 -58.4,41.82 -76.76,73.54 -18.39,31.73 -27.6,67.78 -27.6,108.14 0,40.38 9.21,76.43 27.6,108.13 18.36,31.72 43.96,56.42 76.76,74.07 32.83,17.68 69.76,26.49 110.86,26.49zm1347.35 101.67l-104.91 -108.16c-64.14,68.49 -148.49,102.74 -253.02,102.74 -49.04,0 -92.84,-8.09 -131.41,-24.32 -38.57,-16.22 -68.66,-38.92 -90.29,-68.13 -21.61,-29.19 -32.44,-62.55 -32.44,-100.03 0,-45.41 14.44,-86.16 43.27,-122.2 28.84,-36.05 77.86,-73.9 147.06,-113.54 -36.05,-37.47 -60.93,-69.39 -74.62,-95.69 -13.69,-26.31 -20.53,-54.26 -20.53,-83.81 0,-48.3 17.29,-87.23 51.9,-116.78 34.59,-29.56 81.11,-44.35 139.5,-44.35 54.05,0 96.94,13.33 128.67,40.02 31.72,26.67 47.59,63.43 47.59,110.3 0,37.47 -12.62,71.17 -37.86,101.11 -25.23,29.91 -68.84,62.89 -130.83,98.93l207.62 214.11c23.07,-41.1 40,-89.76 50.8,-145.98l62.74 19.47c-13.69,67.77 -36.05,125.8 -67.05,174.1l108.13 111.38 -44.32 50.83zm-325.49 -716.96c-37.49,0 -66.87,9.38 -88.15,28.13 -21.26,18.72 -31.88,43.6 -31.88,74.62 0,22.32 5.74,43.6 17.29,63.78 11.52,20.18 34.23,47.59 68.13,82.17 54.79,-31.7 92.63,-58.75 113.54,-81.1 20.9,-22.33 31.37,-46.85 31.37,-73.52 0,-28.84 -9.73,-51.73 -29.19,-68.66 -19.47,-16.96 -46.52,-25.42 -81.11,-25.42zm-28.12 647.73c83.63,0 151.4,-28.46 203.31,-85.42l-228.19 -234.65c-59.83,33.87 -101.11,64.52 -123.81,91.9 -22.72,27.41 -34.05,58.04 -34.05,91.91 0,41.11 16.76,74.08 50.27,98.96 33.51,24.88 77.68,37.29 132.47,37.29zm1147.32 63.8c-74.97,0 -142.56,-16.57 -202.74,-49.73 -60.21,-33.19 -107.41,-79.13 -141.67,-137.89 -34.23,-58.75 -51.37,-124.54 -51.37,-197.36 0,-72.8 17.14,-138.57 51.37,-197.32 34.26,-58.75 81.64,-104.74 142.2,-137.89 60.57,-33.16 128.31,-49.74 203.31,-49.74 56.23,0 108.13,9.38 155.69,28.13 47.6,18.72 87.98,46.13 121.14,82.17l-50.83 50.83c-59.11,-59.85 -133.72,-89.77 -223.84,-89.77 -59.83,0 -114.26,13.69 -163.28,41.11 -49.02,27.38 -87.41,64.88 -115.18,112.44 -27.75,47.59 -41.62,100.92 -41.62,160.03 0,59.14 13.87,112.47 41.62,160.07 27.77,47.55 66.16,85.06 115.18,112.44 49.01,27.4 103.45,41.1 163.28,41.1 90.83,0 165.44,-30.27 223.84,-90.83l50.83 50.83c-33.16,36.05 -73.72,63.6 -121.67,82.72 -47.93,19.1 -100.01,28.65 -156.26,28.65zm910.5 -575.28l-284.38 636.92c-23.09,53.34 -49.76,91.2 -80.03,113.55 -30.27,22.34 -66.69,33.51 -109.22,33.51 -27.38,0 -52.98,-4.32 -76.76,-12.98 -23.8,-8.63 -44.35,-21.61 -61.64,-38.92l35.68 -57.3c28.84,28.84 63.43,43.25 103.81,43.25 25.96,0 48.1,-7.2 66.5,-21.64 18.39,-14.41 35.5,-38.92 51.37,-73.51l24.88 -55.15 -254.14 -567.72 80.03 0 214.11 483.38 214.11 -483.38 75.68 0zm401.17 -4.32c53.36,0 101.67,12.05 144.92,36.22 43.24,24.14 77.14,58.22 101.64,102.18 24.52,43.98 36.75,94.07 36.75,150.3 0,56.25 -12.23,106.34 -36.75,150.33 -24.5,43.96 -58.4,78.21 -101.64,102.71 -43.25,24.53 -91.56,36.79 -144.92,36.79 -47.57,0 -90.3,-10.09 -128.13,-30.3 -37.86,-20.17 -68.31,-49.38 -91.37,-87.58l0 112.47 -73.55 0 0 -802.38 76.79 0 0 341.71c23.78,-36.76 54.24,-64.7 91.37,-83.81 37.12,-19.1 78.76,-28.63 124.89,-28.63zm-5.39 510.4c39.65,0 75.69,-9.2 108.13,-27.59 32.44,-18.37 57.87,-44.53 76.23,-78.4 18.39,-33.87 27.59,-72.44 27.59,-115.71 0,-43.25 -9.2,-81.82 -27.59,-115.69 -18.36,-33.89 -43.78,-60.03 -76.23,-78.39 -32.43,-18.39 -68.48,-27.59 -108.13,-27.59 -40.38,0 -76.6,9.2 -108.69,27.59 -32.08,18.36 -57.31,44.5 -75.68,78.39 -18.39,33.87 -27.59,72.44 -27.59,115.69 0,43.27 9.2,81.84 27.59,115.71 18.37,33.87 43.6,60.03 75.68,78.4 32.09,18.39 68.31,27.59 108.69,27.59zm940.77 -197.9l-475.78 0c4.32,59.11 27.02,106.88 68.13,143.28 41.1,36.41 93.01,54.62 155.71,54.62 35.33,0 67.77,-6.31 97.32,-18.92 29.56,-12.63 55.15,-31.2 76.79,-55.69l43.25 49.74c-25.24,30.27 -56.79,53.34 -94.62,69.19 -37.86,15.87 -79.5,23.81 -124.92,23.81 -58.39,0 -110.12,-12.44 -155.18,-37.32 -45.03,-24.85 -80.18,-59.29 -105.42,-103.27 -25.23,-43.96 -37.86,-93.7 -37.86,-149.23 0,-55.5 12.08,-105.24 36.23,-149.22 24.16,-43.96 57.32,-78.22 99.5,-102.72 42.17,-24.53 89.58,-36.76 142.2,-36.76 52.62,0 99.85,12.23 141.67,36.76 41.79,24.5 74.59,58.57 98.4,102.17 23.77,43.63 35.68,93.54 35.68,149.77l-1.11 23.8zm-274.65 -246.55c-54.79,0 -100.74,17.47 -137.89,52.44 -37.12,34.97 -58.19,80.56 -63.25,136.79l403.35 0c-5.04,-56.23 -26.14,-101.82 -63.25,-136.79 -37.14,-34.97 -83.46,-52.44 -138.96,-52.44zm506.08 49.74c18.01,-38.22 44.86,-67.06 80.54,-86.5 35.68,-19.47 79.85,-29.19 132.47,-29.19l0 74.59 -18.37 -1.07c-59.85,0 -106.7,18.39 -140.59,55.14 -33.87,36.76 -50.81,88.31 -50.81,154.65l0 289.81 -76.78 0 0 -568.8 73.54 0 0 111.38z"/>
   <path class="fil1" d="M27330.87 5315.9c-46.14,0 -90.3,-6.67 -132.47,-20 -42.17,-13.36 -75.15,-30.12 -98.93,-50.3l34.59 -60.56c23.81,18.75 53.72,34.07 89.77,45.98 36.04,11.88 73.54,17.84 112.46,17.84 51.91,0 90.28,-8.1 115.16,-24.33 24.88,-16.22 37.31,-39.13 37.31,-68.68 0,-20.9 -6.87,-37.29 -20.56,-49.2 -13.69,-11.87 -30.99,-20.9 -51.9,-27.02 -20.9,-6.13 -48.66,-12.08 -83.25,-17.86 -46.16,-8.63 -83.28,-17.47 -111.4,-26.49 -28.1,-9.01 -52.08,-24.32 -71.91,-45.96 -19.82,-21.63 -29.73,-51.55 -29.73,-89.76 0,-47.57 19.82,-86.5 59.47,-116.79 39.67,-30.27 94.79,-45.39 165.45,-45.39 36.78,0 73.54,4.85 110.3,14.59 36.78,9.73 67.05,22.52 90.83,38.39l-33.52 61.64c-46.87,-32.44 -102.74,-48.66 -167.61,-48.66 -49.02,0 -85.96,8.63 -110.84,25.96 -24.88,17.29 -37.29,40 -37.29,68.12 0,21.62 7.03,38.93 21.08,51.91 14.05,12.98 31.55,22.52 52.44,28.66 20.92,6.11 49.76,12.41 86.52,18.9 45.41,8.66 81.82,17.31 109.22,25.96 27.38,8.65 50.8,23.44 70.27,44.34 19.47,20.93 29.19,49.74 29.19,86.52 0,49.74 -20.71,89.2 -62.17,118.4 -41.46,29.19 -98.93,43.81 -172.47,43.81zm871.57 -266.02l-475.79 0c4.32,59.11 27.03,106.88 68.13,143.28 41.1,36.41 93.01,54.62 155.71,54.62 35.33,0 67.78,-6.31 97.32,-18.92 29.56,-12.63 55.15,-31.2 76.79,-55.69l43.25 49.74c-25.24,30.27 -56.79,53.34 -94.62,69.19 -37.86,15.87 -79.5,23.81 -124.91,23.81 -58.4,0 -110.13,-12.44 -155.19,-37.32 -45.03,-24.85 -80.18,-59.29 -105.41,-103.27 -25.24,-43.96 -37.86,-93.7 -37.86,-149.23 0,-55.5 12.08,-105.24 36.22,-149.22 24.16,-43.96 57.32,-78.22 99.5,-102.72 42.17,-24.53 89.59,-36.76 142.2,-36.76 52.63,0 99.86,12.23 141.67,36.76 41.79,24.5 74.59,58.57 98.4,102.17 23.78,43.63 35.68,93.54 35.68,149.77l-1.1 23.8zm-274.66 -246.55c-54.79,0 -100.74,17.47 -137.89,52.44 -37.11,34.97 -58.19,80.56 -63.25,136.79l403.35 0c-5.03,-56.23 -26.14,-101.82 -63.25,-136.79 -37.14,-34.97 -83.45,-52.44 -138.96,-52.44zm668.29 512.57c-56.26,0 -106.53,-12.26 -150.87,-36.79 -44.34,-24.5 -79.1,-58.92 -104.35,-103.25 -25.23,-44.35 -37.86,-94.25 -37.86,-149.79 0,-55.5 12.63,-105.24 37.86,-149.22 25.24,-43.96 60.01,-78.22 104.35,-102.72 44.35,-24.53 94.62,-36.76 150.87,-36.76 49.01,0 92.8,9.53 131.37,28.63 38.57,19.11 69.02,47.05 91.38,83.81l-57.3 38.93c-18.74,-28.13 -42.56,-49.2 -71.37,-63.25 -28.84,-14.07 -60.21,-21.1 -94.07,-21.1 -41.11,0 -78.04,9.2 -110.86,27.59 -32.8,18.36 -58.4,44.5 -76.76,78.39 -18.39,33.87 -27.6,72.44 -27.6,115.69 0,43.98 9.21,82.74 27.6,116.26 18.36,33.53 43.96,59.49 76.76,77.86 32.83,18.39 69.76,27.59 110.86,27.59 33.86,0 65.23,-6.84 94.07,-20.56 28.81,-13.69 52.63,-34.59 71.37,-62.72l57.3 38.93c-22.35,36.76 -52.99,64.71 -91.91,83.81 -38.93,19.1 -82.56,28.66 -130.83,28.66zm885.62 -574.21l0 568.8 -73.54 0 0 -103.81c-20.18,34.61 -47.95,61.46 -83.25,80.56 -35.33,19.1 -75.71,28.66 -121.14,28.66 -74.25,0 -132.83,-20.74 -175.72,-62.17 -42.89,-41.46 -64.35,-102.2 -64.35,-182.23l0 -329.81 76.79 0 0 322.24c0,59.85 14.77,105.24 44.35,136.26 29.56,31.01 71.73,46.49 126.52,46.49 59.83,0 107.06,-18.19 141.65,-54.59 34.61,-36.43 51.9,-87.06 51.9,-151.94l0 -298.46 76.79 0zm288.72 111.38c18.01,-38.22 44.86,-67.06 80.54,-86.5 35.68,-19.47 79.85,-29.19 132.47,-29.19l0 74.59 -18.37 -1.07c-59.85,0 -106.7,18.39 -140.59,55.14 -33.87,36.76 -50.8,88.31 -50.8,154.65l0 289.81 -76.79 0 0 -568.8 73.54 0 0 111.38zm351.44 -111.38l76.79 0 0 568.8 -76.79 0 0 -568.8zm38.93 -124.35c-15.87,0 -29.19,-5.42 -40,-16.23 -10.83,-10.82 -16.23,-23.8 -16.23,-38.92 0,-14.44 5.39,-27.05 16.23,-37.86 10.8,-10.8 24.13,-16.23 40,-16.23 15.87,0 29.19,5.24 40,15.68 10.83,10.45 16.23,22.89 16.23,37.29 0,15.87 -5.39,29.21 -16.23,40.03 -10.8,10.8 -24.13,16.23 -40,16.23zm551.5 658.53c-14.42,12.98 -32.26,22.89 -53.52,29.76 -21.28,6.85 -43.45,10.27 -66.52,10.27 -53.33,0 -94.44,-14.44 -123.28,-43.27 -28.83,-28.84 -43.24,-69.56 -43.24,-122.18l0 -343.88 -101.64 0 0 -64.88 101.64 0 0 -124.35 76.78 0 0 124.35 173.02 0 0 64.88 -173.02 0 0 339.53c0,33.9 8.46,59.68 25.39,77.32 16.96,17.68 41.28,26.49 73.01,26.49 15.87,0 31.19,-2.51 45.96,-7.56 14.79,-5.06 27.59,-12.26 38.39,-21.64l27.03 55.15zm606.65 -534.18l-284.38 636.92c-23.09,53.34 -49.76,91.2 -80.03,113.55 -30.27,22.34 -66.7,33.51 -109.22,33.51 -27.38,0 -52.98,-4.32 -76.76,-12.98 -23.81,-8.63 -44.35,-21.61 -61.64,-38.92l35.68 -57.3c28.84,28.84 63.43,43.25 103.81,43.25 25.96,0 48.1,-7.2 66.49,-21.64 18.39,-14.41 35.51,-38.92 51.37,-73.51l24.88 -55.15 -254.13 -567.72 80.03 0 214.11 483.38 214.11 -483.38 75.68 0z"/>
  </g>
 </g>
</svg>
